<svg width="74" height="94" viewBox="0 0 74 94" fill="none" xmlns="http://www.w3.org/2000/svg">
<g clip-path="url(#clip0)">
<path d="M57.2118 67.2913C57.6611 67.6887 58.0975 68.1052 58.5639 68.4812C61.1521 70.5599 63.7553 72.6236 66.3413 74.7065C67.5881 75.7105 68.8714 76.6825 70.0322 77.7806C72.9708 80.5514 73.8801 83.9054 72.4377 87.6974C70.9845 91.515 68.0739 93.5594 64.0004 93.9781C63.751 94.0038 63.4995 93.9995 63.248 93.9995C45.4469 93.9995 27.6479 94.0123 9.84683 93.9931C4.24274 93.9867 -0.0930655 89.6329 0.00151831 84.1767C0.0359124 82.1451 0.710897 80.3036 2.08236 78.8167C3.21092 77.5948 4.4706 76.4732 5.77543 75.4371C8.62584 73.1726 11.5515 71 14.4277 68.7654C15.0081 68.3146 15.5025 67.7592 15.9238 67.0691C14.2665 67.4537 12.6177 67.8959 10.9453 68.2099C8.17442 68.7312 5.81627 67.8425 4.01273 65.7532C2.24573 63.7066 1.5858 61.3566 2.66706 58.7161C5.48093 51.8415 8.20236 44.9262 11.1345 38.1007C12.1512 35.7315 13.8838 33.8708 16.4505 32.8048C19.5159 31.5294 22.7683 31.3542 25.954 30.7902C35.6403 29.0791 45.2298 30.0874 54.7333 32.1148C57.3042 32.6638 59.6044 34.0161 60.95 36.4792C61.6121 37.6884 62.2935 38.8976 62.831 40.1623C65.1633 45.6633 67.4978 51.1643 69.7205 56.7101C70.4621 58.5602 71.2855 60.4295 70.748 62.5829C69.7872 66.4389 65.9501 68.9811 62.0205 68.1928C60.4535 67.8788 58.9036 67.4793 57.3451 67.1204C57.2999 67.1738 57.257 67.2315 57.2118 67.2913ZM19.9823 89.7034C19.9437 89.4684 19.948 89.3573 19.9071 89.2676C18.1638 85.3645 20.4338 80.0964 25.8336 79.0624C32.7146 77.7443 39.5719 76.2959 46.4379 74.903C47.9813 74.589 49.1292 75.1658 49.413 76.3984C49.716 77.7144 48.9293 78.7398 47.3343 79.0667C40.3995 80.4873 33.4648 81.9016 26.5301 83.3201C24.6234 83.711 23.4905 85.0996 23.6539 86.8364C23.8151 88.5647 25.2017 89.7141 27.1686 89.7205C29.7116 89.729 32.2546 89.7226 34.7955 89.7226C44.2861 89.7226 53.7746 89.729 63.2652 89.7183C65.8103 89.7162 67.8589 88.2293 68.5447 85.9563C69.2584 83.5914 68.362 81.3119 66.1865 79.855C65.2966 79.2589 64.4109 78.648 63.5898 77.9665C60.2428 75.1871 56.8657 72.4377 53.6219 69.5408C52.7384 68.7504 52.1344 67.5455 51.6916 66.4176C51.4551 65.8194 51.2294 65.5801 50.6769 65.4498C47.5471 64.7042 44.3742 64.0997 41.311 63.1447C38.1274 62.1535 35.0491 61.9441 31.9107 63.1447C31.513 63.2964 31.0787 63.3498 30.6617 63.4502C27.6157 64.1979 24.5697 64.9435 21.9321 65.5908C21.2743 66.894 20.9303 68.0198 20.236 68.853C19.0795 70.2416 17.8026 71.581 16.386 72.7005C13.2239 75.2021 9.96506 77.5819 6.70622 79.9597C4.76295 81.3782 3.8945 83.4974 4.4878 85.7448C5.06175 87.9281 6.90829 89.6072 9.16755 89.6713C12.7402 89.7781 16.3215 89.7034 19.9823 89.7034ZM36.6893 34.1571C30.8337 34.2788 25.1931 35.2124 19.5438 36.1652C17.0545 36.5861 15.7089 37.9747 14.806 40.2178C12.2179 46.6396 9.51794 53.0207 6.8223 59.3998C6.28274 60.6751 6.29779 61.8352 7.17699 62.8969C8.07983 63.9907 9.25353 64.277 10.6529 63.9309C17.0352 62.3521 23.4218 60.7841 29.8169 59.2609C33.3187 58.4277 36.7925 56.9515 40.464 58.5623C40.593 58.62 40.737 58.6478 40.8746 58.682C48.0974 60.4401 55.3201 62.1919 62.5408 63.9565C63.8542 64.277 64.972 63.9672 65.8361 62.9653C66.7347 61.9249 66.8658 60.7478 66.2768 59.4831C65.8598 58.588 65.4986 57.6651 65.116 56.7529C62.6439 50.8502 60.1762 44.9455 57.7041 39.0428C57.1108 37.6243 56.0532 36.7377 54.5463 36.4237C48.6219 35.1889 42.6459 34.328 36.6893 34.1571Z" fill="white"/>
<path d="M36.5535 5.33761e-06C43.6452 0.00641428 49.4599 5.8236 49.4341 12.8863C49.4083 19.8784 43.5721 25.6401 36.5213 25.6336C29.434 25.6272 23.6149 19.8058 23.6407 12.7474C23.6644 5.75951 29.5071 -0.00640361 36.5535 5.33761e-06ZM36.5729 21.3589C41.3322 21.3439 45.1478 17.5199 45.1327 12.7794C45.1177 8.0475 41.272 4.25982 36.502 4.27264C31.7427 4.28759 27.9292 8.10946 27.9421 12.8499C27.955 17.5755 31.8093 21.3738 36.5729 21.3589Z" fill="white"/>
<path d="M36.2525 42.2943C35.6356 44.6186 34.9885 46.9344 34.4146 49.2694C34.1824 50.2179 33.7224 50.8972 32.7873 51.2091C28.5504 52.6127 24.3156 54.0205 20.0701 55.3985C18.905 55.7766 17.8603 55.2895 17.3895 54.2619C16.951 53.3049 17.2584 52.2196 18.1698 51.6449C18.4665 51.457 18.8126 51.3395 19.15 51.2284C22.5379 50.0983 25.9171 48.9425 29.3243 47.8701C30.1949 47.5966 30.5087 47.1288 30.743 46.2892C31.3772 44.0012 32.0887 41.7282 32.9184 39.5021C33.243 38.6348 33.8664 37.8187 34.5285 37.1501C35.685 35.9794 37.4155 35.9879 38.5612 37.1671C39.2169 37.8422 39.8338 38.6604 40.1605 39.5278C40.9817 41.7175 41.6975 43.9542 42.3145 46.208C42.566 47.1288 42.9336 47.6094 43.8794 47.9021C47.2887 48.9617 50.6615 50.1388 54.0536 51.2519C55.0596 51.5809 55.7647 52.1534 55.8658 53.2493C56.0055 54.7768 54.5437 55.8877 52.9767 55.3835C48.7268 54.0141 44.4942 52.5999 40.2573 51.1942C39.363 50.8972 38.8944 50.2542 38.6709 49.3441C38.1979 47.4129 37.6713 45.4945 37.1468 43.5761C37.0285 43.1424 36.8222 42.7344 36.6566 42.3135C36.5234 42.3093 36.3879 42.3028 36.2525 42.2943Z" fill="white"/>
</g>
<defs>
<clipPath id="clip0">
<rect width="73.1111" height="94" fill="white"/>
</clipPath>
</defs>
</svg>
