<svg width="149" height="94" viewBox="0 0 149 94" fill="none" xmlns="http://www.w3.org/2000/svg">
<g clip-path="url(#clip0)">
<path d="M121.709 56.973C121.035 56.8875 120.454 56.8225 119.877 56.7407C116.922 56.3226 114.902 54.7858 114.095 51.8478C113.093 48.2074 112.172 44.5429 111.111 40.9192C109.976 37.0391 108.468 33.2946 106.054 30.0166C105.094 28.712 103.884 27.5618 102.661 26.484C101.521 25.4805 100.087 25.0493 98.5445 24.9787C96.646 24.8914 95.7787 23.8972 95.7638 21.8865C95.749 19.9149 96.5735 18.9393 98.416 18.7553C100.385 18.5583 100.936 18.2015 100.973 16.215C101.012 14.0687 100.908 11.861 100.434 9.77788C99.7561 6.81018 96.5735 4.79393 93.6477 5.10241C90.6288 5.42017 87.8873 8.09426 87.6807 11.0675C87.5616 12.7902 87.5727 14.5314 87.6565 16.2596C87.7496 18.1495 88.1739 18.5342 90.0314 18.8371C91.98 19.1548 92.7506 20.0412 92.7413 21.9516C92.7338 23.5739 92.1159 24.568 90.4967 24.7632C85.25 25.3968 82.5438 28.9592 80.5207 33.2519C78.639 37.2453 77.4721 41.4897 76.547 45.7991C76.3646 46.6465 76.1599 47.4883 75.9254 48.3226C75.5755 49.5658 74.5947 50.2274 73.3551 50.0973C72.1807 49.9747 71.6205 49.3614 71.4734 47.9491C71.3785 47.0255 71.3134 46.0964 71.2985 45.1691C71.2315 40.9582 71.0975 36.7436 71.1701 32.5346C71.2036 30.5648 70.3642 29.1432 69.0651 27.9C67.1313 26.0473 64.6522 25.3169 62.1098 24.7985C60.8051 24.5327 59.4688 24.4212 58.1622 24.1648C55.8971 23.7188 55.0019 20.8384 56.5672 19.1009C56.7328 18.917 56.9022 18.7293 57.0957 18.5788C59.9154 16.3878 59.9638 13.3384 59.4259 10.2833C58.8862 7.21715 56.1893 5.10984 53.3231 5.10798C50.4308 5.10612 47.8791 7.19671 47.1439 10.2276C46.6638 12.203 46.7215 14.1969 47.5516 16.0571C47.9368 16.923 48.5994 17.737 49.3178 18.3669C50.5816 19.4726 51.2348 21.4182 50.3843 22.8454C50.0251 23.4456 49.1913 23.9232 48.4803 24.1221C47.2054 24.477 45.8541 24.5513 44.5439 24.7948C42.5226 25.1701 40.5795 25.7462 38.8077 26.8593C36.6208 28.2326 35.5636 30.1411 35.558 32.7278C35.5487 36.7845 35.4985 40.843 35.3589 44.8959C35.3049 46.4625 35.1486 48.0736 34.7093 49.5677C33.4028 54.022 30.0303 56.4638 24.9325 56.7054C23.1123 56.7927 21.279 56.6255 19.4531 56.5233C18.3941 56.4638 17.4766 56.0308 17.1527 54.9456C16.8177 53.8176 16.7768 52.6729 17.6925 51.7233C18.2508 51.1435 18.8296 50.5805 19.3713 49.984C21.1245 48.0495 20.6015 44.5243 18.3699 43.1529C16.7842 42.1791 14.8579 42.6121 13.5364 44.121C11.7571 46.1521 12.6412 49.761 14.4354 50.8945C15.2115 51.3851 15.9318 52.0002 16.0509 53.0483C16.2854 55.1091 15.6973 56.1944 13.6481 56.5456C10.378 57.1068 8.28042 59.0357 6.73935 61.7897C5.92229 63.2485 5.14989 64.7388 4.2193 66.1232C3.25892 67.5504 1.64899 67.5411 0.521112 66.2459C-2.16912e-05 65.6494 -0.135889 64.9692 0.132123 64.2538C1.79789 59.8459 3.90476 55.7521 8.16688 53.2267C8.48143 53.0408 8.78852 52.8401 8.98767 52.7156C8.54098 51.229 7.96215 49.8725 7.74067 48.4601C6.99247 43.6676 10.0355 38.9382 14.4056 37.9125C19.2949 36.7622 24.2867 40.0792 25.1112 45.0372C25.435 46.9884 25.4183 48.9229 24.7203 50.8109C24.6459 51.0134 24.5956 51.2253 24.5435 51.4353C24.5286 51.491 24.5491 51.5561 24.5528 51.6174C26.9277 52.2399 29.7995 50.1716 30.1643 47.4938C30.3355 46.2413 30.343 44.9628 30.369 43.6955C30.4379 40.2279 30.5291 36.7585 30.5179 33.2909C30.4993 27.4094 33.5461 23.6575 38.7314 21.422C40.2855 20.7511 41.9568 20.3497 43.6914 19.7885C43.5351 19.4299 43.3918 19.0359 43.1945 18.6698C42.4705 17.3263 42.1671 15.8991 42.2062 14.3772C42.2379 13.1395 42.2807 11.8945 42.1988 10.6624C41.9661 7.12052 45.5005 1.74261 50.0139 0.718688C57.3023 -0.935194 62.7761 2.52867 64.3916 9.79274C65.0672 12.8311 64.615 15.8266 63.3754 18.6958C62.9157 19.7606 62.9827 19.8071 64.1106 20.1434C65.3278 20.5058 66.5618 20.8366 67.7343 21.3142C72.3035 23.1818 74.6095 25.8038 75.9664 30.7357C76.3646 30.1838 76.6606 29.7601 76.9695 29.3457C78.3933 27.441 79.7688 25.4953 81.2708 23.6538C81.8626 22.9272 82.7597 22.457 83.4688 21.8159C83.6847 21.6208 83.936 21.1358 83.8411 20.9704C82.4024 18.4375 82.8677 15.665 82.7709 12.9649C82.7541 12.5003 82.7858 12.0357 82.7653 11.5711C82.488 4.88127 89.3055 -0.347973 94.6676 0.0181112C100.177 0.393487 105.252 4.99834 105.71 10.6587C105.905 13.0838 105.77 15.5479 105.626 17.9841C105.572 18.9021 105.09 19.8034 104.763 20.6954C104.591 21.1599 104.444 21.5112 104.975 21.8902C108.844 24.6572 111.446 28.4314 113.35 32.7074C115.654 37.8772 117.134 43.3127 118.383 48.8151C118.465 49.1774 118.558 49.538 118.671 49.891C119.168 51.4539 119.877 52.0095 121.508 52.0671C122.39 52.0987 123.276 52.0727 124.261 52.0727C123.922 50.7031 123.585 49.5547 123.356 48.3877C122.418 43.6044 126.038 38.4755 130.829 37.7601C135.753 37.0261 140.339 40.6404 140.903 45.6931C141.156 47.964 140.894 50.1419 139.675 52.2436C140.187 52.4852 140.654 52.645 141.054 52.9033C142.448 53.8065 143.911 54.6371 145.173 55.7001C146.507 56.8225 147.25 58.4095 147.531 60.1321C148.024 63.1537 148.445 66.1883 148.879 69.2192C148.94 69.6447 148.916 70.0851 148.901 70.5181C148.839 72.2556 148.054 73.1179 146.535 73.1327C145.301 73.1457 144.22 72.014 144.077 70.5553C143.952 69.2935 143.868 68.0243 143.695 66.7699C143.464 65.0845 143.131 63.412 142.902 61.7247C142.657 59.9203 141.612 58.6919 140.055 57.9709C138.862 57.4171 137.546 57.1235 136.273 56.7519C135.711 56.5883 135.121 56.5121 134.542 56.4081C132.617 56.0587 131.629 52.8346 133.386 51.6973C133.82 51.4167 134.153 50.98 134.521 50.6028C136.118 48.973 136.472 46.9884 135.539 44.8885C134.953 43.5673 133.969 42.744 132.502 42.6158C131 42.4839 129.852 43.1436 129.031 44.3645C127.847 46.1224 128.009 48.6144 129.416 50.246C129.941 50.8555 130.527 51.4111 131.104 51.976C131.983 52.8346 131.981 53.8436 131.605 54.8991C131.233 55.9435 130.434 56.4508 129.347 56.553C126.712 56.8039 126.676 56.8076 126.751 59.3925C126.92 65.3353 127.01 71.2837 127.363 77.2173C127.573 80.7313 128.216 84.2193 128.69 87.7166C128.757 88.2109 128.966 88.6867 129.109 89.1717C129.213 89.1642 129.317 89.1587 129.422 89.1512C129.477 88.8223 129.576 88.4953 129.584 88.1645C129.647 85.6261 129.693 83.0876 129.747 80.5492C129.801 78.0423 129.85 75.5337 129.919 73.0268C129.961 71.4491 130.713 70.6761 132.146 70.6909C133.539 70.7058 134.339 71.5253 134.371 73.0658C134.467 77.8026 134.532 82.5413 134.622 87.2781C134.633 87.908 134.722 88.538 134.776 89.168C134.903 89.194 135.031 89.22 135.158 89.246C135.335 88.7424 135.612 88.2481 135.67 87.7315C135.96 85.1169 136.353 82.5004 136.412 79.8765C136.535 74.3053 136.476 68.7304 136.485 63.1555C136.487 62.0313 137.587 60.8717 138.793 60.7491C139.848 60.6431 140.996 61.5091 141.218 62.6427C141.341 63.2782 141.406 63.9323 141.423 64.5809C141.598 71.8579 141.683 79.1369 140.885 86.3898C140.753 87.5884 140.563 88.7851 140.311 89.9633C139.824 92.2453 138.21 93.7895 135.874 93.914C133.375 94.046 130.853 94.033 128.355 93.862C125.949 93.6966 124.396 92.2713 124.002 89.8574C123.447 86.4697 123.051 83.0523 122.673 79.6386C121.873 72.4266 121.623 65.1867 121.711 57.9337C121.713 57.629 121.709 57.3279 121.709 56.973Z" fill="white"/>
<path d="M106.943 70.2241C106.853 72.5395 106.829 74.8606 106.66 77.1723C106.405 80.6566 106.193 84.1557 105.698 87.6103C105.234 90.8456 102.468 93.516 99.2188 93.765C96.0194 94.0103 92.7604 94.0735 89.5759 93.7483C85.5241 93.3357 82.9147 90.6133 82.5109 86.5529C81.999 81.4129 81.7366 76.2468 81.4239 71.0882C81.3737 70.2427 81.1969 69.9398 80.2812 69.9231C76.3727 69.8506 73.4971 66.3217 74.4445 62.7928C76.086 56.6678 77.5843 50.4983 79.4455 44.4403C80.5845 40.7311 82.2764 37.1892 83.7486 33.5841C84.0631 32.8129 84.5861 32.2331 85.5372 32.1774C87.4337 32.0659 88.5467 33.2812 88.1931 35.1469C88.1242 35.5093 88.0219 35.8754 87.8655 36.2099C84.5842 43.2324 82.589 50.6767 80.6143 58.1285C80.162 59.8325 79.7935 61.5589 79.4325 63.2852C79.1775 64.4987 79.291 64.692 80.5455 64.8982C82.1945 65.1677 83.8565 65.4018 85.5223 65.5301C92.9317 66.1061 100.33 66.0764 107.695 64.9391C109.165 64.7124 109.295 64.6139 108.932 63.2146C107.639 58.2455 106.384 53.2634 104.879 48.3575C103.647 44.338 102.076 40.4226 100.663 36.4589C100.466 35.907 100.263 35.3476 100.159 34.7734C99.9298 33.5339 100.334 32.7794 101.365 32.3688C102.556 31.893 103.844 32.1736 104.43 33.1548C104.985 34.0821 105.48 35.0559 105.886 36.0556C108.958 43.6486 111.184 51.5073 113.168 59.4404C113.498 60.7598 113.779 62.0959 113.985 63.4395C114.395 66.108 112.986 68.4569 110.419 69.3451C109.312 69.7261 108.145 69.9249 106.943 70.2241ZM96.6913 88.9148C99.0699 89.3274 100.68 88.3834 100.89 86.1181C101.361 81.0394 101.631 75.9421 101.979 70.8541C101.983 70.8039 101.921 70.75 101.819 70.5753C100.168 70.6701 98.4538 70.7686 96.6913 70.8708C96.6913 76.9381 96.6913 82.8995 96.6913 88.9148ZM86.5087 70.5289C86.5087 71.9226 86.4436 73.2197 86.5217 74.5093C86.7432 78.2464 86.961 81.9871 87.3034 85.7149C87.4933 87.7757 88.932 88.965 90.7187 88.9483C91.5339 88.9409 91.7535 88.664 91.7535 87.8612C91.7554 82.5037 91.8112 77.1463 91.8447 71.7888C91.8466 71.4952 91.8019 71.2034 91.7815 70.9284C90.0059 70.7946 88.342 70.6682 86.5087 70.5289Z" fill="white"/>
<path d="M65.7291 61.5338C65.7291 69.8646 65.5951 78.1972 65.7887 86.5223C65.878 90.3857 62.1184 93.9481 58.7739 93.8644C54.8077 93.7641 50.834 93.8719 46.8734 93.7009C44.6884 93.6061 43.1194 92.1975 41.9021 90.4619C41.0739 89.28 40.6682 88.0052 40.6719 86.4851C40.7222 69.4223 40.7035 52.3594 40.7054 35.2947C40.7054 34.2429 41.8556 33.1688 43.0989 33.0424C44.197 32.9309 45.1015 33.6613 45.297 34.845C45.3714 35.3021 45.4217 35.7667 45.431 36.2294C45.498 39.8512 45.5948 43.4749 45.6003 47.0967C45.6245 60.1643 45.6152 73.2337 45.6189 86.303C45.6189 87.4756 46.7059 88.8117 47.8729 88.9251C48.6992 89.005 49.5442 88.9307 50.3762 88.8656C50.5362 88.8526 50.7521 88.5962 50.8061 88.4103C50.8824 88.1539 50.8321 87.8584 50.834 87.5797C50.8526 78.2585 50.8694 68.9373 50.888 59.6161C50.8898 58.4416 51.6306 57.4995 52.7659 57.2189C53.7784 56.968 55.245 57.6407 55.6731 58.6107C55.8015 58.9025 55.7717 59.276 55.7717 59.6105C55.7755 69.0246 55.7866 78.4387 55.7569 87.8529C55.7531 88.7597 55.9393 89.0756 56.9238 89.0552C59.5704 88.9994 60.9552 88.8192 60.957 85.2847C60.9589 81.3841 61.0836 77.4817 61.091 73.5812C61.1152 60.915 61.1096 48.2489 61.1152 35.5827C61.1152 34.399 61.9062 33.3751 63.023 33.1093C63.9815 32.8808 65.301 33.4829 65.7794 34.4343C65.9208 34.7149 65.9041 35.0921 65.9041 35.4248C65.9097 44.1272 65.9097 52.8296 65.9097 61.5301C65.8501 61.5338 65.7905 61.5338 65.7291 61.5338Z" fill="white"/>
<path d="M8.44815 73.7268C13.7525 73.7268 19.0085 73.7268 24.4227 73.7268C24.2813 73.253 24.2162 72.8999 24.0747 72.5821C22.824 69.752 21.5565 66.9273 20.2983 64.099C19.9596 63.3353 19.6134 62.5734 19.3175 61.7929C18.8913 60.6667 19.2803 59.6205 20.3021 59.0203C21.2922 58.4387 22.5243 58.6022 23.2446 59.509C23.7602 60.1594 24.2106 60.8786 24.6014 61.6126C26.8925 65.9201 28.6998 70.4247 30.038 75.115C30.6484 77.2539 29.8667 78.4042 27.6631 78.6309C26.2839 78.774 26.3938 78.564 26.3286 80.1212C26.1909 83.3677 26.1332 86.6216 25.8856 89.8606C25.7181 92.0589 24.3651 93.6143 22.1782 93.7463C18.5079 93.9674 14.8116 93.9711 11.1376 93.802C9.07351 93.7072 7.53989 91.9214 7.31654 89.7249C7.06528 87.2645 6.99083 84.7837 6.88102 82.3103C6.82891 81.1396 6.87172 79.9633 6.87172 78.616C6.21099 78.616 5.73267 78.6179 5.25434 78.616C3.48621 78.6104 1.98609 77.5698 2.69893 75.2655C4.26977 70.1868 6.32825 65.3218 9.04373 60.7467C9.65234 59.7209 10.395 58.7936 11.8318 58.9645C13.4659 59.1597 14.3556 60.4846 13.7712 62.0214C13.4659 62.8279 13.0025 63.5731 12.6395 64.3573C11.2883 67.2767 9.94827 70.1998 8.61007 73.1248C8.52259 73.3124 8.50026 73.528 8.44815 73.7268ZM19.1221 78.7275C19.1221 82.2583 19.1221 85.7389 19.1221 89.3031C19.5576 89.2808 19.9242 89.238 20.2872 89.2492C20.8418 89.2659 21.0484 89.0132 21.067 88.4724C21.1564 85.8151 21.3276 83.1577 21.3499 80.4985C21.3667 78.538 21.2829 78.5361 19.2747 78.6681C19.2449 78.6699 19.217 78.6904 19.1221 78.7275ZM13.9275 89.2139C13.9275 85.7147 13.9275 82.21 13.9275 78.6996C13.2407 78.6996 12.6135 78.6996 12.0719 78.6996C12.0719 81.8346 12.0365 84.8878 12.0886 87.9409C12.1091 89.1395 12.5874 89.4127 13.9275 89.2139Z" fill="white"/>
</g>
<defs>
<clipPath id="clip0">
<rect width="148.921" height="94" fill="white"/>
</clipPath>
</defs>
</svg>
