<svg width="32" height="30" viewBox="0 0 32 30" fill="none" xmlns="http://www.w3.org/2000/svg">
<path d="M31.0006 8H28.0006V19C28.0006 20.105 27.1056 21 26.0006 21H15.1286L10.5566 25H19.6806L26.4196 29.813C26.7206 30.029 27.1186 30.062 27.4586 29.889C27.7916 29.718 28.0006 29.375 28.0006 29V25H31.0006C31.5526 25 32.0006 24.552 32.0006 24V9C32.0006 8.448 31.5526 8 31.0006 8Z" fill="#E5B764"/>
<path d="M25 0H1C0.447 0 0 0.447 0 1V18C0 18.553 0.447 19 1 19H5V25C5 25.393 5.229 25.748 5.587 25.91C5.938 26.071 6.36 26.013 6.658 25.753L14.376 19H25C25.553 19 26 18.553 26 18V1C26 0.447 25.553 0 25 0Z" fill="#E5B764"/>
</svg>
