<svg width="64" height="64" viewBox="0 0 64 64" fill="none" xmlns="http://www.w3.org/2000/svg">
<circle cx="32" cy="32" r="32" fill="#7A3E0C"/>
<mask id="mask0" mask-type="alpha" maskUnits="userSpaceOnUse" x="0" y="0" width="64" height="64">
<circle cx="32" cy="32" r="32" fill="#E5B764"/>
</mask>
<g mask="url(#mask0)">
<path d="M31.9993 43C38.3171 43 43.4577 37.8594 43.4577 31.5417V29.4583C43.4577 23.1406 38.3171 18 31.9993 18C25.6816 18 20.541 23.1406 20.541 29.4583V31.5417C20.541 37.8594 25.6816 43 31.9993 43Z" fill="#FFF8F2"/>
<path d="M47.9146 49.4421C44.4229 48.4035 38.8271 47.166 32 47.166C25.1729 47.166 19.5771 48.4035 16.0854 49.4421C12.5208 50.5025 10.125 53.7139 10.125 57.4327V64.8743C10.125 65.4494 10.5917 65.916 11.1667 65.916H52.8333C53.4083 65.916 53.875 65.4494 53.875 64.8743V57.4327C53.875 53.7139 51.4792 50.5025 47.9146 49.4421Z" fill="#FFF8F2"/>
</g>
</svg>
