<svg width="17" height="13" viewBox="0 0 17 13" fill="none" xmlns="http://www.w3.org/2000/svg">
<path d="M15.75 5.14941L1.05 5.14941C0.420001 5.14941 -1.85728e-09 5.56139 -4.64319e-09 6.17936C-7.42911e-09 6.79733 0.420001 7.2093 1.05 7.2093L15.75 7.2093C16.38 7.2093 16.8 6.79733 16.8 6.17936C16.8 5.56139 16.38 5.14941 15.75 5.14941Z" fill="#7A3E0C"/>
<path d="M15.75 -1.14348e-07L1.05 -7.6232e-09C0.420001 -3.04928e-09 -1.85911e-09 0.411977 -4.64779e-09 1.02994C-7.43646e-09 1.64791 0.420001 2.05988 1.05 2.05988L15.75 2.05988C16.38 2.05988 16.8 1.64791 16.8 1.02994C16.8 0.411976 16.38 -1.18922e-07 15.75 -1.14348e-07Z" fill="#7A3E0C"/>
<path d="M15.75 10.2998L1.05 10.2998C0.420001 10.2998 -1.85727e-09 10.7118 -4.64318e-09 11.3298C-7.42908e-09 11.9477 0.420001 12.3597 1.05 12.3597L15.75 12.3597C16.38 12.3597 16.8 11.9477 16.8 11.3297C16.8 10.7118 16.38 10.2998 15.75 10.2998Z" fill="#7A3E0C"/>
</svg>
