<svg width="16" height="16" viewBox="0 0 16 16" fill="none" xmlns="http://www.w3.org/2000/svg">
<path d="M4.58516 0C7.08155 0 9.57907 0 12.0755 0C12.232 0.0249526 12.3908 0.0408315 12.545 0.0759919C14.2826 0.467294 15.3976 1.5187 15.8739 3.23703C15.9363 3.46047 15.959 3.69525 15.9998 3.92549C15.9998 6.42188 15.9998 8.91941 15.9998 11.4158C15.9907 11.4691 15.9839 11.5236 15.9703 11.5757C15.8671 11.975 15.8172 12.3992 15.6471 12.7678C14.8838 14.4226 13.5704 15.3073 11.7454 15.3322C9.46906 15.364 7.19157 15.3413 4.91408 15.339C4.03166 15.3379 3.2139 15.1008 2.49481 14.5882C1.27667 13.7182 0.665334 12.5217 0.661932 11.0245C0.656261 8.78784 0.657395 6.55005 0.663066 4.31339C0.6642 4.0253 0.678945 3.73041 0.741326 3.45026C1.12469 1.71265 2.18177 0.603399 3.89556 0.125897C4.12013 0.0635156 4.35491 0.0408315 4.58516 0ZM2.01958 7.67065C2.01958 8.77877 2.01844 9.88689 2.01958 10.995C2.01958 11.3455 2.05474 11.6925 2.17383 12.026C2.6071 13.2396 3.65284 13.9768 4.97079 13.9791C7.20744 13.9836 9.4441 13.9871 11.6808 13.9734C12.0142 13.9712 12.3636 13.9247 12.6789 13.8192C13.9061 13.4063 14.6365 12.3436 14.6388 11.0177C14.6422 8.78557 14.6456 6.55459 14.6331 4.32247C14.6308 3.98787 14.5855 3.63967 14.48 3.32436C14.0705 2.10282 13.0112 1.36445 11.6955 1.36105C9.45431 1.35651 7.21312 1.35878 4.97079 1.36105C3.96474 1.36218 3.15152 1.75802 2.55492 2.57238C2.1727 3.09412 2.01844 3.68844 2.01958 4.33041C2.02071 5.4442 2.01958 6.55685 2.01958 7.67065Z" fill="#7A3E0C"/>
<path d="M8.33307 11.6232C6.16333 11.6266 4.37582 9.84025 4.37695 7.66937C4.37809 5.49623 6.16673 3.71099 8.33534 3.71779C10.5051 3.7246 12.2756 5.49396 12.2835 7.66484C12.2915 9.83117 10.5062 11.6198 8.33307 11.6232ZM10.9202 7.67278C10.9236 6.24708 9.76331 5.08451 8.33307 5.08111C6.90737 5.07657 5.74481 6.23687 5.74141 7.6671C5.738 9.0928 6.89716 10.2554 8.3274 10.2588C9.7531 10.2633 10.9157 9.10301 10.9202 7.67278Z" fill="#7A3E0C"/>
<path d="M12.4459 2.56837C12.9949 2.5661 13.4519 3.02092 13.4474 3.56647C13.4429 4.10862 12.9949 4.5555 12.4527 4.55663C11.9038 4.55777 11.4467 4.10182 11.4512 3.5574C11.4557 3.01411 11.9015 2.57064 12.4459 2.56837Z" fill="#7A3E0C"/>
</svg>
