<svg width="217" height="150" viewBox="0 0 217 150" fill="none" xmlns="http://www.w3.org/2000/svg">
<mask id="mask0" mask-type="alpha" maskUnits="userSpaceOnUse" x="0" y="0" width="217" height="150">
<rect x="0.191406" width="216.487" height="150" fill="#C4C4C4"/>
</mask>
<g mask="url(#mask0)">
<g opacity="0.3">
<path d="M216.635 86.5311C208.863 99.5802 207.725 116.146 197.747 127.442C195.748 129.205 194.066 131.373 192.046 133.137C180.88 142.898 166.606 147.068 152.046 144.018C141.238 141.757 131.353 136.601 122.484 130.056C114.906 124.465 108.149 120.378 99.8225 116.032C94.1418 113.075 89.8147 108.076 85.7131 103.128C82.2473 98.9475 78.7096 94.4352 77.9201 89.0309C76.7614 81.0645 74.9259 75.1934 70.5475 68.2124C68.3122 64.6649 65.5641 61.4493 63.5646 57.7565C57.484 46.533 60.8986 34.6663 57.8429 23.0175C55.8024 15.217 53.7413 7.36472 50.3985 0.031044C45.9381 -9.71953 39.9498 -16.5553 30.4239 -21.1609C21.1543 -25.6316 10.9824 -30.5173 6.54249 -40.5375C6.12208 -41.4711 5.77345 -42.4358 5.41456 -43.4005C4.64552 -45.4751 3.6919 -47.3837 2.92286 -49.4583C2.68702 -50.091 2.45117 -50.7238 2.1333 -51.3254C1.85645 -51.8337 1.47705 -52.3005 1.17969 -52.788C1.75391 -53.3896 2.89209 -52.5598 3.45606 -52.1656C4.04053 -51.7507 4.52247 -51.2113 4.97364 -50.6615C5.56837 -49.9458 6.34767 -49.2508 6.76808 -48.4106C7.71144 -46.5331 8.75734 -44.7386 9.69045 -42.8611C12.3565 -37.5294 18.8062 -32.8616 24.087 -30.4654C34.2794 -25.8287 47.0968 -25.7042 58.0787 -25.1856C71.3371 -24.5632 85.9899 -27.6958 98.8381 -31.3056C111.44 -34.8428 124.104 -40.8072 137.013 -38.66C139.187 -38.297 141.33 -37.7057 143.525 -37.5501C148.221 -37.1975 152.825 -38.8156 157.511 -39.2409C162.935 -39.7285 168.38 -38.6289 173.579 -37.0004C183.002 -34.0441 191.872 -29.1584 200.783 -25.0092C207.458 -21.8974 213.918 -18.2772 219.937 -14.0139C233.78 -4.22186 245.746 9.5949 248.176 27.0526C248.545 29.6873 248.689 32.3531 248.627 35.019C248.381 46.118 246.669 54.1675 239.276 62.6318C233.257 69.5194 225.32 74.9756 219.752 81.9877C218.604 83.4503 217.568 84.9647 216.635 86.5311Z" fill="#481E01"/>
<path d="M234.569 103.346C234.364 103.346 234.159 103.304 233.954 103.231C232.528 102.702 231.298 100.98 230.242 99.9536C229.78 99.5075 229.268 99.0304 228.734 98.5221C228.468 98.2732 228.191 98.0034 227.904 97.7337C227.617 97.4641 227.319 97.1944 227.012 96.9143C224.561 94.6634 221.526 91.9871 217.947 89.0205C216.163 87.5371 214.225 85.9812 212.174 84.3527C210.113 82.7345 207.939 81.0437 205.653 79.301C203.366 77.548 200.967 75.7431 198.475 73.8656C198.167 73.6374 197.86 73.4092 197.552 73.1706C197.234 72.9424 196.916 72.7038 196.599 72.4653C196.445 72.3512 196.281 72.2267 196.117 72.1126C195.963 71.9985 195.799 71.8844 195.645 71.7806C195.327 71.5524 195.019 71.3242 194.702 71.1064C193.41 70.204 192.087 69.2911 190.723 68.3991C185.278 64.81 179.28 61.3558 172.963 57.9328C166.647 54.5097 160.023 51.1177 153.296 47.5909C149.933 45.8275 146.549 44.033 143.165 42.1659C142.324 41.7095 141.484 41.2531 140.653 40.7863C139.812 40.3402 138.971 39.8838 138.131 39.4378C136.428 38.5354 134.726 37.6433 133.034 36.7408C132.183 36.2948 131.332 35.8384 130.481 35.382L129.199 34.6974L127.928 34.0024C127.077 33.546 126.236 33.0584 125.395 32.5813L124.759 32.2286L124.134 31.8655C123.714 31.627 123.303 31.378 122.883 31.1394C119.55 29.1893 116.29 27.1666 113.07 25.1335C106.641 21.0673 100.417 16.9389 94.3976 12.9349C88.3785 8.94134 82.5646 5.07222 77.0172 1.46244C71.4698 -2.14735 66.189 -5.4978 61.2569 -8.49559C56.3248 -11.4934 51.7515 -14.1385 47.6294 -16.379C45.5684 -17.4993 43.6304 -18.5159 41.8257 -19.439C40.021 -20.3519 38.3394 -21.161 36.8218 -21.8767C33.7764 -23.3082 31.3359 -24.3247 29.6646 -24.9886C29.2441 -25.1545 28.875 -25.2998 28.5571 -25.4242C28.2393 -25.5487 27.9624 -25.6524 27.7471 -25.7354C27.3164 -25.9014 27.0908 -25.9844 27.0908 -25.9844C27.0908 -25.9844 27.3164 -25.9014 27.7573 -25.7562C27.9727 -25.6836 28.2495 -25.5798 28.5776 -25.4761C28.8955 -25.362 29.2749 -25.2272 29.6953 -25.0716C31.3872 -24.4492 33.8584 -23.4949 36.9448 -22.1464C38.4932 -21.4721 40.1953 -20.7045 42.0308 -19.8436C43.8662 -18.9723 45.8453 -18.0076 47.9371 -16.9392C52.1207 -14.8127 56.7862 -12.2817 61.8106 -9.41878C66.835 -6.55585 72.2184 -3.34023 77.8683 0.124332C83.5182 3.5889 89.4347 7.29204 95.5666 11.1197C101.688 14.9473 108.015 18.8994 114.516 22.7685C117.766 24.6978 121.058 26.6065 124.401 28.4425C124.821 28.6707 125.241 28.8989 125.662 29.1271L126.287 29.4694L126.923 29.8013C127.764 30.2474 128.605 30.6934 129.456 31.1291L130.727 31.7826L132.009 32.4257C132.86 32.8613 133.721 33.2866 134.583 33.7119C136.305 34.5625 138.038 35.4131 139.761 36.2741C140.622 36.7097 141.494 37.1454 142.355 37.5707C143.217 38.0063 144.068 38.4524 144.929 38.888C148.313 40.6411 151.717 42.3422 155.111 44.0019C161.899 47.3316 168.636 50.5576 175.096 53.8458C181.556 57.1444 187.749 60.4949 193.471 64.0424C194.907 64.9241 196.291 65.8266 197.665 66.729C198.003 66.9572 198.352 67.1958 198.69 67.424C198.865 67.5381 199.029 67.6522 199.203 67.7663C199.367 67.8804 199.531 67.9945 199.695 68.1086C200.023 68.3368 200.341 68.565 200.669 68.7829C200.997 69.0111 201.326 69.2393 201.643 69.4779C204.186 71.2827 206.647 73.0254 209.006 74.7162C211.364 76.407 213.61 78.0563 215.753 79.633C217.886 81.22 219.895 82.7449 221.762 84.2074C225.515 87.1326 228.704 89.7881 231.298 92.0286C231.626 92.3087 231.934 92.5784 232.241 92.8481C232.549 93.1178 232.836 93.3771 233.123 93.6364C233.697 94.1447 234.23 94.6115 234.723 95.0679C235.215 95.5243 235.676 95.9392 236.097 96.323C237.255 97.3914 238.865 98.6984 238.168 100.514C237.983 101.012 237.635 101.427 237.276 101.821C236.845 102.287 236.384 102.744 235.83 103.034C235.41 103.242 234.989 103.356 234.569 103.346Z" fill="#E5B764" stroke="#481E01" stroke-width="5" stroke-miterlimit="10"/>
<path d="M215.169 83.119C215.169 83.119 215.149 83.0257 215.097 82.839C215.077 82.7456 215.046 82.6315 215.005 82.4967C214.995 82.4655 214.984 82.424 214.974 82.3929C214.974 82.3722 214.964 82.3514 214.964 82.3411C214.964 82.3203 214.954 82.2996 214.954 82.2684C214.933 82.1751 214.923 82.0714 214.902 81.9676C214.882 81.8639 214.861 81.7498 214.841 81.6253C214.831 81.5631 214.82 81.5008 214.81 81.4386C214.8 81.3764 214.8 81.3141 214.79 81.2519C214.769 81.0029 214.738 80.7229 214.728 80.4324C214.728 80.2872 214.728 80.1316 214.728 79.976C214.728 79.8204 214.718 79.6545 214.738 79.4885C214.759 79.1566 214.769 78.8039 214.831 78.4305C214.851 78.2437 214.872 78.057 214.913 77.8703C214.943 77.6836 214.984 77.4865 215.026 77.2894C215.056 77.0923 215.108 76.8953 215.159 76.6878C215.21 76.4803 215.251 76.2729 215.313 76.0654C215.374 75.858 215.436 75.6401 215.497 75.4223C215.569 75.2045 215.641 74.997 215.713 74.7688C215.784 74.551 215.866 74.3331 215.948 74.1049C215.989 73.9908 216.03 73.8767 216.071 73.7626C216.112 73.6485 216.164 73.5344 216.205 73.4203C216.564 72.5075 216.974 71.5636 217.415 70.5781C217.856 69.6134 218.307 68.5762 218.789 67.5077C219.014 66.9683 219.25 66.4289 219.496 65.8688C219.619 65.5887 219.732 65.3087 219.855 65.0286C219.968 64.7382 220.091 64.4581 220.214 64.1676C220.45 63.5868 220.696 62.9955 220.942 62.3939C221.178 61.7922 221.414 61.1699 221.66 60.5475C221.906 59.9251 222.142 59.2924 222.378 58.6492C222.613 58.0061 222.86 57.3526 223.085 56.6888C223.311 56.0249 223.547 55.3506 223.782 54.6764C224.008 53.9918 224.234 53.3072 224.459 52.6122C225.341 49.8322 226.151 46.9278 226.859 43.9404C227.566 40.9634 228.13 37.893 228.561 34.8122C228.612 34.4284 228.673 34.0446 228.725 33.6504L228.848 32.4887C228.889 32.1049 228.93 31.7107 228.971 31.3269L229.002 31.0365L229.022 30.746L229.063 30.1651C229.094 29.7813 229.125 29.3872 229.155 29.0034L229.196 28.4225C229.207 28.2358 229.217 28.0387 229.227 27.8416C229.278 27.0636 229.299 26.296 229.319 25.5388C229.36 24.0036 229.35 22.4788 229.299 20.9851C229.248 19.481 229.155 17.9977 229.022 16.5455C228.889 15.0932 228.714 13.6618 228.499 12.2718C228.284 10.8818 228.038 9.52297 227.751 8.21598C227.187 5.59162 226.5 3.1436 225.741 0.934167C225.372 -0.175738 224.962 -1.2234 224.572 -2.21921C224.367 -2.70674 224.172 -3.19426 223.967 -3.66105C223.762 -4.11746 223.567 -4.57387 223.362 -4.99916C222.552 -6.72107 221.773 -8.18365 221.086 -9.36617C220.922 -9.66698 220.747 -9.93668 220.593 -10.196C220.44 -10.4553 220.296 -10.7043 220.142 -10.9221C219.855 -11.3681 219.619 -11.7519 219.414 -12.0528C219.004 -12.6648 218.789 -12.9863 218.789 -12.9863C218.789 -12.9863 219.014 -12.6648 219.435 -12.0735C219.65 -11.7727 219.896 -11.3993 220.193 -10.9532C220.347 -10.7354 220.491 -10.4864 220.655 -10.2375C220.819 -9.97817 220.993 -9.70847 221.168 -9.41803C221.885 -8.25626 222.695 -6.80405 223.547 -5.09252C223.762 -4.66722 223.967 -4.22119 224.182 -3.76478C224.398 -3.30837 224.603 -2.82084 224.818 -2.33331C225.238 -1.34788 225.669 -0.300215 226.059 0.80969C226.879 3.01913 227.617 5.46714 228.243 8.0915C228.561 9.40886 228.838 10.7677 229.084 12.1681C229.33 13.5684 229.535 14.9999 229.709 16.4728C229.883 17.9354 230.006 19.4395 230.089 20.954C230.171 22.4684 230.212 24.014 230.212 25.5595C230.201 26.3375 230.191 27.1259 230.171 27.8935C230.16 28.0905 230.16 28.2773 230.15 28.4847L230.119 29.076C230.099 29.4701 230.078 29.8539 230.058 30.2481L230.027 30.8394L230.007 31.1298L229.986 31.4203C229.955 31.8144 229.914 32.2086 229.883 32.5924L229.781 33.7749C229.74 34.1691 229.689 34.5529 229.648 34.9471C229.289 38.0797 228.786 41.2019 228.13 44.2308C227.484 47.2701 226.725 50.2264 225.895 53.0582C225.679 53.7636 225.474 54.4689 225.259 55.1639C225.033 55.8589 224.818 56.5332 224.603 57.2178C224.387 57.892 224.152 58.5559 223.926 59.2094C223.7 59.8629 223.485 60.5164 223.239 61.1491C223.003 61.7819 222.777 62.4146 222.552 63.0266C222.316 63.6386 222.08 64.2403 221.855 64.8419C221.742 65.1427 221.629 65.4331 221.516 65.7236C221.403 66.014 221.28 66.3045 221.168 66.5845C220.942 67.1551 220.706 67.7152 220.491 68.265C220.029 69.3438 219.609 70.381 219.178 71.3665C218.758 72.3415 218.389 73.2647 218.071 74.136C217.425 75.8787 217.056 77.4035 216.933 78.6587C216.892 78.9698 216.892 79.2603 216.871 79.5404C216.861 79.6752 216.871 79.8101 216.871 79.9345C216.871 80.059 216.881 80.1835 216.881 80.3079C216.892 80.5465 216.922 80.7644 216.943 80.9614C216.953 81.0133 216.953 81.0652 216.963 81.1067C216.974 81.1482 216.984 81.1897 216.984 81.2311C216.994 81.3141 217.015 81.3867 217.025 81.4697C217.035 81.5423 217.046 81.6149 217.066 81.6772C217.066 81.6979 217.076 81.7083 217.076 81.729C217.087 81.7498 217.087 81.7705 217.097 81.7809C217.107 81.8224 217.117 81.8535 217.128 81.8846C217.169 82.0195 217.199 82.1336 217.22 82.2269C217.271 82.4137 217.302 82.507 217.302 82.507L215.169 83.119Z" fill="#E5B764"/>
<path d="M206.606 76.5305C206.606 76.5305 206.524 76.4994 206.36 76.4371C206.34 76.4268 206.319 76.4164 206.289 76.4164C206.258 76.406 206.227 76.3853 206.196 76.3749C206.125 76.3438 206.053 76.3127 205.971 76.2712C205.889 76.24 205.817 76.1985 205.735 76.1467C205.653 76.1052 205.561 76.0533 205.479 76.0015C205.12 75.7836 204.699 75.4724 204.289 75.0368C203.879 74.6011 203.479 74.0513 203.151 73.3979C202.812 72.7444 202.546 72.0079 202.341 71.1884C202.136 70.3793 202.002 69.4976 201.941 68.5641C201.91 68.0973 201.89 67.6097 201.89 67.1222C201.89 66.8733 201.89 66.6243 201.9 66.3754C201.91 66.1264 201.92 65.8775 201.941 65.6181C201.961 65.1202 201.992 64.612 202.013 64.0933C202.054 63.5643 202.105 63.0145 202.146 62.4648C202.167 62.1847 202.187 61.9046 202.218 61.6246C202.249 61.3445 202.279 61.0644 202.32 60.774C202.392 60.2035 202.443 59.6226 202.536 59.0313C202.628 58.4401 202.71 57.8384 202.802 57.2368C202.915 56.6352 203.028 56.0128 203.141 55.3904C203.192 55.0792 203.264 54.768 203.335 54.4569C203.407 54.1457 203.469 53.8241 203.541 53.5129C203.674 52.8802 203.838 52.237 204.002 51.5939C204.084 51.2724 204.166 50.9508 204.248 50.6189C204.34 50.2973 204.433 49.9757 204.525 49.6438C204.617 49.3222 204.709 48.9903 204.802 48.6584L204.874 48.4094L204.945 48.1708C204.997 48.0049 205.048 47.8493 205.099 47.6833C205.93 45.0486 206.914 42.4035 207.919 39.7273C208.924 37.051 209.939 34.3437 210.79 31.5845C211.641 28.8253 212.328 26.0246 212.646 23.2135C212.81 21.8132 212.882 20.4128 212.851 19.0229V18.7635V18.7324C212.851 18.722 212.851 18.7221 212.851 18.7117V18.6494L212.841 18.5146C212.831 18.3383 212.82 18.1619 212.81 17.9959C212.8 17.83 212.79 17.6433 212.779 17.4773C212.759 17.3113 212.749 17.135 212.728 16.969C212.677 16.2948 212.584 15.6205 212.502 14.9463C212.113 12.2701 211.528 9.69759 211.016 7.24958C210.493 4.80156 210.001 2.48839 209.549 0.361937C207.734 -8.175 206.524 -13.8594 206.524 -13.8594C206.524 -13.8594 207.868 -8.20612 209.898 0.289325C210.4 2.41578 210.954 4.7082 211.528 7.14585C212.103 9.57312 212.749 12.1352 213.21 14.8426C213.313 15.5272 213.425 16.2014 213.497 16.9068C213.518 17.0831 213.538 17.2595 213.559 17.4358C213.569 17.6121 213.589 17.7781 213.6 17.9545C213.61 18.1308 213.63 18.3071 213.641 18.4731L213.651 18.608V18.6702V18.7117V18.7428L213.661 19.0125C213.723 20.4336 213.682 21.8754 213.548 23.3276C213.292 26.2217 212.646 29.1054 211.856 31.9268C211.057 34.7483 210.093 37.5075 209.16 40.2044C208.216 42.9014 207.304 45.5569 206.555 48.1501C206.504 48.3161 206.463 48.482 206.412 48.6376L206.34 48.8866L206.278 49.1252C206.196 49.4467 206.114 49.7683 206.032 50.0898C205.95 50.4114 205.868 50.733 205.786 51.0442C205.714 51.3657 205.643 51.6769 205.571 51.9985C205.427 52.6312 205.284 53.2536 205.171 53.876C205.109 54.1872 205.048 54.4984 204.997 54.7992C204.935 55.1104 204.874 55.4112 204.833 55.712C204.74 56.324 204.638 56.9256 204.545 57.5169C204.474 58.1081 204.402 58.6994 204.33 59.2699C204.248 59.8404 204.217 60.4109 204.156 60.9711C204.135 61.2511 204.104 61.5208 204.084 61.8009C204.053 62.0706 204.053 62.3403 204.033 62.61C204.002 63.139 203.971 63.668 203.94 64.1763C203.93 64.6949 203.91 65.2032 203.899 65.7011C203.889 65.9397 203.889 66.1887 203.879 66.4169C203.879 66.6451 203.879 66.8733 203.889 67.1015C203.899 67.5475 203.93 67.9832 203.971 68.3981C204.053 69.2279 204.187 69.9851 204.371 70.6594C204.556 71.3336 204.792 71.9145 205.048 72.3813C205.304 72.8585 205.591 73.2215 205.858 73.4912C206.125 73.7609 206.391 73.9476 206.606 74.0721C206.658 74.1032 206.719 74.1343 206.76 74.1551C206.812 74.1758 206.863 74.2069 206.894 74.2173C206.935 74.2381 206.965 74.2484 206.996 74.2588C207.017 74.2692 207.027 74.2692 207.037 74.2795C207.058 74.2899 207.078 74.2899 207.099 74.3003C207.263 74.3522 207.345 74.3833 207.345 74.3833L206.606 76.5305Z" fill="#E5B764"/>
<path d="M187.361 64.0118C187.361 64.0118 187.33 63.9081 187.279 63.711C187.248 63.6073 187.217 63.4828 187.176 63.3376C187.135 63.1924 187.084 63.0264 187.033 62.8086C186.981 62.6011 186.92 62.3729 186.858 62.1136C186.797 61.8646 186.746 61.5846 186.684 61.2941C186.612 61.0037 186.561 60.6821 186.5 60.3398C186.438 59.9975 186.387 59.6344 186.325 59.2506C186.264 58.8668 186.223 58.4623 186.171 58.037C186.141 57.8295 186.13 57.6117 186.11 57.3835C186.089 57.1657 186.069 56.9375 186.048 56.6989C185.977 55.7757 185.936 54.7695 185.925 53.7011C185.915 51.5643 186.048 49.1578 186.315 46.5749C186.582 43.9817 186.981 41.2121 187.402 38.2869C187.617 36.8243 187.822 35.3306 188.017 33.8058C188.12 33.0382 188.202 32.2706 188.294 31.4926L188.325 31.2022L188.356 30.9118C188.376 30.7147 188.397 30.5176 188.407 30.3205C188.448 29.9263 188.479 29.5218 188.52 29.1276C188.55 28.7334 188.581 28.3289 188.602 27.9347C188.632 27.5302 188.663 27.136 188.684 26.7315C188.725 25.9224 188.776 25.1029 188.796 24.2834C188.807 23.8685 188.827 23.464 188.837 23.0491C188.848 22.6341 188.848 22.2192 188.858 21.8043C188.878 20.9745 188.868 20.1343 188.868 19.294C188.868 18.8688 188.858 18.4538 188.848 18.0285C188.837 17.6033 188.827 17.1883 188.827 16.763C188.796 15.9125 188.776 15.0619 188.735 14.2113C188.694 13.3607 188.653 12.5101 188.602 11.6492L188.52 10.3733L188.427 9.09744C188.181 5.68475 187.843 2.27205 187.474 -1.08879C187.381 -1.929 187.289 -2.75883 187.187 -3.59904C187.135 -4.01396 187.084 -4.42888 187.033 -4.83342C186.971 -5.24834 186.92 -5.65289 186.858 -6.05743C186.623 -7.68598 186.325 -9.28342 185.946 -10.8394C185.843 -11.2232 185.741 -11.607 185.648 -11.9908C185.536 -12.3642 185.413 -12.7376 185.3 -13.111L185.218 -13.3807L185.115 -13.6608C185.054 -13.8475 184.982 -14.0342 184.92 -14.2106C184.787 -14.5736 184.644 -14.9263 184.5 -15.279C183.916 -16.6897 183.239 -18.0382 182.501 -19.2933C181.034 -21.8243 179.332 -24.0234 177.661 -25.9527C175.979 -27.8821 174.308 -29.5314 172.8 -30.9629C171.283 -32.384 169.929 -33.5872 168.801 -34.5623C167.673 -35.5373 166.771 -36.2946 166.166 -36.8132C165.551 -37.3319 165.223 -37.6016 165.223 -37.6016C165.223 -37.6016 165.551 -37.3319 166.176 -36.834C166.802 -36.3361 167.714 -35.5892 168.863 -34.6453C170.011 -33.691 171.396 -32.5188 172.944 -31.1288C174.482 -29.7285 176.194 -28.1103 177.917 -26.2017C179.64 -24.3034 181.403 -22.1148 182.941 -19.5734C183.71 -18.3079 184.428 -16.9594 185.054 -15.5279C185.208 -15.1649 185.361 -14.8018 185.505 -14.4388C185.577 -14.2521 185.638 -14.0757 185.71 -13.889L185.813 -13.6089L185.905 -13.3185C186.028 -12.9347 186.161 -12.5613 186.284 -12.1775C186.397 -11.7937 186.5 -11.3995 186.612 -11.0053C187.033 -9.43901 187.361 -7.82083 187.638 -6.17154C187.699 -5.75662 187.771 -5.35207 187.833 -4.93716C187.894 -4.52224 187.956 -4.10732 188.017 -3.6924C188.13 -2.86256 188.243 -2.02235 188.356 -1.18215C188.796 2.17869 189.207 5.59138 189.514 9.02483L189.627 10.3111L189.73 11.5973C189.801 12.4583 189.853 13.3089 189.914 14.1698C189.976 15.0308 190.006 15.8813 190.058 16.7319C190.078 17.1572 190.088 17.5825 190.109 18.0078C190.129 18.4331 190.14 18.8584 190.15 19.2837C190.17 20.1343 190.191 20.9745 190.191 21.8251C190.191 22.2503 190.191 22.6653 190.201 23.0905C190.201 23.5055 190.191 23.9308 190.191 24.3457C190.191 25.1755 190.15 26.0053 190.129 26.8352C190.119 27.2501 190.088 27.6546 190.078 28.0696C190.058 28.4845 190.037 28.889 190.017 29.2936C189.986 29.6981 189.955 30.0923 189.935 30.4968C189.924 30.6939 189.904 30.891 189.894 31.0881L189.873 31.3889L189.842 31.6897C189.771 32.4884 189.699 33.2664 189.617 34.0444C189.453 35.59 189.268 37.1044 189.084 38.567C188.725 41.5025 188.376 44.2514 188.171 46.7927C187.956 49.3341 187.884 51.6576 187.935 53.7011C187.966 54.728 188.027 55.6823 188.109 56.5537C188.13 56.7715 188.161 56.9893 188.181 57.1968C188.202 57.4043 188.222 57.6117 188.253 57.8088C188.314 58.203 188.356 58.5868 188.417 58.9498C188.479 59.3129 188.53 59.6448 188.602 59.9664C188.663 60.2879 188.725 60.5784 188.786 60.8584C188.848 61.1281 188.909 61.3875 188.971 61.6157C189.032 61.8439 189.084 62.041 189.135 62.2277C189.176 62.404 189.237 62.5803 189.278 62.7256C189.319 62.8708 189.36 62.9953 189.391 63.099C189.453 63.2961 189.483 63.3998 189.483 63.3998L187.361 64.0118Z" fill="#E5B764"/>
<path d="M157.377 48.7422C157.377 48.7422 157.336 48.6593 157.244 48.514C157.203 48.4414 157.152 48.3481 157.09 48.234C157.06 48.1821 157.029 48.1199 156.988 48.0576C156.947 47.9954 156.916 47.9124 156.875 47.8294C156.793 47.6635 156.701 47.4871 156.598 47.2797C156.496 47.0826 156.403 46.8647 156.301 46.6262C156.188 46.3876 156.096 46.1386 155.983 45.8586C155.87 45.5889 155.768 45.288 155.655 44.9769C155.542 44.6657 155.439 44.3337 155.327 43.9914C155.265 43.8151 155.224 43.6388 155.173 43.4624C155.122 43.2757 155.07 43.0994 155.019 42.9023C154.824 42.1347 154.64 41.3048 154.476 40.4231C154.168 38.639 153.932 36.637 153.799 34.4587C153.768 33.9193 153.727 33.3695 153.696 32.8094C153.676 32.2389 153.645 31.658 153.625 31.0667C153.614 30.7763 153.594 30.4755 153.594 30.1747C153.584 29.8739 153.584 29.573 153.573 29.2722C153.563 28.6706 153.543 28.0482 153.543 27.4258C153.522 24.9363 153.563 22.312 153.625 19.615C153.748 14.2003 153.983 8.45372 153.84 2.71748C153.819 2.00174 153.799 1.28601 153.768 0.570274C153.727 -0.145458 153.696 -0.861195 153.655 -1.57693C153.604 -2.29266 153.543 -2.99802 153.491 -3.70338L153.471 -3.97308L153.46 -4.03531L153.45 -4.09755L153.44 -4.2324L153.389 -4.76142L153.337 -5.29044L153.276 -5.80909C152.948 -8.59941 152.435 -11.3379 151.779 -13.9415C151.112 -16.5451 150.302 -19.0138 149.349 -21.2752C148.405 -23.5468 147.329 -25.611 146.19 -27.4367C145.052 -29.2519 143.863 -30.8183 142.704 -32.1253C141.545 -33.4322 140.438 -34.4695 139.474 -35.2683C139.238 -35.4757 139.002 -35.6521 138.787 -35.8284C138.572 -35.9944 138.367 -36.1707 138.172 -36.3056C137.977 -36.4508 137.792 -36.5752 137.628 -36.6997C137.464 -36.8242 137.311 -36.9279 137.167 -37.0213C136.613 -37.3947 136.306 -37.5918 136.306 -37.5918C136.306 -37.5918 136.613 -37.4051 137.177 -37.042C137.321 -36.959 137.475 -36.8449 137.639 -36.7308C137.813 -36.6167 137.998 -36.4819 138.192 -36.347C138.397 -36.2122 138.603 -36.0462 138.828 -35.8803C139.054 -35.7143 139.29 -35.538 139.536 -35.3409C140.52 -34.5629 141.658 -33.5463 142.848 -32.2601C144.037 -30.9739 145.278 -29.4283 146.478 -27.6234C147.667 -25.8185 148.805 -23.7543 149.81 -21.4826C150.825 -19.2109 151.707 -16.7422 152.445 -14.1282C153.173 -11.5142 153.758 -8.76538 154.158 -5.93356L154.24 -5.40454L154.312 -4.87552L154.383 -4.3465L154.404 -4.21165L154.414 -4.13904L154.424 -4.07681L154.455 -3.80711C154.527 -3.09138 154.599 -2.37564 154.681 -1.65991C154.732 -0.944176 154.793 -0.218071 154.845 0.497662C154.896 1.22377 154.927 1.93951 154.968 2.66561C155.255 8.44334 155.163 14.2314 155.163 19.6254C155.163 22.3223 155.183 24.926 155.275 27.3843C155.286 27.9964 155.327 28.6084 155.347 29.1996C155.357 29.5004 155.378 29.7909 155.388 30.0917C155.398 30.3821 155.429 30.6726 155.439 30.963C155.481 31.5335 155.511 32.104 155.552 32.6538C155.604 33.2139 155.655 33.7637 155.696 34.3031C155.88 36.4296 156.147 38.3589 156.485 40.029C156.66 40.8588 156.844 41.6368 157.049 42.3318C157.101 42.5081 157.152 42.6741 157.203 42.84C157.254 43.006 157.306 43.172 157.357 43.3276C157.47 43.6387 157.562 43.9396 157.675 44.2196C157.788 44.4997 157.88 44.7694 157.993 45.008C158.095 45.2466 158.198 45.4851 158.3 45.6926C158.403 45.9001 158.495 46.0971 158.577 46.2631C158.669 46.4291 158.752 46.5847 158.823 46.7195C158.864 46.7921 158.885 46.844 158.926 46.9166C158.967 46.9788 158.998 47.0411 159.028 47.0929C159.09 47.207 159.151 47.3004 159.192 47.373C159.285 47.5182 159.326 47.6012 159.326 47.6012L157.377 48.7422Z" fill="#E5B764"/>
<path d="M131.825 35.8481C131.825 35.8481 131.784 35.7963 131.702 35.6822C131.661 35.6303 131.609 35.5577 131.548 35.4747C131.476 35.3814 131.404 35.2673 131.312 35.1428C131.22 35.0183 131.138 34.8731 131.035 34.7279C130.933 34.5723 130.84 34.4063 130.738 34.2196C130.635 34.0329 130.533 33.8358 130.42 33.618C130.317 33.4001 130.205 33.1719 130.092 32.923C129.661 31.9272 129.261 30.6824 128.995 29.2302C128.728 27.7884 128.584 26.1598 128.543 24.4068C128.523 23.5251 128.523 22.6226 128.533 21.6891C128.543 21.2223 128.543 20.7451 128.554 20.268C128.554 19.7908 128.564 19.3137 128.564 18.8158C128.574 17.8303 128.584 16.8138 128.595 15.7869C128.605 15.2682 128.595 14.7496 128.585 14.2205C128.574 13.6915 128.574 13.1625 128.564 12.6335C128.564 10.4967 128.472 8.27684 128.41 6.02591L128.4 5.60062L128.379 5.17533C128.369 4.89527 128.349 4.6152 128.338 4.32475C128.308 3.75424 128.287 3.1941 128.256 2.62359C128.226 2.05307 128.205 1.48256 128.174 0.912052C128.144 0.351913 128.103 -0.228973 128.072 -0.799484L128.021 -1.66044L127.949 -2.51102C127.897 -3.08153 127.867 -3.65204 127.805 -4.21218C127.692 -5.34283 127.59 -6.47349 127.436 -7.58339C127.405 -7.86346 127.364 -8.14353 127.334 -8.41323C127.313 -8.54807 127.303 -8.6933 127.282 -8.82814L127.221 -9.24306C127.139 -9.79283 127.046 -10.3426 126.964 -10.882C126.923 -11.1517 126.862 -11.4214 126.811 -11.6911C126.759 -11.9608 126.708 -12.2305 126.657 -12.4898C126.605 -12.7595 126.554 -13.0188 126.503 -13.2885C126.452 -13.5582 126.38 -13.8072 126.318 -14.0665C126.195 -14.5851 126.072 -15.1038 125.949 -15.6121C125.816 -16.1203 125.662 -16.6182 125.519 -17.1058C125.447 -17.3547 125.375 -17.5933 125.303 -17.8422L125.252 -18.0186L125.19 -18.1949C125.149 -18.3194 125.108 -18.4335 125.067 -18.558C124.985 -18.7965 124.914 -19.0351 124.821 -19.2633C124.739 -19.4915 124.647 -19.7197 124.565 -19.9479C123.878 -21.7736 123.078 -23.454 122.237 -24.9373C121.396 -26.4207 120.515 -27.7173 119.664 -28.8168C119.551 -28.9517 119.448 -29.0865 119.346 -29.2214C119.243 -29.3562 119.141 -29.4807 119.028 -29.6052C118.813 -29.8541 118.607 -30.0823 118.413 -30.3105C118.208 -30.5283 118.013 -30.7358 117.818 -30.9433C117.726 -31.047 117.633 -31.1404 117.541 -31.2337C117.449 -31.3271 117.356 -31.41 117.264 -31.5034C117.09 -31.6797 116.916 -31.8353 116.751 -31.9909C116.587 -32.1362 116.434 -32.271 116.29 -32.4059C116.146 -32.5303 116.013 -32.6548 115.89 -32.7585C115.767 -32.8623 115.644 -32.9556 115.542 -33.0386C115.121 -33.3705 114.896 -33.5469 114.896 -33.5469C114.896 -33.5469 115.121 -33.3809 115.552 -33.0593C115.654 -32.9764 115.777 -32.8934 115.911 -32.7897C116.034 -32.6859 116.177 -32.5718 116.321 -32.4473C116.475 -32.3229 116.628 -32.1984 116.803 -32.0532C116.967 -31.908 117.141 -31.742 117.326 -31.576C117.418 -31.493 117.51 -31.41 117.613 -31.3167C117.705 -31.2233 117.797 -31.13 117.9 -31.0366C118.095 -30.8395 118.3 -30.6425 118.515 -30.4246C118.72 -30.2068 118.936 -29.9682 119.151 -29.7296C119.264 -29.6155 119.366 -29.4807 119.479 -29.3562C119.592 -29.2317 119.694 -29.0969 119.807 -28.962C120.699 -27.8936 121.632 -26.6074 122.524 -25.1344C123.417 -23.6615 124.278 -21.9914 125.037 -20.1554C125.129 -19.9272 125.221 -19.6886 125.324 -19.4604C125.416 -19.2218 125.498 -18.9936 125.59 -18.7551C125.631 -18.641 125.683 -18.5165 125.724 -18.4024L125.795 -18.226L125.857 -18.0393C125.939 -17.7904 126.021 -17.5518 126.103 -17.3028C126.267 -16.8049 126.431 -16.307 126.585 -15.7988C126.729 -15.2905 126.872 -14.7718 127.016 -14.2428C127.087 -13.9835 127.169 -13.7242 127.221 -13.4545C127.282 -13.1848 127.344 -12.9255 127.405 -12.6558C127.467 -12.3861 127.528 -12.1164 127.59 -11.8467C127.651 -11.577 127.723 -11.3073 127.764 -11.0376C127.867 -10.4878 127.969 -9.93805 128.082 -9.38828L128.164 -8.97337C128.195 -8.83852 128.205 -8.6933 128.236 -8.55845C128.277 -8.27838 128.328 -7.99831 128.369 -7.71824C128.554 -6.59796 128.697 -5.46731 128.841 -4.32629C128.913 -3.75578 128.964 -3.18526 129.036 -2.61475L129.128 -1.75379L129.21 -0.892841C129.261 -0.32233 129.323 0.248188 129.374 0.818699C129.415 1.38921 129.466 1.95972 129.507 2.53024C129.548 3.10075 129.6 3.67126 129.641 4.24177C129.661 4.52184 129.682 4.81228 129.712 5.09235L129.743 5.51764L129.764 5.94293C129.897 8.20423 130.051 10.424 130.123 12.592C130.143 13.1314 130.164 13.6708 130.184 14.1998C130.205 14.7288 130.235 15.2578 130.235 15.7765C130.256 16.8138 130.276 17.82 130.297 18.8054C130.307 19.3033 130.317 19.7908 130.328 20.268C130.338 20.7451 130.338 21.2119 130.348 21.6787C130.369 22.6019 130.389 23.4836 130.44 24.3238C130.533 26.0042 130.717 27.5187 130.994 28.8257C131.271 30.1223 131.65 31.201 132.05 32.0309C132.143 32.2383 132.245 32.4354 132.337 32.6118C132.44 32.7881 132.522 32.9541 132.625 33.1097C132.717 33.2549 132.799 33.4001 132.891 33.5246C132.973 33.6491 133.055 33.7632 133.117 33.8462C133.189 33.9395 133.25 34.0225 133.301 34.0951C133.363 34.1781 133.424 34.2403 133.465 34.2922C133.547 34.3959 133.599 34.4582 133.599 34.4582L131.825 35.8481Z" fill="#E5B764"/>
<path d="M107.83 20.9115C107.83 20.9115 107.799 20.87 107.748 20.7871C107.717 20.7456 107.687 20.6937 107.656 20.6315C107.615 20.5692 107.574 20.507 107.522 20.4136C107.317 20.0402 107.051 19.5112 106.815 18.8058C106.579 18.1005 106.374 17.2188 106.261 16.223C106.138 15.2168 106.097 14.0965 106.066 12.8829C106.015 10.466 105.943 7.64452 105.882 4.61563C105.851 3.10117 105.82 1.54523 105.769 -0.0418282C105.718 -1.62889 105.656 -3.2367 105.533 -4.83413C105.41 -6.43156 105.236 -8.029 104.969 -9.58494C104.713 -11.1409 104.354 -12.6553 103.913 -14.0868C103.8 -14.4499 103.688 -14.8025 103.564 -15.1448C103.503 -15.3212 103.441 -15.4871 103.38 -15.6635C103.318 -15.8398 103.247 -16.0058 103.185 -16.1718C103.113 -16.3377 103.052 -16.5037 102.98 -16.6697C102.908 -16.8356 102.836 -16.9912 102.765 -17.1572C102.693 -17.3232 102.621 -17.4788 102.549 -17.6343C102.478 -17.7899 102.396 -17.9455 102.313 -18.1011C101.698 -19.3355 101.011 -20.4454 100.314 -21.4101C99.6167 -22.3852 98.8682 -23.1942 98.1709 -23.8789C97.9966 -24.0448 97.8325 -24.2108 97.6582 -24.3664C97.4839 -24.5116 97.3198 -24.6568 97.1558 -24.7917C97.0737 -24.8643 97.002 -24.9265 96.9199 -24.9888C96.8379 -25.051 96.7559 -25.1132 96.6841 -25.1651C96.5303 -25.2792 96.3867 -25.3933 96.2432 -25.497C95.6689 -25.8912 95.2075 -26.192 94.8794 -26.3684C94.5513 -26.5551 94.377 -26.6484 94.377 -26.6484C94.377 -26.6484 94.5513 -26.5551 94.8794 -26.3787C95.2178 -26.2128 95.6792 -25.9223 96.2739 -25.5385C96.4175 -25.4348 96.5713 -25.3311 96.7251 -25.217C96.8071 -25.1651 96.8892 -25.1029 96.9712 -25.0406C97.0532 -24.9784 97.1353 -24.9162 97.2173 -24.8435C97.3813 -24.7087 97.5557 -24.5738 97.73 -24.4286C97.9043 -24.2834 98.0786 -24.1174 98.2529 -23.9515C98.9707 -23.2876 99.7398 -22.4785 100.468 -21.5138C101.206 -20.5491 101.914 -19.4496 102.56 -18.2152C102.642 -18.0596 102.724 -17.904 102.806 -17.7485C102.877 -17.5929 102.959 -17.4269 103.031 -17.2713C103.103 -17.1053 103.185 -16.9497 103.257 -16.7838C103.329 -16.6178 103.4 -16.4518 103.472 -16.2859C103.544 -16.1199 103.616 -15.9539 103.688 -15.7776C103.749 -15.6012 103.821 -15.4353 103.893 -15.2589C104.036 -14.9063 104.149 -14.5536 104.272 -14.2009C104.754 -12.7591 105.144 -11.2342 105.441 -9.66792C105.738 -8.10161 105.954 -6.4938 106.118 -4.886C106.282 -3.27819 106.374 -1.66001 106.456 -0.0729485C106.538 1.51411 106.6 3.08043 106.671 4.58451C106.805 7.60303 106.928 10.4245 107.041 12.8414C107.092 14.0446 107.164 15.1338 107.297 16.0777C107.43 17.0217 107.635 17.8204 107.851 18.4428C108.076 19.0651 108.322 19.5319 108.486 19.812C108.517 19.8846 108.579 19.9572 108.609 20.0195C108.65 20.0817 108.681 20.1336 108.712 20.175C108.763 20.258 108.794 20.2995 108.794 20.2995L107.83 20.9115Z" fill="#E5B764"/>
<path d="M85.5899 6.78379C85.5899 6.78379 85.5078 6.69043 85.3643 6.52446C85.2925 6.44148 85.2002 6.33775 85.0874 6.21328C85.0362 6.15104 84.9746 6.0888 84.9131 6.01619C84.8516 5.94358 84.7901 5.86059 84.7183 5.78798C84.5747 5.62201 84.4209 5.44567 84.2569 5.24859C84.0928 5.04113 83.9287 4.8233 83.7442 4.58472C83.5596 4.34614 83.3853 4.07645 83.1904 3.80675C83.0879 3.6719 83.0059 3.51631 82.9136 3.37109C82.8213 3.21549 82.729 3.0599 82.6265 2.9043C82.5342 2.73834 82.4522 2.57237 82.3599 2.39603C82.3189 2.31304 82.2676 2.21969 82.2266 2.1367C82.2061 2.09521 82.1856 2.05372 82.1548 2.00186L82.083 1.86701C82.001 1.6803 81.919 1.49358 81.8369 1.30687C81.7959 1.21351 81.7549 1.12016 81.7139 1.01643C81.6831 0.912697 81.6421 0.819344 81.6113 0.715614C81.5396 0.518528 81.4678 0.311068 81.396 0.103609C81.3242 -0.103851 81.2627 -0.300936 81.2012 -0.508394C81.0679 -0.923313 80.9346 -1.3486 80.8013 -1.7739C80.2578 -3.4958 79.6734 -5.33181 79.0889 -7.15745C78.8018 -8.07027 78.5044 -8.99346 78.2173 -9.89591C77.9302 -10.7984 77.6533 -11.6904 77.3662 -12.541C77.0791 -13.3916 76.7817 -14.2111 76.4741 -14.9683C76.1665 -15.7359 75.8384 -16.4309 75.5 -17.074C75.1719 -17.7171 74.813 -18.2669 74.4951 -18.7544C74.4131 -18.8685 74.3311 -18.9826 74.249 -19.0967C74.167 -19.2108 74.0952 -19.3145 74.0132 -19.4079C73.9312 -19.5013 73.8594 -19.605 73.7876 -19.688C73.7158 -19.7813 73.644 -19.8643 73.5723 -19.9369C73.4287 -20.0925 73.3057 -20.2274 73.1929 -20.3518C73.0801 -20.4659 72.9775 -20.5593 72.8955 -20.6423C72.7314 -20.7979 72.6494 -20.8809 72.6494 -20.8809C72.6494 -20.8809 72.7417 -20.7979 72.9058 -20.6527C72.9878 -20.58 73.0903 -20.4867 73.2134 -20.3726C73.3262 -20.2585 73.4595 -20.1236 73.603 -19.968C73.6748 -19.8954 73.7466 -19.8124 73.8286 -19.7191C73.9004 -19.6361 73.9824 -19.5428 74.0645 -19.4494C74.1465 -19.356 74.2285 -19.2523 74.3106 -19.1382C74.3926 -19.0345 74.4849 -18.9204 74.5772 -18.8063C74.9258 -18.3291 75.2949 -17.7897 75.6538 -17.157C76.0127 -16.5346 76.3716 -15.8292 76.71 -15.072C77.0483 -14.3148 77.3765 -13.5057 77.6943 -12.6551C78.0122 -11.8045 78.3301 -10.9332 78.648 -10.0411C78.9658 -9.14906 79.294 -8.24661 79.6118 -7.33379C80.2578 -5.51853 80.9038 -3.71363 81.5191 -2.01247C81.6729 -1.58718 81.8164 -1.17226 81.9702 -0.757345C82.042 -0.549887 82.1138 -0.3528 82.1856 -0.155716C82.2573 0.0309982 82.3394 0.228085 82.4112 0.414797C82.4522 0.508154 82.4829 0.601511 82.5239 0.694868C82.565 0.788223 82.606 0.871204 82.647 0.964561C82.729 1.1409 82.8111 1.30687 82.8931 1.48321L82.9546 1.60769L83.0264 1.73216C83.0674 1.81515 83.1187 1.88775 83.1597 1.97074C83.252 2.12633 83.334 2.28193 83.4263 2.42715C83.5186 2.57237 83.6211 2.71759 83.7134 2.85244C83.8057 2.98729 83.8877 3.13251 83.9903 3.25699C84.1851 3.50594 84.3594 3.75488 84.544 3.97272C84.7285 4.19055 84.9029 4.39801 85.0567 4.58472C85.2207 4.77143 85.3745 4.9374 85.5078 5.08262C85.5796 5.15523 85.6411 5.22784 85.7027 5.30045C85.7642 5.36269 85.8257 5.4353 85.8872 5.48717C86 5.60127 86.0923 5.705 86.1743 5.78798C86.3282 5.95395 86.4102 6.03693 86.4102 6.03693L85.5899 6.78379Z" fill="#E5B764"/>
<path d="M105.79 1.77258L109.44 -4.91797L106.292 2.0319L105.79 1.77258Z" fill="#E5B764"/>
<path d="M171.324 54.7477C171.324 54.7477 171.252 54.5817 171.108 54.2705C171.077 54.1979 171.036 54.1045 170.995 54.0112C170.954 53.9075 170.903 53.7934 170.862 53.6689C170.77 53.4199 170.647 53.1295 170.544 52.8183C170.493 52.6627 170.431 52.4967 170.38 52.3204C170.329 52.1441 170.278 51.9573 170.216 51.7706C170.185 51.6773 170.165 51.5735 170.134 51.4802C170.114 51.3765 170.083 51.2727 170.062 51.169C170.011 50.9615 169.95 50.7437 169.908 50.5155C169.714 49.6131 169.56 48.5861 169.468 47.4659C169.375 46.3456 169.345 45.1216 169.396 43.8457C169.406 43.5241 169.427 43.2026 169.447 42.8706C169.468 42.5491 169.498 42.2171 169.519 41.8852C169.539 41.7192 169.55 41.5533 169.57 41.3873C169.58 41.3043 169.591 41.2213 169.591 41.1384V41.0969V41.0658L169.601 41.0035L169.621 40.879C169.662 40.5471 169.703 40.2048 169.744 39.8729C169.765 39.7069 169.785 39.5306 169.806 39.3646C169.837 39.1882 169.857 39.0223 169.888 38.8459C169.939 38.4933 169.991 38.151 170.052 37.7983C170.175 37.1033 170.288 36.3979 170.421 35.6822C170.678 34.2611 170.954 32.8296 171.2 31.3982C171.262 31.0351 171.324 30.6824 171.385 30.3298C171.447 29.9771 171.508 29.614 171.559 29.2613C171.611 28.9087 171.662 28.5456 171.713 28.1929L171.754 27.9232L171.775 27.7884V27.7573C171.775 27.7573 171.775 27.7365 171.775 27.7469V27.7261L171.785 27.6639C171.805 27.4876 171.826 27.3009 171.836 27.1245C171.877 26.7718 171.908 26.4088 171.949 26.0561C171.98 25.7034 172.031 25.3507 172.041 24.9981C172.082 24.3031 172.123 23.6185 172.154 22.9338C172.164 22.2492 172.175 21.5854 172.185 20.9319C172.185 20.7659 172.185 20.5999 172.195 20.4443C172.185 20.2784 172.185 20.1228 172.175 19.9568C172.164 19.6352 172.154 19.3241 172.144 19.0129C172.134 18.7017 172.123 18.3905 172.113 18.0897C172.103 17.7889 172.072 17.488 172.052 17.1976C172 16.6167 171.959 16.0462 171.918 15.4964C171.846 14.957 171.785 14.4384 171.723 13.9405C171.693 13.6915 171.662 13.453 171.631 13.2144C171.6 12.9758 171.559 12.758 171.518 12.5402C171.447 12.1045 171.375 11.6896 171.313 11.3161C171.283 11.1294 171.252 10.9427 171.221 10.7664C171.19 10.59 171.149 10.4344 171.118 10.2788C170.852 9.03409 170.688 8.31836 170.688 8.31836C170.688 8.31836 170.872 9.02372 171.19 10.2581C171.231 10.4137 171.272 10.5797 171.313 10.7456C171.354 10.922 171.385 11.0983 171.426 11.285C171.508 11.6584 171.59 12.0734 171.682 12.509C171.723 12.7269 171.775 12.9551 171.816 13.1833C171.857 13.4115 171.898 13.6604 171.929 13.899C172.011 14.3969 172.093 14.9156 172.185 15.4549C172.257 15.9943 172.318 16.5649 172.39 17.1561C172.421 17.4466 172.462 17.7474 172.492 18.0482C172.513 18.349 172.533 18.6602 172.554 18.9714C172.575 19.2826 172.595 19.6041 172.626 19.9257C172.636 20.0917 172.646 20.2472 172.657 20.4132C172.657 20.5792 172.667 20.7451 172.667 20.9111C172.687 21.575 172.708 22.2492 172.718 22.9338C172.708 23.6185 172.687 24.3238 172.677 25.0396C172.677 25.3922 172.646 25.7449 172.626 26.0976C172.605 26.4503 172.585 26.8133 172.554 27.166C172.544 27.3423 172.533 27.5291 172.523 27.7054V27.778V27.8195V27.8506L172.513 27.9855L172.482 28.2552C172.441 28.6182 172.41 28.9813 172.369 29.3443C172.328 29.7074 172.277 30.0704 172.236 30.4335C172.195 30.7965 172.144 31.1596 172.093 31.5226C171.898 32.9749 171.672 34.4167 171.477 35.8378C171.375 36.5431 171.283 37.2485 171.2 37.9435C171.159 38.2858 171.118 38.6281 171.088 38.9704C171.067 39.1364 171.047 39.3127 171.026 39.4787C171.006 39.6447 170.995 39.821 170.985 39.987C170.954 40.3293 170.924 40.6612 170.903 41.0035L170.893 41.128L170.883 41.1902V41.2213C170.883 41.211 170.883 41.2213 170.883 41.2213V41.2317L170.872 41.4807C170.862 41.6466 170.852 41.8022 170.842 41.9682C170.831 42.2898 170.821 42.6113 170.801 42.9225C170.801 43.2337 170.79 43.5449 170.79 43.8561C170.79 45.0801 170.862 46.2419 170.995 47.2895C171.129 48.3476 171.303 49.2915 171.518 50.1213C171.57 50.3288 171.631 50.5259 171.682 50.7126C171.713 50.806 171.734 50.8993 171.764 50.9927C171.795 51.086 171.826 51.169 171.857 51.2624C171.918 51.4387 171.97 51.6047 172.021 51.7603C172.082 51.9159 172.134 52.0611 172.195 52.2063C172.298 52.4967 172.41 52.7249 172.503 52.9428C172.554 53.0465 172.585 53.1399 172.636 53.2332C172.687 53.3266 172.728 53.4096 172.759 53.4925C172.913 53.7934 172.995 53.9593 172.995 53.9593L171.324 54.7477Z" fill="#E5B764"/>
<path d="M214.892 85.7526C214.892 85.7526 213.343 86.5617 210.626 87.9724C209.939 88.3147 209.221 88.74 208.411 89.1756C207.612 89.6217 206.75 90.0988 205.827 90.6175C205.591 90.742 205.366 90.8768 205.12 91.0117C204.884 91.1569 204.648 91.2917 204.402 91.437C203.92 91.7274 203.418 92.0282 202.905 92.329C202.392 92.6298 201.869 92.9514 201.336 93.2626C201.07 93.4182 200.793 93.5842 200.526 93.7501C200.249 93.9161 199.983 94.0924 199.706 94.2688C198.609 94.9741 197.46 95.7002 196.271 96.4678C196.127 96.5612 195.973 96.6546 195.819 96.7583L195.717 96.8309L195.604 96.9035L195.379 97.0487C195.081 97.2458 194.774 97.4533 194.476 97.6504C194.169 97.8578 193.871 98.0549 193.553 98.2624C193.246 98.4698 192.938 98.6773 192.631 98.8951C190.159 100.586 187.575 102.422 184.899 104.331C182.223 106.239 179.464 108.22 176.614 110.181C173.763 112.141 170.831 114.081 167.826 115.907C164.822 117.722 161.725 119.413 158.598 120.896C158.403 120.989 158.208 121.083 158.013 121.176C157.818 121.27 157.624 121.353 157.419 121.446C157.029 121.622 156.639 121.799 156.239 121.965C155.45 122.307 154.66 122.628 153.871 122.929C152.292 123.541 150.702 124.081 149.123 124.558C147.544 125.035 145.975 125.439 144.437 125.782C142.889 126.114 141.361 126.383 139.864 126.581C138.367 126.788 136.911 126.912 135.496 126.985C135.321 126.995 135.147 127.006 134.962 127.006C134.788 127.016 134.614 127.027 134.439 127.027C134.091 127.037 133.742 127.037 133.404 127.047C133.065 127.047 132.727 127.037 132.389 127.037C132.225 127.037 132.05 127.037 131.886 127.027C131.722 127.016 131.558 127.016 131.394 127.006C130.082 126.964 128.831 126.84 127.641 126.695C127.344 126.653 127.057 126.612 126.759 126.57C126.616 126.549 126.472 126.529 126.329 126.508C126.185 126.487 126.042 126.456 125.908 126.435C125.631 126.383 125.355 126.332 125.088 126.29C124.821 126.238 124.555 126.176 124.288 126.124C122.207 125.678 120.422 125.108 118.997 124.558C118.823 124.485 118.648 124.423 118.474 124.361C118.31 124.298 118.146 124.226 117.992 124.153C117.674 124.018 117.387 123.894 117.11 123.78C116.577 123.52 116.116 123.313 115.747 123.126C115.019 122.743 114.629 122.545 114.629 122.545C114.629 122.545 115.019 122.743 115.757 123.106C116.126 123.282 116.587 123.479 117.131 123.728C117.408 123.842 117.705 123.956 118.013 124.081C118.167 124.143 118.331 124.215 118.505 124.278C118.679 124.34 118.854 124.402 119.028 124.464C120.463 124.983 122.248 125.512 124.329 125.917C124.585 125.968 124.852 126.02 125.119 126.072C125.385 126.114 125.662 126.155 125.939 126.197C126.083 126.217 126.216 126.238 126.359 126.259C126.503 126.28 126.647 126.29 126.79 126.311C127.077 126.342 127.364 126.383 127.662 126.415C128.841 126.529 130.092 126.632 131.394 126.643C131.558 126.643 131.722 126.653 131.886 126.653C132.05 126.653 132.214 126.653 132.378 126.653C132.707 126.653 133.045 126.653 133.383 126.643C133.722 126.632 134.06 126.622 134.409 126.601C134.583 126.601 134.757 126.591 134.932 126.57C135.106 126.56 135.28 126.549 135.455 126.539C136.859 126.446 138.305 126.29 139.772 126.051C141.248 125.823 142.755 125.533 144.273 125.17C145.801 124.796 147.339 124.371 148.887 123.863C150.436 123.365 151.994 122.794 153.543 122.162C154.322 121.84 155.091 121.508 155.86 121.155C156.25 120.989 156.629 120.803 157.019 120.616C157.213 120.523 157.398 120.429 157.593 120.336C157.788 120.243 157.972 120.139 158.167 120.046C161.233 118.521 164.258 116.788 167.211 114.921C170.154 113.054 173.025 111.073 175.824 109.061C178.624 107.048 181.341 105.026 183.976 103.065C186.611 101.105 189.165 99.2063 191.626 97.4533C191.933 97.2354 192.241 97.0072 192.538 96.7998C192.846 96.5819 193.143 96.3745 193.441 96.167C193.738 95.9596 194.035 95.7521 194.333 95.5446L194.558 95.389L194.671 95.3164L194.784 95.2335C194.938 95.1297 195.081 95.0364 195.225 94.9326C196.404 94.1443 197.552 93.3767 198.65 92.6506C198.926 92.4742 199.193 92.2772 199.47 92.1112C199.747 91.9349 200.013 91.7689 200.28 91.6029C200.813 91.271 201.336 90.9391 201.849 90.6175C202.362 90.2959 202.854 89.9847 203.336 89.6839C203.582 89.5283 203.818 89.3831 204.053 89.2379C204.289 89.0927 204.525 88.9578 204.761 88.823C205.694 88.2836 206.555 87.7753 207.365 87.3085C208.165 86.8417 208.904 86.3957 209.58 86.043C212.267 84.5804 213.805 83.7402 213.805 83.7402L214.892 85.7526Z" fill="#E5B764"/>
<path d="M197.943 73.2548C197.943 73.2548 197.83 73.2029 197.604 73.1096C197.491 73.0577 197.358 73.0058 197.194 72.9332C197.03 72.8606 196.856 72.7984 196.64 72.7154C196.538 72.6739 196.425 72.6324 196.312 72.5909C196.189 72.5494 196.066 72.5079 195.943 72.4561C195.677 72.3627 195.4 72.259 195.082 72.1656C194.928 72.1138 194.764 72.0619 194.6 72.01C194.426 71.9582 194.251 71.9167 194.077 71.8648C193.718 71.7611 193.328 71.6677 192.918 71.564C191.278 71.1802 189.237 70.8171 186.879 70.6927C184.52 70.5578 181.823 70.6408 178.911 71.035C177.455 71.2321 175.948 71.5121 174.4 71.8648C173.631 72.0412 172.841 72.2382 172.051 72.4664C171.652 72.5702 171.262 72.6946 170.862 72.8087C170.657 72.871 170.462 72.9332 170.267 72.9955L169.97 73.0888L169.826 73.1303L169.673 73.1822C169.262 73.317 168.852 73.4622 168.442 73.5971L168.134 73.7008L167.837 73.8149C167.632 73.8875 167.437 73.9601 167.232 74.0431C166.422 74.3336 165.602 74.6759 164.771 74.9974C163.12 75.6821 161.459 76.4289 159.778 77.238C158.106 78.0471 156.414 78.9184 154.722 79.8209C153.03 80.7337 151.328 81.6776 149.616 82.6423C146.191 84.582 142.735 86.5944 139.208 88.5134C137.444 89.4677 135.671 90.4013 133.876 91.2933C132.082 92.175 130.267 93.0049 128.442 93.7725C126.616 94.5401 124.781 95.2247 122.935 95.8263C122.699 95.8989 122.474 95.9715 122.248 96.0441C122.023 96.1168 121.787 96.1997 121.561 96.262C121.1 96.3968 120.638 96.5317 120.177 96.6665C119.715 96.791 119.254 96.9051 118.793 97.0192C118.567 97.0711 118.331 97.1437 118.106 97.1852C117.87 97.237 117.644 97.2889 117.419 97.3408C117.193 97.3926 116.957 97.4445 116.732 97.486L116.557 97.5275L116.475 97.5482C116.465 97.5482 116.434 97.5586 116.424 97.5586L116.383 97.569L116.045 97.6312C115.583 97.7142 115.132 97.7868 114.681 97.8698C114.455 97.9113 114.23 97.9528 114.004 97.9839C113.778 98.015 113.543 98.0358 113.317 98.0669C112.866 98.1187 112.404 98.181 111.953 98.2328C111.502 98.2951 111.051 98.3158 110.61 98.3469C110.159 98.3781 109.718 98.4092 109.277 98.4403C109.062 98.461 108.836 98.461 108.621 98.461C108.405 98.461 108.18 98.4714 107.964 98.4714C107.524 98.4818 107.093 98.4922 106.662 98.5025C103.217 98.5025 99.9664 98.1499 97.0132 97.5897C94.0601 97.0192 91.4146 96.2412 89.1177 95.4321C88.5435 95.2143 87.9898 95.0069 87.4566 94.8098C87.3233 94.7579 87.19 94.706 87.0669 94.6542C86.9336 94.6023 86.8106 94.5401 86.6875 94.4882C86.4312 94.3845 86.1851 94.2704 85.9492 94.1666C84.9751 93.7725 84.1138 93.3161 83.3242 92.9323C83.1294 92.8389 82.9346 92.7455 82.75 92.6522C82.5654 92.5485 82.3911 92.4551 82.2271 92.3618C81.8887 92.175 81.5708 91.9987 81.2734 91.8327C80.6685 91.5112 80.1865 91.2 79.7866 90.951C78.9868 90.4531 78.5664 90.1938 78.5664 90.1938C78.5664 90.1938 78.9971 90.4531 79.7969 90.9303C80.1968 91.1689 80.689 91.4801 81.2939 91.7809C81.5913 91.9365 81.9194 92.1128 82.2578 92.2891C82.4321 92.3825 82.6065 92.4759 82.791 92.5692C82.9756 92.6626 83.1704 92.7455 83.3652 92.8389C84.1548 93.202 85.0264 93.648 86.0005 94.0214C86.2466 94.1252 86.4927 94.2185 86.749 94.3326C86.8721 94.3845 87.0054 94.4363 87.1284 94.4882C87.2617 94.5401 87.3848 94.5919 87.5181 94.6438C88.0513 94.8305 88.605 95.0276 89.1792 95.2351C91.4864 96.0027 94.1319 96.7391 97.0645 97.2474C100.007 97.7557 103.237 98.0461 106.642 97.9839C107.072 97.9631 107.493 97.9528 107.934 97.932C108.149 97.9216 108.364 97.9113 108.58 97.9009C108.795 97.8905 109.01 97.8905 109.236 97.8698C109.667 97.8283 110.107 97.7868 110.548 97.7557C110.989 97.7142 111.43 97.6934 111.871 97.6208C112.312 97.5586 112.753 97.4964 113.204 97.4341C113.43 97.403 113.655 97.3719 113.871 97.3408C114.096 97.2993 114.322 97.2578 114.547 97.2163C114.999 97.1333 115.45 97.0399 115.911 96.957L116.25 96.8947L116.291 96.8844C116.311 96.8844 116.301 96.8844 116.321 96.874L116.403 96.8532L116.567 96.8118C116.793 96.7599 117.019 96.708 117.244 96.6562C117.47 96.6043 117.695 96.5524 117.921 96.5006C118.147 96.4487 118.372 96.3761 118.598 96.3242C119.049 96.1997 119.5 96.0856 119.962 95.9508C120.413 95.8159 120.864 95.6707 121.325 95.5359C121.551 95.4736 121.776 95.3907 122.002 95.3077C122.228 95.2351 122.453 95.1521 122.679 95.0795C124.483 94.4467 126.298 93.7413 128.083 92.953C129.877 92.1647 131.651 91.3037 133.415 90.4013C135.178 89.4884 136.922 88.5341 138.665 87.5487L139.967 86.8122L141.259 86.0654C142.12 85.5571 142.982 85.0488 143.833 84.5509C145.545 83.5344 147.257 82.5178 148.949 81.5117C150.652 80.5159 152.343 79.5304 154.035 78.5865C155.727 77.6425 157.419 76.7401 159.101 75.8791C160.782 75.0286 162.474 74.2402 164.135 73.5141C164.976 73.1614 165.797 72.8088 166.637 72.4872C166.842 72.4042 167.058 72.3212 167.263 72.2486L167.57 72.1241L167.878 72.01C168.288 71.8648 168.698 71.7196 169.098 71.5744L169.252 71.5225L169.416 71.4706L169.724 71.3669C169.929 71.2943 170.134 71.2321 170.339 71.1594C170.749 71.0246 171.159 70.9001 171.559 70.786C172.369 70.5371 173.179 70.3296 173.969 70.1222C175.558 69.728 177.117 69.4064 178.624 69.1782C181.639 68.7218 184.459 68.5766 186.95 68.6803C189.442 68.7737 191.616 69.1056 193.369 69.4894C193.81 69.5931 194.22 69.6865 194.61 69.7902C194.805 69.8421 194.989 69.8939 195.174 69.9354C195.359 69.9873 195.533 70.0392 195.697 70.091C196.035 70.1844 196.343 70.2881 196.63 70.3815C196.774 70.4333 196.907 70.4748 197.04 70.5163C197.174 70.5682 197.297 70.6097 197.409 70.6512C197.635 70.7342 197.85 70.8068 198.014 70.8794C198.178 70.9416 198.322 71.0039 198.435 71.0453C198.66 71.1387 198.773 71.1802 198.773 71.1802L197.943 73.2548Z" fill="#E5B764"/>
<path d="M163.294 52.3001C163.294 52.3001 162.925 52.3001 162.238 52.2897C162.064 52.2897 161.869 52.2897 161.664 52.2794C161.459 52.2794 161.233 52.2897 160.987 52.2897C160.505 52.3001 159.941 52.3001 159.305 52.3312C158.987 52.3416 158.659 52.3623 158.311 52.3727C157.962 52.3935 157.593 52.4246 157.214 52.4453C157.019 52.4557 156.834 52.4764 156.629 52.4868C156.434 52.5076 156.229 52.5283 156.024 52.5387C155.614 52.5802 155.194 52.6113 154.753 52.6632C152.999 52.8499 151.03 53.1507 148.898 53.576C146.765 54.0116 144.478 54.5822 142.099 55.3394C141.505 55.5261 140.91 55.7336 140.295 55.941C139.997 56.0551 139.69 56.1588 139.382 56.2729C139.074 56.387 138.767 56.4908 138.469 56.6153C138.162 56.7397 137.854 56.8538 137.547 56.9783L137.311 57.0717L137.198 57.1131L137.167 57.1235C137.157 57.1235 137.167 57.1235 137.147 57.1339L137.085 57.1546C136.931 57.2169 136.777 57.2895 136.624 57.3517C136.316 57.4866 135.998 57.6214 135.68 57.7563C135.362 57.8911 135.045 58.026 134.737 58.1608C134.111 58.4409 133.486 58.7313 132.85 59.0114C132.214 59.3018 131.568 59.6027 130.922 59.8931C130.276 60.1835 129.62 60.4844 128.964 60.7748L128.718 60.8889L128.462 60.9926L127.969 61.2105C127.641 61.3557 127.303 61.5009 126.964 61.6358C125.611 62.2063 124.247 62.7249 122.853 63.2228C121.468 63.7207 120.053 64.1771 118.628 64.592C118.269 64.6958 117.921 64.7995 117.562 64.8929L116.485 65.1729C116.126 65.2663 115.767 65.3493 115.408 65.4323C115.049 65.5256 114.691 65.5982 114.332 65.6708C113.614 65.8368 112.886 65.9613 112.168 66.1065C111.44 66.2206 110.722 66.3554 109.994 66.4384C109.276 66.5422 108.548 66.6148 107.831 66.6978C107.472 66.7289 107.113 66.76 106.754 66.7807L106.487 66.8015L106.416 66.8119H106.385H106.344L106.211 66.8222C106.036 66.8326 105.852 66.8326 105.677 66.843C105.318 66.8533 104.97 66.8741 104.621 66.8845C104.447 66.8845 104.273 66.9052 104.088 66.9052C103.914 66.9052 103.729 66.9052 103.555 66.9052C103.206 66.9052 102.847 66.9052 102.499 66.9052C102.324 66.9052 102.15 66.9052 101.976 66.9052C101.801 66.8948 101.627 66.8845 101.453 66.8845C98.6841 66.7807 96.0079 66.4592 93.5264 65.9509C91.0347 65.4426 88.7276 64.7788 86.6358 64.0423C86.1128 63.8556 85.6104 63.6689 85.1079 63.4821C84.6157 63.2851 84.1441 63.0776 83.6724 62.8909C83.4365 62.7975 83.211 62.6938 82.9854 62.6004C82.7598 62.4967 82.5445 62.393 82.3291 62.2893C81.8985 62.0818 81.478 61.8847 81.0679 61.698C80.668 61.4905 80.2886 61.2831 79.9092 61.0964C79.7246 61.003 79.5401 60.8993 79.3657 60.8059C79.2735 60.7541 79.1914 60.7126 79.0991 60.6607C79.0171 60.6088 78.9248 60.557 78.8428 60.5155C78.5044 60.3184 78.1865 60.1317 77.8789 59.9553C77.5713 59.7686 77.2739 59.613 77.0073 59.4367C76.4639 59.084 75.9819 58.7728 75.5615 58.5031C75.459 58.4409 75.3565 58.3683 75.2642 58.2957C75.1719 58.2334 75.0796 58.1608 74.9873 58.0986C74.813 57.9741 74.6592 57.86 74.5156 57.7666C73.9517 57.3621 73.6543 57.1546 73.6543 57.1546C73.6543 57.1546 73.9619 57.3621 74.5361 57.7459C74.6797 57.8393 74.8438 57.9534 75.0181 58.0675C75.1104 58.1297 75.2026 58.1919 75.2949 58.2542C75.3872 58.3164 75.4897 58.389 75.6025 58.4513C76.0332 58.7106 76.5254 59.0114 77.0689 59.3433C77.3355 59.5197 77.6431 59.6753 77.9507 59.8412C78.2583 60.0176 78.5864 60.1939 78.9248 60.3806C79.0068 60.4325 79.0991 60.474 79.1812 60.5259C79.2735 60.5673 79.3555 60.6192 79.4478 60.6607C79.6323 60.7541 79.8169 60.837 80.0015 60.9304C80.3809 61.1171 80.7603 61.3038 81.1704 61.5009C81.5806 61.6772 82.001 61.864 82.4419 62.0611C82.6572 62.1544 82.8828 62.2581 83.1084 62.3515C83.334 62.4448 83.5698 62.5278 83.7954 62.6212C84.2671 62.7975 84.7388 62.9946 85.231 63.1813C85.7334 63.3473 86.2359 63.5236 86.7588 63.7C88.8506 64.3742 91.1578 64.9862 93.6289 65.4219C96.1001 65.8575 98.7457 66.1169 101.483 66.1584C101.658 66.1584 101.822 66.1687 101.996 66.1687C102.17 66.1687 102.335 66.1584 102.509 66.1584C102.847 66.148 103.196 66.148 103.544 66.1376C103.719 66.1376 103.893 66.1272 104.067 66.1272C104.242 66.1272 104.416 66.1065 104.59 66.0961C104.939 66.0754 105.298 66.0443 105.647 66.0235C105.821 66.0131 106.005 66.0028 106.18 65.9924L106.313 65.982C106.323 65.982 106.344 65.982 106.334 65.982H106.364L106.426 65.9716L106.692 65.9405C107.041 65.899 107.4 65.8679 107.749 65.8264C108.456 65.7331 109.164 65.6501 109.871 65.5256C110.579 65.4219 111.286 65.2767 111.994 65.1418C112.701 64.9862 113.409 64.841 114.116 64.6647C114.465 64.5817 114.824 64.4987 115.172 64.395C115.521 64.3016 115.88 64.2082 116.229 64.1149L117.275 63.8141C117.623 63.7103 117.972 63.5962 118.32 63.4925C119.715 63.0568 121.089 62.5693 122.442 62.0507C123.796 61.532 125.139 60.9823 126.452 60.391C126.78 60.2458 127.108 60.1006 127.436 59.945L127.928 59.7168L128.164 59.6027L128.41 59.4886C129.056 59.1774 129.692 58.8765 130.338 58.5654C130.974 58.2542 131.609 57.943 132.235 57.6422C132.871 57.331 133.506 57.0302 134.132 56.7294C134.45 56.5738 134.757 56.4389 135.065 56.2937C135.373 56.1485 135.691 56.0136 135.998 55.8684C136.152 55.7958 136.306 55.7232 136.46 55.6609L136.521 55.6298L136.593 55.5987L136.706 55.5468L136.942 55.4431C137.259 55.3083 137.567 55.1838 137.875 55.0489C138.182 54.9141 138.5 54.8 138.808 54.6755C139.115 54.551 139.423 54.4369 139.731 54.3125C140.346 54.0946 140.961 53.8664 141.566 53.659C143.986 52.8291 146.324 52.1756 148.508 51.6777C150.692 51.1798 152.712 50.8271 154.507 50.5886C154.958 50.5263 155.399 50.4848 155.819 50.433C156.034 50.4122 156.239 50.3811 156.445 50.3604C156.65 50.3396 156.844 50.3189 157.039 50.3085C157.429 50.2774 157.808 50.2359 158.167 50.2048C158.526 50.184 158.875 50.1529 159.193 50.1322C159.839 50.0803 160.433 50.0699 160.946 50.0388C161.202 50.0284 161.438 50.0181 161.654 50.0077C161.869 50.0077 162.053 49.9973 162.228 49.9973C162.915 49.9869 163.284 49.9766 163.284 49.9766L163.294 52.3001Z" fill="#E5B764"/>
<path d="M127.19 32.7065C127.19 32.7065 126.903 32.665 126.38 32.5716C126.318 32.5612 126.247 32.5509 126.165 32.5405C126.124 32.5301 126.093 32.5301 126.052 32.5198C126.011 32.5198 125.98 32.5094 125.939 32.5094C125.785 32.499 125.621 32.4783 125.447 32.4575C125.355 32.4471 125.262 32.4368 125.17 32.4264C125.078 32.416 124.975 32.4057 124.873 32.4057C124.657 32.3953 124.442 32.3849 124.196 32.3745C123.242 32.3434 122.084 32.3745 120.751 32.5405C119.418 32.7168 117.921 33.0177 116.3 33.4741C114.68 33.9305 112.947 34.5425 111.122 35.2478C109.297 35.9532 107.379 36.7519 105.38 37.561C103.38 38.3597 101.278 39.1792 99.0943 39.8534C97.9972 40.1854 96.8897 40.4965 95.7515 40.7351L95.3209 40.8285C95.1773 40.8596 95.0338 40.8803 94.8902 40.9115C94.6031 40.9633 94.316 41.0152 94.0289 41.0671L93.1573 41.1915L92.942 41.2227L92.7266 41.2434L92.2857 41.2849L91.8448 41.3264L91.7217 41.3368L91.6192 41.3471L91.4039 41.3575C91.1168 41.3679 90.8297 41.3886 90.5425 41.399L89.6607 41.4094H89.4351L89.2198 41.399L88.7789 41.3886C87.6202 41.3471 86.4615 41.233 85.3336 41.0359C83.0674 40.6625 80.9039 40.0401 78.8736 39.2622C78.7505 39.2103 78.6172 39.1688 78.4942 39.1169C78.3711 39.0651 78.2481 39.0132 78.1148 38.9613C77.8687 38.8576 77.6123 38.7643 77.3765 38.6605C76.8843 38.4427 76.4024 38.2352 75.9307 38.0174C74.9873 37.5817 74.0747 37.115 73.2032 36.6378C71.46 35.6939 69.8604 34.7084 68.4146 33.7645C66.9688 32.8206 65.6665 31.9077 64.5283 31.0883C63.3901 30.2688 62.4058 29.5323 61.606 28.9307C60.8062 28.3187 60.1704 27.8416 59.75 27.52C59.3193 27.1881 59.0938 27.0117 59.0938 27.0117C59.0938 27.0117 59.3296 27.1777 59.7603 27.4992C60.2012 27.8104 60.8472 28.2668 61.6572 28.8581C62.4775 29.439 63.4824 30.1443 64.6411 30.9223C65.7998 31.7003 67.1226 32.5716 68.5889 33.4637C70.0552 34.3558 71.6753 35.279 73.4287 36.171C74.3106 36.6067 75.2129 37.0424 76.1665 37.4469C76.6382 37.6544 77.1202 37.8411 77.6123 38.0382C77.8584 38.1315 78.1045 38.2249 78.3506 38.3182C78.4737 38.3597 78.5967 38.4116 78.7198 38.4531C78.8428 38.4946 78.9761 38.5361 79.0992 38.5776C81.1089 39.2725 83.252 39.8223 85.4566 40.1127C86.5538 40.2683 87.6714 40.341 88.7891 40.3513H89.2095H89.4146L89.6197 40.341L90.4503 40.3098C90.7271 40.2891 91.0245 40.2683 91.3013 40.2372L91.5167 40.2165L91.6192 40.2061L91.7115 40.1957L92.1319 40.1439L92.5523 40.092L92.7574 40.0609L92.9625 40.0298L93.793 39.8845C94.0699 39.8327 94.3468 39.7704 94.6134 39.7082C94.7467 39.6771 94.8902 39.6563 95.0235 39.6148L95.4337 39.5111C96.5206 39.2518 97.5972 38.9095 98.6431 38.5568C100.755 37.8411 102.786 36.9801 104.744 36.1192C106.713 35.2582 108.61 34.3973 110.435 33.6193C112.271 32.8517 114.034 32.1671 115.716 31.6381C117.387 31.0987 118.977 30.7252 120.412 30.497C121.848 30.2688 123.13 30.1962 124.175 30.1962C124.442 30.1962 124.688 30.2066 124.924 30.2066C125.037 30.2066 125.16 30.217 125.273 30.2273C125.385 30.2377 125.498 30.2481 125.601 30.2481C125.816 30.2688 126.011 30.2792 126.185 30.2896C126.226 30.2896 126.277 30.2999 126.318 30.2999C126.36 30.2999 126.401 30.3103 126.431 30.3103C126.503 30.3207 126.575 30.3311 126.647 30.3414C127.18 30.414 127.467 30.4452 127.467 30.4452L127.19 32.7065Z" fill="#E5B764"/>
<path d="M100.489 16.0154C100.489 16.0154 99.9146 15.9946 98.8995 15.9531C98.6431 15.9324 98.3765 15.9531 98.0792 15.9531C97.7818 15.9531 97.4537 15.9635 97.1153 15.9635C97.0333 15.9635 96.941 15.9635 96.8487 15.9635C96.7564 15.9635 96.6641 15.9739 96.5718 15.9739C96.3873 15.9843 96.1925 15.9946 95.9976 16.005C95.8028 16.0154 95.5977 16.0258 95.3926 16.0361C95.1876 16.0465 94.9825 16.0569 94.7672 16.0776C94.3365 16.1191 93.8956 16.1606 93.4341 16.2125C93.1983 16.2332 92.9727 16.2643 92.7369 16.2955C92.501 16.3266 92.2549 16.3577 92.0191 16.3888C91.773 16.4199 91.5269 16.451 91.2808 16.4925C91.0347 16.534 90.7784 16.5755 90.522 16.617C90.2657 16.6585 90.0093 16.7 89.7427 16.7415C89.4864 16.783 89.2198 16.8452 88.9532 16.8867C87.897 17.0838 86.8101 17.3327 85.6924 17.5817C85.1387 17.7062 84.5748 17.841 84.0005 17.9551C83.7134 18.0174 83.4263 18.0589 83.1289 18.1003C82.9854 18.1211 82.8316 18.1315 82.688 18.1522C82.5445 18.173 82.3907 18.173 82.2471 18.1833C81.9497 18.2041 81.6524 18.2041 81.355 18.2041H81.3243H81.3038H81.2935H81.2422L81.1294 18.1937L80.9141 18.173C80.7705 18.1626 80.627 18.1522 80.4834 18.1315L80.0425 18.0589C79.899 18.0381 79.7452 18.0174 79.6119 17.9862C79.3247 17.924 79.0376 17.8721 78.7608 17.7892C78.6172 17.758 78.4839 17.7165 78.3404 17.6854L78.2891 17.6751L78.2276 17.6543L78.125 17.6232L77.92 17.561C77.6534 17.478 77.3765 17.395 77.1099 17.3224C76.9766 17.2809 76.8433 17.2394 76.71 17.1979L76.5152 17.1357L76.3203 17.0631C76.064 16.9697 75.7974 16.8763 75.541 16.783C75.2847 16.6896 75.0283 16.5963 74.772 16.5029C74.5259 16.3992 74.2798 16.2955 74.0337 16.1917C73.5518 15.9843 73.0698 15.7975 72.6289 15.5693C72.4033 15.4656 72.1778 15.3515 71.9624 15.2478C71.8496 15.1959 71.7471 15.1441 71.6343 15.0922C71.5215 15.0403 71.419 14.9885 71.3164 14.9366C70.9063 14.7084 70.5064 14.4906 70.127 14.2831C70.0347 14.2312 69.9321 14.1794 69.8399 14.1275C69.7476 14.0756 69.6553 14.0134 69.5733 13.9615C69.3989 13.8474 69.2246 13.7437 69.0503 13.64C68.8862 13.5362 68.7119 13.4325 68.5581 13.3392C68.4761 13.2873 68.3941 13.2458 68.3223 13.1939C68.2402 13.1421 68.1685 13.0902 68.0967 13.0383C67.8096 12.8413 67.5327 12.6545 67.2764 12.4782C67.0303 12.3019 66.7842 12.1566 66.5894 11.9907C65.7793 11.3683 65.3281 11.0156 65.3281 11.0156C65.3281 11.0156 65.7998 11.3579 66.6201 11.9492C66.8252 12.1048 67.061 12.25 67.3174 12.416C67.5737 12.5819 67.8506 12.7583 68.148 12.9554C68.2197 13.0072 68.2915 13.0487 68.3735 13.1006C68.4556 13.1421 68.5376 13.1939 68.6094 13.2354C68.7734 13.3288 68.9375 13.4221 69.1118 13.5259C69.2861 13.6192 69.4605 13.723 69.6348 13.8267C69.7271 13.8786 69.8193 13.9304 69.9116 13.9823C70.0039 14.0341 70.1065 14.0756 70.1987 14.1275C70.5884 14.3246 70.9883 14.532 71.4087 14.7395C71.5112 14.7914 71.624 14.8432 71.7266 14.8847C71.8394 14.9366 71.9419 14.9781 72.0547 15.03C72.27 15.1233 72.4956 15.227 72.7212 15.3308C73.1724 15.5382 73.6543 15.7146 74.1363 15.9013C74.3823 15.9946 74.6284 16.088 74.8745 16.1814C75.1309 16.2643 75.377 16.3473 75.6333 16.4303C75.8897 16.5133 76.146 16.5963 76.4024 16.6793L76.5972 16.7415L76.8023 16.7934C76.9356 16.8245 77.0689 16.866 77.2022 16.8971C77.4688 16.9697 77.7456 17.0423 78.0122 17.1149L78.2173 17.1668L78.3199 17.1979L78.3506 17.2083C78.3609 17.2083 78.3506 17.2083 78.3609 17.2083H78.3711L78.4224 17.2186C78.5557 17.2498 78.6992 17.2809 78.8326 17.312C79.1094 17.3742 79.3863 17.4261 79.6631 17.478C79.8067 17.5091 79.94 17.5195 80.0733 17.5402L80.4834 17.5921C80.6167 17.6128 80.7705 17.6128 80.9141 17.6128L81.1294 17.6232L81.2422 17.6336H81.2935H81.3038C81.314 17.6336 81.2935 17.6336 81.3038 17.6336H81.3345C81.6114 17.6232 81.8985 17.6232 82.1753 17.5921C82.3189 17.5817 82.4522 17.5713 82.5957 17.5402C82.7393 17.5195 82.8726 17.4987 83.0162 17.478C83.293 17.4261 83.5699 17.3742 83.8467 17.312C84.4004 17.1875 84.9541 17.0423 85.4976 16.8971C86.605 16.6066 87.6919 16.3369 88.7584 16.0984C89.025 16.0361 89.2916 15.9739 89.5479 15.922C89.8145 15.8702 90.0709 15.8183 90.3272 15.7664C90.5836 15.7146 90.8399 15.6627 91.0963 15.6108C91.3526 15.559 91.5987 15.5279 91.8448 15.4864C92.0909 15.4449 92.337 15.4034 92.5728 15.3619C92.8087 15.3204 93.0445 15.2789 93.2803 15.2582C93.752 15.1959 94.2032 15.1441 94.6339 15.0818C94.8492 15.0507 95.0645 15.03 95.2696 15.0196C95.4747 14.9988 95.6798 14.9885 95.8848 14.9677C96.0797 14.947 96.2745 14.9366 96.4693 14.9158C96.5616 14.9055 96.6539 14.8951 96.7462 14.8951C96.8384 14.8951 96.9307 14.8847 97.023 14.8847C97.3819 14.8744 97.7203 14.8536 98.0279 14.8432C98.3355 14.8329 98.6226 14.8121 98.879 14.8225C99.8941 14.8329 100.468 14.8329 100.468 14.8329L100.489 16.0154Z" fill="#E5B764"/>
<path d="M204.884 76.0745C204.884 76.0745 201.634 77.3711 196.753 79.3108C195.533 79.7983 194.21 80.3274 192.816 80.8771C192.118 81.1572 191.4 81.4476 190.672 81.7381C190.303 81.8833 189.934 82.0389 189.565 82.1841C189.196 82.3397 188.816 82.4953 188.437 82.6509C187.678 82.9621 186.919 83.294 186.14 83.6156C185.761 83.7816 185.371 83.9579 184.982 84.1342C184.787 84.2172 184.592 84.3106 184.397 84.3936C184.202 84.4869 184.007 84.5699 183.813 84.6633C183.423 84.8396 183.033 85.0263 182.644 85.213C182.254 85.3997 181.875 85.5968 181.485 85.7835L180.9 86.074L180.326 86.3748C179.947 86.5823 179.567 86.7793 179.178 86.9868C177.64 87.8478 176.163 88.7398 174.707 89.663C173.261 90.5966 171.846 91.5405 170.493 92.4637C169.129 93.3869 167.816 94.2894 166.565 95.1296C165.94 95.5549 165.325 95.949 164.73 96.3432C164.135 96.727 163.551 97.1004 162.997 97.4531C162.433 97.7954 161.9 98.1273 161.387 98.4385C160.864 98.7394 160.372 99.0298 159.911 99.2891C159.439 99.5484 158.998 99.787 158.598 100.005C158.188 100.223 157.809 100.409 157.47 100.586C157.132 100.762 156.824 100.918 156.547 101.032C156.281 101.156 156.045 101.26 155.86 101.353C155.491 101.53 155.286 101.623 155.286 101.623C155.286 101.623 155.481 101.519 155.85 101.333C156.035 101.239 156.26 101.125 156.527 100.99C156.793 100.855 157.091 100.689 157.429 100.503C157.768 100.316 158.137 100.119 158.537 99.8804C158.937 99.6418 159.357 99.3825 159.818 99.1128C160.27 98.8223 160.751 98.5215 161.254 98.2C161.756 97.868 162.279 97.5153 162.823 97.1523C163.366 96.7789 163.93 96.3847 164.504 95.9802C165.079 95.5652 165.673 95.1399 166.289 94.6939C167.509 93.8122 168.78 92.8579 170.103 91.8725C171.426 90.8974 172.8 89.8912 174.225 88.8954C175.64 87.91 177.137 86.9246 178.624 86.0117C179.003 85.7835 179.393 85.5657 179.773 85.3375L180.347 85.0056L180.921 84.684C181.311 84.4766 181.69 84.2587 182.08 84.0513C182.469 83.8542 182.859 83.6467 183.238 83.4496C183.433 83.3459 183.628 83.2525 183.813 83.1488C184.007 83.0555 184.202 82.9621 184.397 82.8584C184.787 82.6717 185.166 82.4746 185.545 82.2879C186.315 81.9248 187.073 81.5617 187.822 81.2194C188.201 81.0431 188.57 80.8771 188.94 80.7112C189.309 80.5452 189.678 80.3792 190.037 80.2133C190.754 79.8917 191.462 79.5701 192.149 79.2693C193.523 78.6573 194.825 78.0764 196.025 77.537C200.824 75.4002 204.023 73.9688 204.023 73.9688L204.884 76.0745Z" fill="#E5B764"/>
<path d="M167.518 53.9076C167.518 53.9076 167.344 54.001 167.016 54.1669C166.852 54.2499 166.657 54.3537 166.421 54.4781C166.298 54.5404 166.175 54.6026 166.042 54.6752C165.97 54.7063 165.908 54.7478 165.837 54.7893C165.765 54.8308 165.703 54.8723 165.621 54.9138C165.334 55.0798 165.016 55.2665 164.668 55.4636C164.493 55.5673 164.309 55.6606 164.124 55.7747C163.94 55.8888 163.745 56.0133 163.55 56.1378C162.75 56.6253 161.858 57.2166 160.894 57.8597C160.412 58.1917 159.92 58.5443 159.407 58.897C158.895 59.2704 158.372 59.6542 157.828 60.038C157.295 60.4426 156.741 60.8471 156.177 61.2724C155.613 61.6977 155.039 62.1334 154.455 62.5794C153.286 63.4715 152.076 64.3947 150.835 65.3282C150.22 65.795 149.584 66.2514 148.948 66.7182C148.63 66.9568 148.313 67.1746 147.984 67.4028C147.667 67.631 147.338 67.8592 147.021 68.0874C146.692 68.3053 146.364 68.5335 146.036 68.7513L145.544 69.0832L145.042 69.4048C144.713 69.6123 144.375 69.8301 144.047 70.0375C143.719 70.245 143.38 70.4421 143.042 70.6392C142.878 70.7429 142.704 70.8363 142.54 70.94L142.293 71.0852L142.222 71.1267L142.16 71.1578L142.037 71.2304C141.699 71.4172 141.371 71.5935 141.032 71.7698C140.704 71.9462 140.376 72.1329 140.038 72.3092C139.699 72.4752 139.361 72.6412 139.033 72.8071C138.705 72.9731 138.366 73.1287 138.048 73.2947C137.72 73.4503 137.392 73.5955 137.074 73.7407C136.746 73.8859 136.428 74.0311 136.11 74.1764C135.957 74.249 135.793 74.3216 135.639 74.3838C135.485 74.4461 135.321 74.5187 135.167 74.5809C134.542 74.8402 133.937 75.0892 133.352 75.3278C132.757 75.556 132.193 75.7738 131.64 75.9916C131.096 76.2095 130.563 76.3962 130.061 76.5829C129.558 76.7696 129.086 76.9459 128.635 77.1015C127.733 77.4231 126.954 77.6928 126.308 77.9314C125.016 78.3774 124.277 78.6367 124.277 78.6367C124.277 78.6367 125.005 78.3463 126.277 77.838C126.913 77.5787 127.682 77.2675 128.563 76.9044C129.004 76.7281 129.476 76.5206 129.968 76.3236C130.46 76.1161 130.983 75.9086 131.517 75.6597C132.05 75.4211 132.614 75.1722 133.188 74.9232C133.762 74.6535 134.347 74.3838 134.962 74.0934C135.116 74.0208 135.27 73.9481 135.423 73.8755C135.577 73.8029 135.731 73.7199 135.885 73.6473C136.192 73.4917 136.5 73.3361 136.818 73.1806C137.136 73.0146 137.454 72.8694 137.772 72.693C138.089 72.5167 138.397 72.3507 138.725 72.1744C139.043 71.998 139.361 71.8217 139.689 71.6454C140.007 71.4586 140.335 71.2616 140.653 71.0645C140.981 70.8674 141.299 70.6703 141.627 70.4732L141.75 70.4006L141.812 70.3591C141.801 70.3695 141.822 70.3591 141.822 70.3591L141.832 70.3487L141.863 70.328L142.099 70.1724C142.263 70.0687 142.417 69.9649 142.581 69.8612C142.898 69.6434 143.227 69.4463 143.544 69.2181C143.862 69.0003 144.18 68.7721 144.498 68.5542L144.97 68.2223L145.441 67.8696C145.749 67.6414 146.067 67.4028 146.375 67.1746C146.682 66.936 146.99 66.6975 147.297 66.4589C147.605 66.2203 147.913 65.9817 148.22 65.7328C148.825 65.2452 149.43 64.7577 150.025 64.2702C151.214 63.2951 152.373 62.3097 153.511 61.3658C154.075 60.8886 154.639 60.4322 155.183 59.9758C155.736 59.5298 156.27 59.0837 156.793 58.6584C157.326 58.2331 157.838 57.8286 158.341 57.424C158.854 57.0299 159.346 56.6564 159.817 56.2934C160.771 55.588 161.663 54.9449 162.463 54.3952C162.668 54.2603 162.853 54.1255 163.047 54.001C163.232 53.8765 163.427 53.7624 163.601 53.6379C163.96 53.4097 164.288 53.2023 164.596 53.0052C164.668 52.9533 164.739 52.9118 164.811 52.8703C164.883 52.8288 164.944 52.7873 165.016 52.7562C165.15 52.6836 165.273 52.611 165.385 52.5384C165.611 52.4035 165.816 52.2894 165.97 52.1961C166.288 52.0094 166.452 51.916 166.452 51.916L167.518 53.9076Z" fill="#E5B764"/>
<path d="M140.623 39.148C139.208 39.7082 137.793 40.2787 136.368 40.8388L134.235 41.6686C133.517 41.9383 132.81 42.2184 132.092 42.4777L131.015 42.8823L129.939 43.2764C129.221 43.5358 128.503 43.7847 127.775 44.0337L126.688 44.3967L126.145 44.5834L125.601 44.7598L124.514 45.1125L123.417 45.4444L122.874 45.6104L122.32 45.766L121.223 46.0771L120.115 46.3676L119.562 46.5128L119.008 46.6477L117.89 46.9174L116.772 47.1663L116.209 47.2908L115.645 47.4049L114.517 47.6227L112.261 47.9961L109.995 48.297L107.718 48.5252L105.442 48.6704L104.611 48.4629L105.442 48.6496L107.718 48.4318L109.984 48.1414L112.23 47.7783L114.465 47.3323L115.573 47.0833L116.126 46.9588L116.68 46.824L117.788 46.5439L118.885 46.2431L119.439 46.0875L119.982 45.9216L121.069 45.6L122.156 45.2577L122.699 45.0813L123.243 44.8946L124.319 44.5316L125.396 44.1478L125.929 43.9611L126.462 43.764L127.529 43.3698C128.236 43.1001 128.954 42.8304 129.651 42.5503L130.708 42.125L131.764 41.6998C132.471 41.4197 133.169 41.1189 133.876 40.8284L135.978 39.9364C137.383 39.3347 138.777 38.7331 140.172 38.1211L140.623 39.148Z" fill="#E5B764"/>
<path d="M113.049 24.3249C113.049 24.3249 112.762 24.3975 112.25 24.5116C111.993 24.5738 111.686 24.6464 111.337 24.7294C111.163 24.7709 110.978 24.8124 110.773 24.8643C110.578 24.9161 110.363 24.9576 110.158 25.0199C109.737 25.1443 109.276 25.2688 108.784 25.414C108.538 25.4867 108.292 25.5593 108.035 25.6319C107.974 25.6526 107.902 25.6734 107.84 25.6837L107.748 25.7149L107.697 25.7252H107.687C107.676 25.7252 107.697 25.7252 107.687 25.7252H107.676L107.656 25.7356C107.522 25.7771 107.399 25.8186 107.266 25.8705C106.733 26.0468 106.189 26.2231 105.636 26.4098C105.082 26.5966 104.508 26.7729 103.954 26.9907C103.4 27.1982 102.847 27.4056 102.293 27.6131C102.016 27.7168 101.75 27.8206 101.483 27.9139C101.216 28.0176 100.95 28.1214 100.693 28.2251C100.17 28.4326 99.6782 28.6297 99.1963 28.8267C98.7246 29.0135 98.2734 29.1898 97.8633 29.3661C96.2124 30.0507 95.1152 30.5072 95.1152 30.5072C95.1152 30.5072 96.1919 29.9885 97.7915 29.2002C98.1914 29.0031 98.6323 28.7956 99.0938 28.5778C99.5552 28.36 100.047 28.1318 100.55 27.8932C100.806 27.7791 101.063 27.6546 101.319 27.5301C101.585 27.416 101.852 27.2915 102.119 27.1774C102.662 26.9389 103.206 26.7003 103.749 26.4513C104.293 26.2024 104.846 25.9949 105.4 25.7771C105.943 25.5593 106.477 25.3414 107 25.1443C107.133 25.0925 107.256 25.0406 107.389 24.9888L107.41 24.9784H107.42L107.44 24.968L107.492 24.9473L107.584 24.9161C107.646 24.8954 107.717 24.8746 107.779 24.8539C108.035 24.7605 108.281 24.6776 108.527 24.5946C109.02 24.4286 109.481 24.2626 109.901 24.1174C110.117 24.0344 110.322 23.9826 110.517 23.9203C110.711 23.8581 110.896 23.8062 111.07 23.7544C111.419 23.6506 111.716 23.5573 111.973 23.4847C112.475 23.3291 112.752 23.2461 112.752 23.2461L113.049 24.3249Z" fill="#E5B764"/>
<path d="M142.9 39.7487C142.9 39.7487 142.777 39.7176 142.561 39.645C142.5 39.6243 142.428 39.5931 142.356 39.5724C142.285 39.5413 142.203 39.5102 142.121 39.4687C142.038 39.4272 141.946 39.3857 141.854 39.3442C141.762 39.2923 141.669 39.2405 141.567 39.1782C141.177 38.9396 140.736 38.5766 140.316 38.0994C139.895 37.6223 139.506 37.0103 139.208 36.2945C139.167 36.2012 139.137 36.1182 139.096 36.0248C139.065 35.9315 139.034 35.8381 138.993 35.7448L138.983 35.724L138.973 35.6929L138.962 35.6618L138.942 35.5892L138.901 35.444C138.87 35.3506 138.85 35.2469 138.819 35.1535C138.788 35.0602 138.767 34.9564 138.747 34.8527C138.726 34.749 138.706 34.6453 138.685 34.5311C138.634 34.3133 138.624 34.1059 138.593 33.888C138.501 33.0167 138.501 32.0935 138.562 31.1496C138.573 31.0355 138.583 30.911 138.583 30.7969C138.593 30.6828 138.603 30.5583 138.614 30.4442C138.624 30.3301 138.634 30.2056 138.644 30.0812C138.655 29.9567 138.675 29.8426 138.685 29.7181C138.747 29.2409 138.788 28.7534 138.86 28.2659C138.932 27.7784 139.003 27.2805 139.075 26.7929C139.167 26.3054 139.249 25.8075 139.342 25.32C139.444 24.8324 139.547 24.3449 139.649 23.8574C139.762 23.3699 139.885 22.8927 139.998 22.4155C140.244 21.4612 140.5 20.5277 140.788 19.6356C140.859 19.4074 140.921 19.1896 140.993 18.9717C141.064 18.7539 141.136 18.5361 141.218 18.3286C141.362 17.9033 141.505 17.4884 141.649 17.0839C141.946 16.2748 142.233 15.5175 142.469 14.8122C142.715 14.1068 142.91 13.4533 143.054 12.8621C143.197 12.2708 143.289 11.7522 143.341 11.3165C143.361 11.0987 143.392 10.9016 143.392 10.7356C143.402 10.5696 143.413 10.4244 143.413 10.3103C143.413 10.0717 143.413 9.94727 143.413 9.94727C143.413 9.94727 143.413 10.0717 143.413 10.3103C143.413 10.4244 143.413 10.5696 143.402 10.746C143.402 10.9119 143.382 11.109 143.361 11.3269C143.32 11.7625 143.238 12.2916 143.105 12.8828C142.972 13.4741 142.787 14.1379 142.561 14.8537C142.336 15.5694 142.059 16.3266 141.782 17.1357C141.639 17.5403 141.516 17.9552 141.372 18.3908C141.3 18.6087 141.239 18.8161 141.167 19.034C141.095 19.2518 141.044 19.48 140.972 19.6978C140.705 20.5899 140.47 21.5235 140.244 22.4778C140.142 22.9549 140.029 23.4321 139.926 23.9196C139.834 24.4071 139.742 24.8947 139.649 25.3822C139.578 25.8697 139.496 26.3676 139.424 26.8552C139.362 27.3427 139.301 27.8302 139.239 28.3178C139.178 28.8053 139.147 29.2928 139.096 29.77C139.085 29.8841 139.075 30.0085 139.065 30.1226C139.055 30.2367 139.044 30.3612 139.044 30.4753C139.034 30.5894 139.024 30.7139 139.024 30.828C139.014 30.9421 139.014 31.0562 139.003 31.1807C138.962 32.1039 138.973 32.9959 139.085 33.8258C139.116 34.0332 139.137 34.2407 139.188 34.4274C139.208 34.5208 139.229 34.6245 139.249 34.7179C139.27 34.8112 139.29 34.9046 139.321 35.0083C139.372 35.195 139.434 35.3817 139.485 35.5684C139.516 35.6514 139.547 35.7448 139.578 35.8278C139.608 35.9108 139.649 35.9937 139.68 36.0767C139.967 36.7302 140.336 37.28 140.726 37.7053C141.105 38.1306 141.505 38.4417 141.854 38.6388C141.946 38.6907 142.028 38.7322 142.1 38.7737C142.182 38.8152 142.254 38.8463 142.326 38.8774C142.397 38.9085 142.459 38.9293 142.52 38.95C142.582 38.9708 142.633 38.9915 142.684 39.0123C142.91 39.0745 143.023 39.1056 143.023 39.1056L142.9 39.7487Z" fill="#E5B764"/>
<path d="M195.779 96.9455C195.779 96.9455 195.656 97.0389 195.43 97.2048C195.369 97.2463 195.307 97.2878 195.246 97.3397C195.215 97.3604 195.174 97.3915 195.133 97.4227C195.102 97.4538 195.061 97.4849 195.02 97.516C194.866 97.6405 194.692 97.7753 194.497 97.9413C194.302 98.1177 194.087 98.294 193.861 98.5118C193.636 98.7297 193.39 98.9579 193.144 99.2172C192.641 99.7255 192.108 100.348 191.564 101.053C191.021 101.759 190.478 102.557 189.955 103.429C189.421 104.3 188.919 105.265 188.437 106.271C188.324 106.53 188.191 106.779 188.088 107.038C187.976 107.298 187.863 107.567 187.74 107.837C187.627 108.107 187.504 108.366 187.391 108.646C187.278 108.916 187.176 109.186 187.063 109.466C186.95 109.735 186.837 110.015 186.735 110.296C186.632 110.576 186.53 110.856 186.427 111.136C186.325 111.416 186.222 111.696 186.12 111.976C186.027 112.256 185.925 112.546 185.833 112.826C185.74 113.107 185.638 113.397 185.545 113.677C185.463 113.968 185.371 114.248 185.289 114.538C185.207 114.828 185.115 115.109 185.033 115.399C184.961 115.689 184.879 115.97 184.807 116.26C184.735 116.55 184.653 116.83 184.582 117.111C184.51 117.391 184.448 117.681 184.387 117.961C184.325 118.241 184.253 118.521 184.192 118.801C184.13 119.081 184.079 119.361 184.028 119.642C183.925 120.202 183.813 120.741 183.71 121.28C183.659 121.55 183.587 121.809 183.525 122.069C183.454 122.328 183.382 122.577 183.31 122.826C183.002 123.822 182.633 124.735 182.244 125.554C181.854 126.374 181.464 127.1 181.095 127.743C180.726 128.376 180.388 128.925 180.111 129.371C179.834 129.817 179.608 130.16 179.455 130.398C179.301 130.637 179.219 130.761 179.219 130.761C179.219 130.761 179.301 130.637 179.444 130.398C179.598 130.16 179.813 129.807 180.08 129.361C180.357 128.915 180.675 128.355 181.034 127.722C181.393 127.079 181.772 126.342 182.131 125.523C182.5 124.704 182.849 123.791 183.136 122.795C183.208 122.546 183.269 122.297 183.331 122.038C183.382 121.778 183.443 121.519 183.495 121.249C183.587 120.71 183.679 120.16 183.771 119.61C183.823 119.33 183.864 119.05 183.915 118.77C183.977 118.49 184.028 118.2 184.089 117.92C184.151 117.629 184.202 117.349 184.274 117.059C184.346 116.768 184.417 116.488 184.489 116.198C184.561 115.907 184.633 115.617 184.705 115.326C184.787 115.036 184.869 114.745 184.951 114.455C185.033 114.165 185.115 113.874 185.197 113.584C185.289 113.293 185.381 113.003 185.463 112.723C185.556 112.432 185.648 112.142 185.73 111.862C185.833 111.571 185.925 111.291 186.027 111.011C186.13 110.731 186.222 110.441 186.325 110.161C186.427 109.881 186.54 109.601 186.643 109.32C186.745 109.04 186.858 108.76 186.96 108.491C187.063 108.211 187.186 107.951 187.289 107.682C187.401 107.412 187.514 107.142 187.617 106.883C187.729 106.613 187.842 106.354 187.955 106.094C188.417 105.057 188.919 104.072 189.442 103.169C189.965 102.267 190.508 101.437 191.052 100.701C191.595 99.964 192.128 99.3105 192.641 98.7711C192.887 98.4911 193.144 98.2525 193.369 98.0243C193.595 97.7961 193.82 97.599 194.015 97.4227C194.22 97.2463 194.405 97.0907 194.569 96.9559C194.61 96.9248 194.651 96.8937 194.682 96.8625C194.723 96.8314 194.753 96.8107 194.784 96.7795C194.856 96.7277 194.918 96.6758 194.969 96.6343C195.194 96.4684 195.307 96.375 195.307 96.375L195.779 96.9455Z" fill="#E5B764"/>
<path d="M167.601 115.949C167.601 115.949 163.838 122.018 160.075 128.086C159.603 128.843 159.131 129.6 158.67 130.347C158.209 131.094 157.757 131.83 157.306 132.536C156.845 133.241 156.373 133.905 155.881 134.496C155.389 135.088 154.886 135.617 154.363 136.042C154.107 136.26 153.851 136.446 153.584 136.612C153.328 136.778 153.071 136.913 152.825 137.027C152.333 137.255 151.861 137.37 151.482 137.421C151.092 137.473 150.785 137.453 150.58 137.442C150.375 137.421 150.262 137.411 150.262 137.411C150.262 137.411 150.375 137.421 150.58 137.442C150.785 137.453 151.092 137.453 151.472 137.39C151.851 137.328 152.312 137.204 152.794 136.965C153.041 136.851 153.287 136.706 153.533 136.54C153.779 136.374 154.035 136.177 154.281 135.959C154.784 135.523 155.266 134.994 155.737 134.393C156.209 133.791 156.66 133.127 157.091 132.411C157.521 131.696 157.952 130.949 158.393 130.192C158.834 129.434 159.285 128.656 159.736 127.889C163.335 121.717 166.935 115.545 166.935 115.545L167.601 115.949Z" fill="#E5B764"/>
<path d="M158.065 78.0884C158.065 78.0884 158.014 78.1299 157.911 78.2025C157.809 78.2752 157.655 78.3893 157.47 78.5241C157.111 78.8042 156.578 79.2502 155.963 79.8933C155.348 80.5261 154.661 81.3663 153.943 82.3828C153.594 82.9015 153.225 83.4513 152.866 84.0633C152.507 84.6649 152.138 85.308 151.769 85.9926C151.031 87.3619 150.272 88.8556 149.472 90.453C148.672 92.0504 147.842 93.7412 146.929 95.4631C146.017 97.185 145.022 98.9484 143.884 100.66C142.746 102.372 141.474 104.031 140.018 105.525C138.572 107.029 136.942 108.346 135.219 109.446C135.004 109.581 134.789 109.726 134.573 109.85C134.358 109.975 134.132 110.11 133.917 110.234C133.691 110.359 133.476 110.473 133.251 110.597C133.025 110.722 132.799 110.825 132.584 110.94C131.692 111.386 130.779 111.769 129.877 112.122C128.964 112.464 128.062 112.755 127.17 113.014C126.278 113.273 125.386 113.481 124.524 113.678C123.653 113.865 122.812 114.01 121.981 114.145C121.161 114.269 120.361 114.373 119.592 114.456C118.054 114.622 116.639 114.705 115.388 114.746C114.137 114.788 113.04 114.798 112.138 114.798C111.235 114.798 110.528 114.778 110.046 114.767C109.564 114.757 109.308 114.746 109.308 114.746C109.308 114.746 109.564 114.746 110.046 114.757C110.528 114.767 111.235 114.767 112.138 114.767C113.04 114.757 114.127 114.736 115.378 114.674C116.629 114.612 118.044 114.508 119.572 114.332C120.341 114.249 121.13 114.124 121.951 114C122.771 113.854 123.612 113.699 124.473 113.502C125.335 113.305 126.216 113.087 127.098 112.817C127.98 112.547 128.882 112.247 129.774 111.894C130.667 111.541 131.559 111.137 132.451 110.691C132.666 110.577 132.892 110.462 133.107 110.348C133.322 110.224 133.538 110.11 133.763 109.985C133.979 109.861 134.194 109.726 134.409 109.601C134.625 109.477 134.83 109.332 135.045 109.197C136.737 108.087 138.326 106.77 139.731 105.266C141.146 103.772 142.387 102.123 143.484 100.411C144.581 98.6995 145.555 96.9465 146.437 95.2245C147.319 93.4923 148.139 91.8015 148.919 90.1937C149.698 88.5859 150.446 87.0714 151.174 85.6814C151.544 84.9864 151.902 84.333 152.261 83.7106C152.62 83.0882 152.989 82.5177 153.338 81.9783C154.056 80.9203 154.763 80.0385 155.399 79.3643C156.035 78.6901 156.588 78.2129 156.988 77.8914C157.183 77.7358 157.327 77.632 157.429 77.5594C157.532 77.4868 157.583 77.4453 157.583 77.4453L158.065 78.0884Z" fill="#E5B764"/>
<path d="M116.168 97.62C116.168 97.62 116.148 97.6304 116.106 97.6512C116.086 97.6615 116.065 97.6719 116.035 97.6823C116.004 97.6926 115.983 97.7134 115.922 97.7238C115.707 97.8067 115.45 97.8586 115.132 97.9001C115.061 97.9105 114.979 97.9208 114.897 97.9312C114.814 97.9416 114.732 97.952 114.65 97.9727C114.609 97.9831 114.568 97.9831 114.527 97.9935C114.486 98.0038 114.445 98.0142 114.415 98.0142C114.322 98.0453 114.22 98.0764 114.117 98.1076C113.912 98.1698 113.697 98.232 113.461 98.3046C113.235 98.3773 113.01 98.4706 112.774 98.5536C112.661 98.5951 112.538 98.6366 112.415 98.6885C112.292 98.7507 112.169 98.8025 112.036 98.8648C111.913 98.927 111.769 98.9789 111.646 99.0515C111.523 99.1241 111.4 99.1864 111.267 99.259C111.01 99.3938 110.754 99.5598 110.487 99.7257C110.221 99.8917 109.954 100.068 109.677 100.244C109.144 100.618 108.59 101.012 108.026 101.406C107.462 101.8 106.888 102.215 106.314 102.62C106.027 102.827 105.74 103.024 105.463 103.232L105.36 103.304L105.248 103.377L105.032 103.522C104.889 103.616 104.745 103.709 104.591 103.802C103.997 104.176 103.412 104.518 102.807 104.808C102.212 105.099 101.628 105.358 101.054 105.545C100.767 105.649 100.479 105.721 100.213 105.804C100.069 105.835 99.936 105.867 99.8027 105.898C99.731 105.908 99.6694 105.929 99.6079 105.939C99.5464 105.95 99.4746 105.96 99.4131 105.97C99.2798 105.991 99.1567 106.012 99.0337 106.032C98.9106 106.053 98.7876 106.053 98.6646 106.074C98.5415 106.084 98.4287 106.105 98.3159 106.105C98.2031 106.105 98.0903 106.105 97.9878 106.115C97.7725 106.126 97.5776 106.105 97.3931 106.095C97.3008 106.084 97.2085 106.084 97.1265 106.074C97.0444 106.064 96.9624 106.053 96.8906 106.043C96.7368 106.022 96.6035 106.012 96.4907 105.981C96.3779 105.95 96.2754 105.929 96.1934 105.908C96.0293 105.867 95.9473 105.856 95.9473 105.856C95.9473 105.856 96.0293 105.877 96.1934 105.908C96.2754 105.929 96.3779 105.939 96.4907 105.97C96.6035 105.991 96.7471 106.001 96.8906 106.022C96.9624 106.032 97.0444 106.043 97.1265 106.043C97.2085 106.053 97.3008 106.053 97.3931 106.053C97.5776 106.053 97.7725 106.064 97.9878 106.053C98.0903 106.043 98.2031 106.043 98.3159 106.032C98.4287 106.022 98.5415 106.001 98.6646 105.991C98.7773 105.97 98.9004 105.96 99.0234 105.939C99.1465 105.918 99.2695 105.887 99.4028 105.867C99.4644 105.856 99.5361 105.835 99.5977 105.825C99.6592 105.804 99.731 105.794 99.7925 105.773C99.9258 105.742 100.059 105.701 100.192 105.669C100.459 105.576 100.736 105.503 101.013 105.389C101.577 105.182 102.141 104.912 102.715 104.601C103.289 104.29 103.863 103.937 104.438 103.553C104.581 103.46 104.725 103.356 104.858 103.263L105.073 103.107L105.176 103.035L105.278 102.952C105.555 102.734 105.832 102.526 106.109 102.309C106.663 101.883 107.216 101.448 107.77 101.033C108.324 100.618 108.867 100.203 109.39 99.7984C109.667 99.6116 109.923 99.4145 110.19 99.2382C110.457 99.0619 110.713 98.8855 110.99 98.7299C111.123 98.647 111.256 98.5743 111.39 98.4914C111.523 98.4188 111.646 98.3565 111.779 98.2943C111.902 98.232 112.025 98.1698 112.148 98.1076C112.282 98.0557 112.415 97.9935 112.548 97.9416C112.794 97.8379 113.041 97.7341 113.266 97.6512C113.492 97.5785 113.707 97.5059 113.912 97.4333C114.015 97.4022 114.107 97.3711 114.21 97.3296L114.23 97.3192H114.24L114.261 97.3088L114.302 97.2985C114.333 97.2881 114.353 97.2881 114.384 97.2777C114.435 97.2674 114.486 97.2466 114.538 97.2466C114.64 97.2259 114.732 97.2051 114.814 97.1947C114.897 97.1844 114.979 97.1636 115.05 97.1533C115.337 97.1014 115.553 97.0495 115.645 97.008C115.666 97.008 115.707 96.9769 115.737 96.9665C115.768 96.9562 115.789 96.9458 115.809 96.9354C115.85 96.9147 115.871 96.9043 115.871 96.9043L116.168 97.62Z" fill="#E5B764"/>
<path d="M111.071 66.168C111.071 66.168 111.03 66.1992 110.938 66.2614C110.897 66.2925 110.846 66.334 110.784 66.3755C110.723 66.417 110.641 66.4689 110.559 66.5311C110.384 66.6452 110.179 66.7697 109.923 66.9149C109.851 66.946 109.79 66.9771 109.718 67.0186C109.687 67.0394 109.646 67.0497 109.605 67.0705C109.574 67.0809 109.543 67.1016 109.513 67.112C109.369 67.1742 109.226 67.2365 109.092 67.3091C108.815 67.4439 108.508 67.6306 108.21 67.8381C107.903 68.0455 107.595 68.2945 107.288 68.5538C106.662 69.0932 106.057 69.7363 105.462 70.3898C105.165 70.7218 104.868 71.0537 104.591 71.396C104.314 71.7279 104.058 72.0806 103.801 72.4126C103.545 72.7445 103.289 73.066 103.032 73.3565C102.909 73.5017 102.766 73.6366 102.643 73.761C102.509 73.8855 102.376 74.01 102.243 74.1033C102.171 74.1552 102.109 74.2071 102.048 74.2589C101.976 74.3004 101.915 74.3419 101.853 74.3834C101.73 74.4768 101.597 74.5286 101.474 74.5909C101.228 74.705 101.002 74.8087 100.817 74.8606C100.633 74.9228 100.479 74.9539 100.376 74.9747C100.274 74.9954 100.223 74.9954 100.223 74.9954C100.223 74.9954 100.274 74.9643 100.376 74.9436C100.479 74.9228 100.623 74.8917 100.807 74.8191C100.992 74.7672 101.207 74.6635 101.443 74.539C101.556 74.4664 101.689 74.4042 101.802 74.3108C101.863 74.2693 101.925 74.2174 101.986 74.176C102.048 74.1241 102.109 74.0722 102.171 74.0204C102.304 73.9166 102.417 73.7818 102.54 73.6573C102.653 73.5225 102.786 73.3876 102.899 73.2424C103.135 72.9519 103.371 72.62 103.606 72.2777C103.842 71.9354 104.078 71.5723 104.345 71.2093C104.601 70.8462 104.888 70.4936 105.165 70.1513C105.729 69.4563 106.313 68.7613 106.929 68.17C107.236 67.8796 107.544 67.5995 107.862 67.3609C108.18 67.1224 108.487 66.9045 108.795 66.7386C108.949 66.6452 109.092 66.5726 109.226 66.5103C109.267 66.4896 109.297 66.4689 109.338 66.4585C109.369 66.4377 109.4 66.4274 109.42 66.4066C109.482 66.3755 109.533 66.3444 109.584 66.3133C109.8 66.1784 109.984 66.0539 110.128 65.9398C110.2 65.888 110.261 65.8361 110.323 65.7946C110.384 65.7428 110.436 65.7013 110.477 65.6701C110.559 65.6079 110.6 65.5664 110.6 65.5664L111.071 66.168Z" fill="#E5B764"/>
<path d="M94.2642 66.117C94.2642 66.117 94.0283 66.2726 93.6284 66.5423C93.5259 66.6045 93.4131 66.6875 93.2901 66.7601C93.1568 66.8327 93.0235 66.9157 92.8697 67.0091C92.7159 67.1024 92.562 67.1958 92.3877 67.2891C92.2134 67.3825 92.0391 67.4759 91.8443 67.5692C91.6494 67.6626 91.4649 67.7663 91.2495 67.8596C91.0445 67.953 90.8189 68.0464 90.6035 68.1397C90.4907 68.1916 90.378 68.2435 90.2652 68.2849C90.1524 68.3264 90.0293 68.3679 89.9063 68.4198C89.6704 68.5028 89.4243 68.6065 89.1782 68.6895C88.6758 68.8451 88.1529 69.0214 87.6196 69.1355C87.0864 69.2807 86.5327 69.3741 85.979 69.4778C85.4253 69.5504 84.8716 69.6334 84.3179 69.6645C83.7642 69.7164 83.231 69.7164 82.708 69.7268C82.4414 69.7268 82.1851 69.706 81.939 69.706C81.8159 69.706 81.6929 69.6957 81.5698 69.6957C81.4468 69.6853 81.3237 69.6749 81.2109 69.6645C80.9751 69.6438 80.7393 69.623 80.5137 69.6023C80.2881 69.5816 80.0728 69.5401 79.8677 69.5089C79.6626 69.4778 79.4678 69.4467 79.2729 69.4156C79.0884 69.3741 78.9141 69.3326 78.7397 69.3015C78.5757 69.2704 78.4219 69.2289 78.2783 69.1978C78.1348 69.1666 78.0117 69.1251 77.8887 69.094C77.417 68.9592 77.1504 68.8866 77.1504 68.8866C77.1504 68.8866 77.417 68.9488 77.8989 69.0629C78.022 69.094 78.145 69.1251 78.2886 69.1459C78.4321 69.1666 78.5859 69.1978 78.7603 69.2289C78.9243 69.26 79.1089 69.2911 79.2935 69.3222C79.478 69.343 79.6831 69.3637 79.8882 69.3845C80.0933 69.4052 80.3086 69.4363 80.5342 69.4467C80.7598 69.4571 80.9854 69.4675 81.2212 69.4778C81.3442 69.4778 81.457 69.4882 81.5801 69.4986C81.7031 69.4986 81.8262 69.4986 81.9492 69.4986C82.1953 69.4986 82.4517 69.4986 82.708 69.4882C83.2207 69.4571 83.7539 69.4363 84.2974 69.3534C84.8408 69.3015 85.374 69.1874 85.9175 69.094C86.4507 68.9592 86.9942 68.8554 87.5069 68.6895C88.0298 68.5443 88.522 68.3576 89.0142 68.1812C89.25 68.0879 89.4859 67.9841 89.7115 67.8908C89.8242 67.8389 89.937 67.7974 90.0498 67.7455C90.1626 67.6937 90.2652 67.6418 90.3677 67.5899C90.583 67.4862 90.7881 67.3825 90.9829 67.2891C91.1778 67.1854 91.3623 67.0817 91.5469 66.9779C91.7212 66.8742 91.8955 66.7809 92.0596 66.6875C92.2134 66.5838 92.3672 66.4904 92.5005 66.3971C92.6338 66.3037 92.7671 66.2207 92.8902 66.1481C93.0132 66.0651 93.1158 65.9821 93.2183 65.9095C93.6079 65.6191 93.8335 65.4531 93.8335 65.4531L94.2642 66.117Z" fill="#E5B764"/>
<path d="M101.206 38.7218C101.206 38.7218 100.775 38.9189 100.027 39.2715C99.6578 39.4479 99.2169 39.6761 98.6939 39.9354C98.4376 40.0703 98.1709 40.2155 97.8838 40.3711C97.7403 40.4437 97.5967 40.5267 97.4429 40.6096C97.2994 40.6926 97.1456 40.7756 96.9918 40.869C96.6841 41.0453 96.3663 41.2217 96.0381 41.4187C95.71 41.6158 95.3716 41.8233 95.0332 42.0307C94.6949 42.2486 94.3462 42.4768 93.9873 42.705C93.6285 42.9332 93.2798 43.1925 92.9107 43.4415C92.1827 43.9497 91.4444 44.4891 90.7061 45.0596C89.9678 45.6302 89.2193 46.2214 88.4605 46.7816C87.6914 47.3521 86.9121 47.8915 86.1021 48.3686C85.897 48.4827 85.6919 48.5968 85.4971 48.7109C85.292 48.8146 85.0869 48.9184 84.8819 49.0221C84.4717 49.2192 84.0513 49.4059 83.6411 49.5719C82.8106 49.9038 81.9903 50.1631 81.2007 50.3498C80.4111 50.5366 79.6524 50.6714 78.9448 50.7544C78.2373 50.8374 77.5913 50.8789 77.0171 50.8789C76.8735 50.8789 76.73 50.8789 76.5967 50.8789C76.4634 50.8789 76.3301 50.8685 76.207 50.8685C75.9609 50.8581 75.7251 50.8581 75.52 50.8374C75.3149 50.8166 75.1304 50.8063 74.9663 50.7959C74.8022 50.7751 74.6689 50.7648 74.5562 50.744C74.3408 50.7129 74.2178 50.7025 74.2178 50.7025C74.2178 50.7025 74.3306 50.7129 74.5562 50.7336C74.6689 50.744 74.8022 50.7544 74.9663 50.7751C75.1304 50.7855 75.3149 50.7959 75.52 50.8063C75.7251 50.827 75.9507 50.827 76.207 50.827C76.3301 50.827 76.4634 50.8374 76.5967 50.827C76.73 50.827 76.8735 50.8166 77.0171 50.8166C77.5913 50.8063 78.2373 50.744 78.9346 50.6507C79.6318 50.5573 80.3906 50.4017 81.1699 50.2046C81.9492 49.9972 82.7593 49.7275 83.5796 49.3852C83.9898 49.2192 84.3897 49.0221 84.7998 48.825C85.0049 48.7213 85.1997 48.6176 85.4048 48.5035C85.5996 48.3894 85.8047 48.2753 86.0098 48.1508C86.7993 47.6633 87.5684 47.1135 88.3169 46.543C89.0655 45.9725 89.7935 45.3708 90.5318 44.7796C91.2598 44.1987 91.9981 43.6385 92.7159 43.1095C93.085 42.8502 93.4336 42.5909 93.7925 42.3523C94.1514 42.1137 94.5 41.8751 94.8384 41.6469C95.1871 41.4291 95.5152 41.2113 95.8433 41.0038C96.1714 40.7964 96.4893 40.6096 96.7969 40.4333C96.9507 40.34 97.1045 40.257 97.2481 40.1636C97.4019 40.0806 97.5455 39.9976 97.689 39.9147C97.9761 39.7591 98.2427 39.6035 98.4991 39.4686C99.0118 39.1989 99.4629 38.9604 99.8321 38.7736C100.581 38.4106 101.001 38.2031 101.001 38.2031L101.206 38.7218Z" fill="#E5B764"/>
<path d="M75.6441 16.8974L65.4619 19.3143L75.5005 16.3477L75.6441 16.8974Z" fill="#E5B764"/>
</g>
</g>
</svg>
