<svg width="17" height="16" viewBox="0 0 17 16" fill="none" xmlns="http://www.w3.org/2000/svg">
<path d="M4.52941 7.17647V14.2353C4.52941 14.4693 4.43645 14.6937 4.27098 14.8592C4.1055 15.0247 3.88107 15.1176 3.64706 15.1176H1.88235C1.64834 15.1176 1.42391 15.0247 1.25844 14.8592C1.09296 14.6937 1 14.4693 1 14.2353V8.05882C1 7.82481 1.09296 7.60038 1.25844 7.43491C1.42391 7.26943 1.64834 7.17647 1.88235 7.17647H4.52941ZM4.52941 7.17647C5.46547 7.17647 6.36319 6.80462 7.02508 6.14273C7.68698 5.48084 8.05882 4.58312 8.05882 3.64706V2.76471C8.05882 2.29668 8.24475 1.84782 8.57569 1.51687C8.90664 1.18592 9.3555 1 9.82353 1C10.2916 1 10.7404 1.18592 11.0714 1.51687C11.4023 1.84782 11.5882 2.29668 11.5882 2.76471V7.17647H14.2353C14.7033 7.17647 15.1522 7.36239 15.4831 7.69334C15.8141 8.02429 16 8.47315 16 8.94118L15.1176 13.3529C14.9908 13.8942 14.75 14.359 14.4318 14.6773C14.1135 14.9956 13.7349 15.1501 13.3529 15.1176H7.17647C6.47443 15.1176 5.80114 14.8388 5.30472 14.3423C4.8083 13.8459 4.52941 13.1726 4.52941 12.4706" stroke="#7D7C83" stroke-width="1.75" stroke-miterlimit="10" stroke-linecap="round" stroke-linejoin="round"/>
</svg>
