<svg width="56" height="72" viewBox="0 0 56 72" fill="none" xmlns="http://www.w3.org/2000/svg">
<path d="M2.92676 28.337C2.92676 12.7648 15.6851 3.25 28.0137 3.25C40.3423 3.25 53.1007 12.7648 53.1007 28.337C53.1007 31.8302 51.7626 36.017 49.5187 40.5047C47.2958 44.9505 44.2952 49.4746 41.2227 53.5839C35.0785 61.8013 28.8111 68.1432 28.3916 68.5627C28.2635 68.6908 28.1999 68.7285 28.1869 68.7352C28.1898 68.7341 28.1872 68.7358 28.1719 68.7388C28.153 68.7425 28.1043 68.75 28.0137 68.75C27.9231 68.75 27.8744 68.7425 27.8555 68.7388C27.8402 68.7358 27.8377 68.7341 27.8405 68.7352C27.8275 68.7285 27.7639 68.6908 27.6358 68.5627C27.2164 68.1432 20.949 61.8013 14.8048 53.5839C11.7322 49.4746 8.73161 44.9505 6.50872 40.5047C4.26487 36.017 2.92676 31.8302 2.92676 28.337ZM16.3181 28.337C16.3181 34.9285 21.4221 40.0326 28.0137 40.0326C34.6053 40.0326 39.7094 34.9285 39.7094 28.337C39.7094 21.7454 34.6053 16.6413 28.0137 16.6413C21.4221 16.6413 16.3181 21.7454 16.3181 28.337Z" stroke="white" stroke-width="5"/>
</svg>
