<svg width="41" height="44" viewBox="0 0 41 44" fill="none" xmlns="http://www.w3.org/2000/svg">
<path d="M21.4686 34.1811L20.681 33.7099C21.1273 33.9717 24.4353 35.7519 29.2661 33.9193C34.4644 31.9558 34.5694 26.1439 33.5717 23.5521C32.6003 20.9603 32.5216 20.3843 32.5216 19.3109C32.5216 18.2375 31.7339 16.6406 31.1564 16.0646C30.5788 15.4886 29.1348 14.5462 29.1348 13.3942C29.1348 12.2423 26.9557 9.83378 25.8793 9.4149C24.8029 8.99602 21.3373 6.90162 20.6022 2.29395C19.8671 6.90162 16.4278 8.96984 15.3252 9.4149C14.275 9.85995 12.1222 12.2423 12.1222 13.3942C12.1222 14.5462 10.6782 15.4886 10.1006 16.0646C9.52302 16.6406 8.7354 18.2375 8.7354 19.3109C8.7354 20.3843 8.65664 20.9603 7.68524 23.5521C6.71384 26.1439 6.81886 31.9297 11.9909 33.9193C16.8216 35.7519 20.1559 33.9717 20.576 33.7099L19.7884 34.1811" fill="#A46A14"/>
<path d="M21.9936 34.7314C23.2013 35.1765 24.5403 35.2812 25.8005 35.2288C27.6908 35.1503 29.6073 34.6005 31.1825 33.5271C34.2543 31.4065 35.3044 27.5843 34.438 24.0762C34.2018 23.0813 33.7292 22.165 33.4404 21.1964C33.1516 20.2277 33.2304 19.1805 32.9678 18.2118C32.7053 17.2955 32.2327 16.4316 31.6026 15.7247C30.9463 14.9917 30.1586 14.5205 29.8173 13.5518C29.5548 12.7141 29.2923 11.981 28.7147 11.3003C28.2158 10.6982 27.5857 10.2008 26.9294 9.72954C25.4854 8.70852 23.8839 7.84458 22.8338 6.35232C20.2871 2.7133 20.891 4.35095 20.7859 0.188334C20.7859 0.083614 20.6809 0.00507406 20.5759 0.00507406C20.5234 -0.0211059 20.4446 0.057434 20.4446 0.162154C20.3396 4.35095 20.9435 2.68712 18.3968 6.32614C17.3729 7.8184 15.7714 8.65616 14.3012 9.70335C13.6711 10.1484 13.0147 10.6458 12.5159 11.2742C11.9646 11.9548 11.702 12.6879 11.4132 13.5256C11.0982 14.4943 10.3106 14.9917 9.62797 15.6986C8.97162 16.4054 8.49905 17.2694 8.26276 18.1857C8.00022 19.1543 8.07899 20.2015 7.79019 21.1702C7.5014 22.1388 7.02882 23.0551 6.79254 24.05C5.92615 27.5843 6.97632 31.4065 10.048 33.5009C11.6233 34.6005 13.5398 35.1241 15.4301 35.2026C16.7166 35.255 18.0555 35.1503 19.237 34.7052L21.9936 34.7314ZM20.9697 35.8048C20.8647 35.831 20.7597 35.8571 20.6284 35.831C20.4971 35.8048 20.4184 35.7786 20.3134 35.7262V35.543C20.3659 35.5692 20.4184 35.5692 20.4446 35.5953C20.6022 35.6477 20.7859 35.6477 20.9697 35.6477V35.8048ZM20.3134 38.9725C20.5234 39.0511 20.7597 39.1034 20.9697 39.0773C20.9697 39.1558 20.9697 39.2343 20.9697 39.3129C20.7597 39.3914 20.5234 39.4176 20.2871 39.3652C20.2871 39.2343 20.3134 39.1034 20.3134 38.9725ZM20.9697 38.5013C20.7597 38.5537 20.5234 38.5275 20.3134 38.4489V38.0301C20.5234 38.1086 20.7597 38.161 20.9697 38.1086V38.5013ZM20.3134 36.9567C20.5234 37.0876 20.7334 37.1399 20.9697 37.1138C20.7334 37.1661 20.5234 37.1399 20.3134 37.0352V36.9567ZM20.9697 36.9567C20.7334 36.9829 20.5234 36.9305 20.3134 36.7996V36.4855C20.5234 36.564 20.7597 36.5902 20.9697 36.5902V36.9567ZM20.9697 38.6846V38.8678C20.7597 38.894 20.5234 38.894 20.3134 38.8416V38.606C20.5234 38.6846 20.7334 38.7107 20.9697 38.6846ZM20.2871 39.4961C20.4971 39.5485 20.7334 39.5485 20.9697 39.4961C20.9697 39.6009 20.9697 39.7318 20.9697 39.8365C20.7334 39.8626 20.5234 39.8627 20.2871 39.8103C20.2871 39.7318 20.2871 39.6009 20.2871 39.4961ZM20.9697 37.873C20.7597 37.9253 20.5234 37.9515 20.3134 37.873V37.4541C20.5234 37.5588 20.7334 37.585 20.9697 37.585V37.873ZM20.3134 37.297V37.1923C20.5234 37.297 20.7597 37.3494 20.9697 37.3232V37.4017C20.7334 37.4279 20.5234 37.4017 20.3134 37.297ZM20.9697 36.4331C20.7597 36.4593 20.5234 36.4593 20.3134 36.3807V36.1975C20.3921 36.2237 20.4709 36.2236 20.5234 36.2236C20.6809 36.2498 20.8122 36.2498 20.9697 36.2236V36.4331ZM20.9697 35.4644C20.891 35.4644 20.8122 35.4644 20.7334 35.4644C20.6284 35.4644 20.4709 35.4383 20.3134 35.3859V35.1241C20.3134 35.1241 20.3134 35.1241 20.3396 35.1241C20.5497 35.1765 20.7597 35.2026 20.9697 35.1503V35.4644ZM20.9697 35.0456C20.7597 35.0717 20.4971 35.0979 20.3134 35.0194V34.679C20.5234 34.7576 20.7597 34.7838 20.9697 34.7576V35.0456ZM20.7334 36.0928C20.6547 36.0928 20.4709 36.0928 20.3134 36.0666V35.8571C20.4971 35.9618 20.7597 35.988 20.9697 35.9357V36.0404C20.891 36.0927 20.8122 36.0928 20.7334 36.0928ZM20.9697 34.6005C20.7597 34.6267 20.5234 34.6005 20.3134 34.5481V34.4696C20.3396 34.4696 20.3396 34.4696 20.3659 34.4958C20.5497 34.5481 20.7859 34.522 20.9697 34.4696V34.6005ZM25.6692 10.1484C26.3255 10.5935 26.9819 11.0124 27.5332 11.5883C28.1371 12.1905 28.4521 12.845 28.7147 13.6565C28.7147 13.6827 28.7147 13.6827 28.7409 13.7089C28.3209 16.3531 27.5857 18.9449 26.2993 21.3011C24.9341 23.762 23.07 25.647 20.8122 27.2439C20.8122 26.8774 20.8122 26.4847 20.8122 26.1182C20.8122 25.2281 20.8122 24.338 20.8122 23.4478C21.6261 22.8195 22.1774 21.9032 22.7025 21.0393C23.3326 19.9397 23.8577 18.7878 24.304 17.6097C25.1704 15.175 25.5904 12.6093 25.5379 10.0175C25.5379 10.0699 25.5904 10.0961 25.6692 10.1484ZM25.3279 9.91279C25.3541 14.5466 24.0414 19.835 20.7597 23.2908C20.7597 21.5629 20.7597 19.8612 20.7597 18.1333C20.7597 18.0286 20.7597 17.9239 20.7597 17.8191C22.65 14.9655 22.965 11.1694 22.8338 7.8184C23.5689 8.62998 24.409 9.28448 25.3279 9.91279ZM22.0461 6.82356C22.2562 7.1639 22.5187 7.45188 22.755 7.73986C22.7287 7.73986 22.7025 7.76604 22.7025 7.79222C22.545 11.248 22.5187 14.599 20.7597 17.6882C20.7597 15.2012 20.7859 12.7141 20.7597 10.2531C21.101 9.10122 21.1535 7.8184 21.1798 6.6403C21.1798 6.16906 21.1798 5.69782 21.1535 5.22658C21.416 5.77636 21.7048 6.32614 22.0461 6.82356ZM20.9435 4.72916C20.996 5.40984 21.0485 6.09052 21.0222 6.7712C20.996 7.66132 20.891 8.55144 20.7597 9.41537C20.7597 7.66132 20.7597 5.93344 20.7334 4.17938C20.8122 4.38882 20.891 4.57208 20.9435 4.72916ZM20.8122 31.5636C22.0199 31.3542 23.2013 30.2023 24.094 29.4692C25.3016 28.4744 26.3781 27.3225 27.3232 26.092C29.1872 23.6835 30.5787 20.8822 31.2088 17.8977C31.2351 17.8453 31.13 17.8191 31.1038 17.8715C30.3687 20.6466 29.1872 23.2908 27.4807 25.6208C26.6143 26.7989 25.6167 27.8984 24.514 28.8933C23.9364 29.4169 23.3063 29.9143 22.6762 30.3855C22.1249 30.7782 21.5211 31.2757 20.8385 31.4589C20.8647 30.0976 20.8122 28.71 20.7859 27.3748C23.2013 26.092 25.1179 23.762 26.4306 21.4058C27.6908 19.1281 28.4784 16.6149 28.8459 14.0492C29.1347 14.7561 29.5285 15.3059 30.1061 15.8295C30.7887 16.4578 31.3926 17.1123 31.7339 18.0286C32.0752 18.9449 32.0227 19.9135 32.2065 20.8822C32.3902 21.8509 32.8365 22.7672 33.1516 23.7096C34.228 27.0345 33.3879 30.883 30.3162 32.7941C28.9247 33.658 27.2969 34.1031 25.6692 34.2078C24.409 34.2863 23.07 34.1816 21.8361 33.7889C26.2468 33.1082 30.4212 30.0452 32.5478 26.1967C32.6003 26.1182 32.469 26.0397 32.4165 26.1182C31.1563 28.1602 29.5548 29.9143 27.5595 31.2495C25.7217 32.4799 23.7001 33.213 21.5736 33.7104C21.311 33.6057 21.0485 33.5009 20.7859 33.37C20.7859 32.7155 20.8122 32.1396 20.8122 31.5636ZM20.6809 34.1031C20.7597 34.1554 20.8647 34.2078 20.9435 34.2602V34.3125C20.8647 34.3387 20.7597 34.3649 20.6547 34.3911C20.5497 34.3911 20.4184 34.3911 20.2871 34.3387V34.2602C20.3659 34.2078 20.4709 34.1554 20.5497 34.1031C20.6022 34.1554 20.6809 34.1554 20.6809 34.1031ZM20.3134 4.72916C20.3921 4.5459 20.4446 4.36264 20.5234 4.20556C20.4971 5.95962 20.4971 7.6875 20.4971 9.44156C20.3921 8.55144 20.2609 7.6875 20.2346 6.79738C20.2084 6.09052 20.2609 5.40984 20.3134 4.72916ZM19.2107 6.82356C19.552 6.32614 19.8408 5.77636 20.1033 5.22658C20.0771 5.69782 20.0771 6.16906 20.0771 6.6403C20.0771 7.8184 20.1558 9.1274 20.4971 10.2531C20.4971 12.7402 20.4971 15.2273 20.4971 17.6882C18.7381 14.599 18.7381 11.248 18.5543 7.79222C18.5543 7.73986 18.5281 7.73986 18.5018 7.73986C18.7381 7.45188 19.0007 7.13772 19.2107 6.82356ZM18.4231 7.8184C18.2656 11.1694 18.6069 14.9655 20.4971 17.8191C20.4971 17.9239 20.4971 18.0286 20.4971 18.1333C20.4971 19.8612 20.4971 21.5629 20.4971 23.2908C17.2154 19.8612 15.9027 14.5466 15.9289 9.91279C16.8478 9.28448 17.688 8.62998 18.4231 7.8184ZM12.5684 13.6565C12.8047 12.845 13.146 12.1905 13.7499 11.5883C14.3012 11.0385 14.9575 10.5935 15.6139 10.1484C15.6927 10.0961 15.7452 10.0699 15.8239 10.0175C15.7452 12.6093 16.1652 15.175 17.0579 17.6097C17.4779 18.7878 18.0293 19.9397 18.6594 21.0393C19.1582 21.9032 19.7358 22.8195 20.5497 23.4478C20.5497 24.338 20.5497 25.2281 20.5497 26.1182C20.5497 26.4847 20.5497 26.8774 20.5497 27.2439C18.2656 25.6208 16.4015 23.762 15.0626 21.3011C13.7499 18.9449 13.041 16.3531 12.6209 13.7089C12.5422 13.6827 12.5684 13.6565 12.5684 13.6565ZM15.6139 34.1554C13.9861 34.0507 12.3321 33.6057 10.9669 32.7417C7.89521 30.8306 7.05508 26.9821 8.13149 23.6573C8.44654 22.7148 8.89286 21.8247 9.07664 20.8298C9.26042 19.8874 9.20791 18.9187 9.54921 17.9762C9.89052 17.0861 10.4944 16.4316 11.177 15.7771C11.7546 15.2273 12.1746 14.7037 12.4372 13.9969C12.831 16.5625 13.6186 19.0758 14.8525 21.3534C16.1652 23.7096 18.0818 26.0397 20.4971 27.3225C20.4709 28.6838 20.4446 30.0452 20.4446 31.4066C19.762 31.2233 19.1582 30.7521 18.6069 30.3332C17.9505 29.8619 17.3467 29.3645 16.7691 28.8409C15.6664 27.8461 14.695 26.7465 13.8024 25.5684C12.0959 23.2384 10.9144 20.6204 10.1793 17.8191C10.1531 17.7668 10.0743 17.793 10.0743 17.8453C10.7044 20.8298 12.0959 23.6311 13.9599 26.0397C14.905 27.2701 15.9815 28.422 17.1891 29.4169C18.0555 30.1499 19.2632 31.3018 20.4446 31.4851C20.4446 32.0611 20.4709 32.637 20.4971 33.213C20.2346 33.3439 19.9983 33.4486 19.7095 33.5533C17.5567 33.0559 15.5614 32.349 13.7236 31.0924C11.7283 29.7572 10.1268 28.0032 8.86661 25.9611C8.8141 25.8826 8.68283 25.9611 8.73534 26.0397C10.8619 29.8881 15.0363 32.9512 19.447 33.6318C18.213 34.1293 16.8741 34.234 15.6139 34.1554Z" fill="black"/>
<path d="M20.3135 34.6788L20.261 39.9212C20.261 39.9212 20.4448 39.9998 20.6548 39.9998C20.8386 39.9998 21.0487 39.9736 21.0487 39.9736L20.9699 34.2599L20.7599 33.8672L20.1035 34.2337L20.3135 34.6788Z" fill="black"/>
</svg>
