<svg width="74" height="80" viewBox="0 0 74 80" fill="none" xmlns="http://www.w3.org/2000/svg">
<path d="M36.5 79.4463C37.3912 79.4463 38.2791 78.5752 38.3401 78.0091C41.0748 76.1245 45.2294 75.1416 49.6076 74.1112C59.9026 71.6876 72.7187 68.6675 72.7187 51.4622C72.7187 51.2419 72.712 51.0182 72.6984 50.7911C72.6747 50.4047 72.4849 50.0522 72.1765 49.8183C71.8682 49.5844 71.4785 49.4963 71.0989 49.5743C71.0244 49.5912 70.943 49.6082 70.8685 49.6217C72.2985 47.3101 73.0034 44.8289 73.0034 42.1105C73.0034 36.8804 70.3771 31.725 67.839 26.7423C66.2225 23.5697 64.6976 20.5734 63.8945 17.699C63.7013 17.0008 62.9863 16.5873 62.2848 16.7669C57.8761 17.8956 53.752 20.309 50.6717 23.5629C49.0857 25.2408 47.8455 27.061 46.9712 28.9794C47.7235 30.2166 48.2419 31.4335 48.5876 32.4232C49.8109 27.9897 53.2505 23.4816 58.7741 20.8479C57.2458 23.2511 56.4935 25.8102 56.4935 28.593C56.4935 31.8707 57.5067 34.962 58.4827 37.9549C59.3604 40.6395 60.1906 43.1782 60.1906 45.5678C60.1906 47.5812 59.523 49.2692 58.5708 50.6521C58.581 50.4657 58.5945 50.2827 58.5945 50.0963C58.5945 44.3069 53.4843 38.7718 48.4351 36.2974C48.3233 36.2432 48.2047 36.2093 48.0895 36.189C48.0895 36.1653 48.0895 36.1415 48.0861 36.1178L48.0318 36.1856C47.7269 33.7451 45.5818 29.3048 44.4567 27.1864C46.7916 24.5561 47.9742 21.5767 47.9742 18.3261C47.9742 11.3776 42.4676 4.67982 37.3133 0.724231C37.0727 0.537807 36.7847 0.446289 36.5 0.446289C36.2153 0.446289 35.9307 0.537807 35.6901 0.720842C30.5358 4.67643 25.0292 11.3742 25.0292 18.3227C25.0292 21.5733 26.2118 24.5527 28.5467 27.183C27.4216 29.3014 25.2765 33.7417 24.9715 36.1822L24.9173 36.1144C24.9173 36.1381 24.9173 36.1619 24.9139 36.1856C24.7953 36.2059 24.6801 36.2398 24.5683 36.2941C19.5191 38.7684 14.4089 44.3035 14.4089 50.0929C14.4089 50.2793 14.4224 50.4657 14.4326 50.6488C13.4804 49.2658 12.8128 47.5778 12.8128 45.5644C12.8128 43.1714 13.643 40.6361 14.5207 37.9515C15.5 34.9586 16.5099 31.8673 16.5099 28.5896C16.5099 25.8068 15.7576 23.2511 14.2293 20.8445C19.7529 23.4782 23.1925 27.9863 24.4158 32.4198C24.7614 31.4267 25.2799 30.2098 26.0322 28.976C25.1579 27.0576 23.9177 25.2374 22.3317 23.5596C19.2514 20.3022 15.1273 17.8889 10.7185 16.7635C10.0171 16.5839 9.30206 16.9974 9.1089 17.6957C8.30916 20.57 6.78085 23.5663 5.16442 26.7389C2.62627 31.725 0 36.8805 0 42.1071C0 44.8289 0.701467 47.3067 2.1349 49.6183C2.06035 49.6014 1.97902 49.5844 1.90447 49.5709C1.52832 49.4929 1.13522 49.5811 0.82685 49.8149C0.521864 50.0488 0.328707 50.4047 0.304986 50.7877C0.291431 51.0148 0.284653 51.2419 0.284653 51.4589C0.284653 68.6642 13.0974 71.6842 23.3958 74.1078C27.7706 75.1382 31.9286 76.1211 34.6633 78.0057C34.7209 78.5752 35.6088 79.4463 36.5 79.4463ZM36.5 3.47315C42.9759 8.75066 45.3107 14.5569 45.3107 18.3227C45.3107 20.614 44.5516 22.7528 43.0606 24.6951C42.0846 23.024 41.0477 21.3733 40.0209 19.7362C39.1873 18.4041 38.3977 17.1499 37.642 15.8823C37.4014 15.4789 36.9676 15.2348 36.5 15.2348C36.0324 15.2348 35.5986 15.4823 35.358 15.8823C34.6023 17.1465 33.8127 18.4041 32.9791 19.7362C31.9523 21.3733 30.9154 23.024 29.9394 24.6951C28.445 22.7528 27.6893 20.614 27.6893 18.3227C27.6893 14.5536 30.0241 8.74727 36.5 3.47315ZM36.5 19.1193C36.9202 19.8006 37.3472 20.4785 37.7674 21.1496C41.6848 27.3931 45.7343 33.8468 45.7343 40.575C45.7343 48.0456 41.0477 52.5672 36.5136 56.9397C36.5068 56.9465 36.5034 56.9499 36.4966 56.9567C36.4898 56.9499 36.4864 56.9465 36.4797 56.9397C31.9455 52.5672 27.2589 48.0456 27.2589 40.575C27.2589 33.8468 31.3085 27.3897 35.2258 21.1496C35.6528 20.4819 36.0798 19.8006 36.5 19.1193ZM36.5 60.1395C36.8355 60.1395 37.1676 60.0141 37.4285 59.7632C37.7369 59.4616 38.0486 59.1599 38.3638 58.8582C43.0674 54.3196 48.3978 49.1777 48.3978 40.5784C48.3978 40.1446 48.3809 39.7107 48.3538 39.2802C52.2034 41.5614 55.931 45.8492 55.931 50.0963C55.931 51.669 55.4227 53.1638 54.4196 54.5433C54.3755 54.6044 54.3383 54.6721 54.3078 54.7365C52.4135 55.5534 50.5361 56.4652 48.7333 57.4888C42.7319 60.8919 38.6349 64.8577 36.5034 69.3217C36.5034 69.3217 36.5034 69.3217 36.5034 69.3183C36.5034 69.3183 36.5034 69.3183 36.5034 69.3217C34.3719 64.8577 30.2749 60.8919 24.2735 57.4888C22.4707 56.4652 20.5933 55.5534 18.699 54.7365C18.6651 54.6688 18.6312 54.6044 18.5872 54.5433C17.5841 53.1638 17.0758 51.6656 17.0758 50.0963C17.0758 45.8492 20.8034 41.5614 24.653 39.2802C24.6259 39.7107 24.609 40.1446 24.609 40.5784C24.609 49.1811 29.9394 54.323 34.643 58.8582C34.9581 59.1599 35.2699 59.4616 35.5783 59.7632C35.8324 60.0141 36.1645 60.1395 36.5 60.1395ZM48.9976 71.5215C45.0227 72.4571 41.2137 73.3587 38.2283 74.9687C39.2144 69.8776 46.0427 67.3185 53.2403 64.6238C59.4654 62.2918 65.8701 59.8954 69.7536 55.5941C67.9372 67.0575 58.3234 69.3251 48.9976 71.5215ZM3.24979 55.5907C7.12989 59.892 13.5346 62.2918 19.7631 64.6204C26.9641 67.3151 33.789 69.8742 34.7751 74.9653C31.7863 73.3553 27.9807 72.4571 24.0058 71.5182C14.6766 69.3251 5.06276 67.0575 3.24979 55.5907ZM67.0697 50.2691C66.9952 50.3539 66.9376 50.4454 66.8867 50.5403C65.6939 50.842 64.4401 51.1843 63.1591 51.5639C62.4441 52.5774 61.3868 54.0519 60.4685 55.2077C63.2981 54.2383 66.0565 53.4689 68.537 52.8723C65.2635 57.2753 58.686 59.7395 52.305 62.1291C48.1708 63.6781 43.9654 65.2509 40.7867 67.41C42.8911 64.6476 45.9817 62.102 50.038 59.8005C51.1156 59.1904 52.2203 58.621 53.342 58.0854C56.5104 56.5771 59.2214 54.2586 61.2208 51.3775C61.2411 51.347 61.2614 51.3199 61.2818 51.2894C62.3052 49.5133 62.844 47.5778 62.844 45.5611C62.844 42.7444 61.9087 39.887 61.0039 37.1211C60.0889 34.3281 59.1469 31.4402 59.1469 28.5862C59.1469 25.7119 60.0957 23.1969 62.112 20.7564C63.0236 23.146 64.2571 25.5763 65.4635 27.9422C67.8593 32.6469 70.3399 37.5143 70.3399 42.1037C70.3399 45.117 69.2724 47.788 67.0697 50.2691ZM2.66015 42.1071C2.66015 37.5177 5.13731 32.6503 7.53653 27.9456C8.74292 25.5763 9.97981 23.1494 10.888 20.7598C12.9043 23.2003 13.8531 25.7187 13.8531 28.5896C13.8531 31.4402 12.9077 34.3315 11.9961 37.1245C11.0913 39.8904 10.156 42.7477 10.156 45.5644C10.156 47.5812 10.6982 49.5167 11.7182 51.2928C11.7386 51.3233 11.7589 51.3504 11.7792 51.3809C13.7786 54.2654 16.4896 56.5838 19.658 58.0888C20.7797 58.621 21.8844 59.1938 22.962 59.8039C27.0183 62.102 30.1089 64.6476 32.2133 67.4134C29.0346 65.2543 24.8326 63.6782 20.695 62.1325C14.314 59.7429 7.73647 57.2787 4.46296 52.8757C6.94351 53.4722 9.69854 54.2417 12.5315 55.2111C11.6166 54.0552 10.5559 52.5808 9.84087 51.5673C8.55993 51.1877 7.30949 50.8454 6.11327 50.5437C6.06244 50.4488 6.00483 50.3573 5.93028 50.2725C3.73099 47.788 2.66015 45.117 2.66015 42.1071Z" fill="white"/>
</svg>
