<svg width="94" height="94" viewBox="0 0 94 94" fill="none" xmlns="http://www.w3.org/2000/svg">
<path d="M16.477 39.0777H9.28572C8.27176 39.0777 7.44978 38.2557 7.44978 37.2418V35.8477C7.44978 35.0548 7.95882 34.3514 8.71203 34.1037C8.78591 34.0794 8.96148 34.0146 9.22397 33.9056C9.68298 33.7152 10.2001 33.4731 10.7607 33.1762C12.3761 32.3204 13.9955 31.2025 15.5047 29.7969C18.2611 27.2297 20.3339 24.0008 21.4595 20.0141C21.6829 19.2232 22.4046 18.677 23.2264 18.677H34.1667C34.3541 17.9087 34.6531 17.1279 35.053 16.3348C36.1062 14.2461 37.839 12.1008 40.0676 9.92786C41.3366 8.69058 42.6901 7.51979 44.0434 6.44846C44.5172 6.07335 44.958 5.73685 45.3549 5.44339C45.5968 5.2646 45.773 5.13804 45.8727 5.06821C46.5049 4.6257 47.3462 4.6257 47.9784 5.06821C48.0782 5.13804 48.2543 5.2646 48.4962 5.44339C48.8931 5.73685 49.3339 6.07335 49.8077 6.44846C51.161 7.51979 52.5145 8.69058 53.7835 9.92786C56.0121 12.1008 57.7449 14.2461 58.7981 16.3348C59.198 17.1279 59.497 17.9087 59.6844 18.677H70.6247C71.4465 18.677 72.1683 19.2232 72.3916 20.0141C73.5172 24.0008 75.59 27.2297 78.3464 29.7969C79.8556 31.2025 81.475 32.3204 83.0904 33.1762C83.651 33.4731 84.1681 33.7152 84.6271 33.9056C84.8896 34.0146 85.0652 34.0794 85.1391 34.1037C85.8923 34.3514 86.4013 35.0548 86.4013 35.8477V37.2418C86.4013 38.2557 85.5793 39.0777 84.5654 39.0777H77.3741C78.5691 42.0131 80.3317 44.4796 82.5286 46.5257C84.0378 47.9313 85.6572 49.0492 87.2726 49.905C87.8332 50.202 88.3503 50.444 88.8093 50.6345C89.0718 50.7434 89.2474 50.8082 89.3213 50.8325C90.0745 51.0803 90.5835 51.7836 90.5835 52.5765V53.9706C90.5835 54.9845 89.7616 55.8065 88.7476 55.8065H82.2191V87.4282C82.2191 88.4422 81.3971 89.2641 80.3832 89.2641H13.4679C12.454 89.2641 11.632 88.4422 11.632 87.4282V55.8065H5.10352C4.08956 55.8065 3.26758 54.9845 3.26758 53.9706V52.5765C3.26758 51.7836 3.77662 51.0803 4.52983 50.8325C4.60371 50.8082 4.77927 50.7434 5.04177 50.6345C5.50078 50.444 6.01794 50.202 6.57854 49.905C8.19395 49.0492 9.81328 47.9313 11.3225 46.5257C13.5194 44.4796 15.282 42.0131 16.477 39.0777ZM19.0019 35.4058C19.0294 35.4052 19.057 35.4052 19.0846 35.4058H74.7665C74.7942 35.4052 74.8217 35.4052 74.8492 35.4058H79.625C78.332 34.5849 77.0586 33.6152 75.8439 32.4839C72.929 29.7692 70.657 26.4075 69.2739 22.3489H24.5772C23.1941 26.4075 20.9221 29.7692 18.0072 32.4839C16.7925 33.6152 15.5191 34.5849 14.2261 35.4058H19.0019ZM20.395 39.0777C19.0119 43.1363 16.7399 46.498 13.825 49.2127C12.6103 50.344 11.3369 51.3137 10.0439 52.1346H83.8072C82.5142 51.3137 81.2408 50.344 80.0261 49.2127C77.1112 46.498 74.8392 43.1363 73.4561 39.0777H20.395ZM38.0185 18.677H55.8326C55.7429 18.4541 55.6386 18.2243 55.5194 17.988C54.6811 16.3253 53.1834 14.4711 51.2202 12.5569C50.0495 11.4156 48.7892 10.3254 47.5286 9.32738C47.3199 9.16222 47.1186 9.00536 46.9256 8.85732C46.7326 9.00536 46.5312 9.16222 46.3225 9.32738C45.0619 10.3254 43.8016 11.4156 42.6309 12.5569C40.6677 14.4711 39.17 16.3253 38.3317 17.988C38.2125 18.2243 38.1082 18.4541 38.0185 18.677ZM64.6066 55.8065H29.2445V85.5923H38.1193V74.8816C38.1193 74.3239 38.3728 73.7964 38.8083 73.448L45.7787 67.8717C46.4492 67.3353 47.4019 67.3353 48.0725 67.8717L55.0428 73.448C55.4783 73.7964 55.7318 74.3239 55.7318 74.8816V85.5923H64.6066V55.8065ZM68.2784 55.8065V85.5923H78.5472V55.8065H68.2784ZM15.3039 55.8065V85.5923H25.5727V55.8065H15.3039ZM52.06 85.5923V75.764L46.9256 71.6565L41.7911 75.764V85.5923H52.06Z" fill="white"/>
</svg>
