<svg width="52" height="36" viewBox="0 0 52 36" fill="none" xmlns="http://www.w3.org/2000/svg">
<path fill-rule="evenodd" clip-rule="evenodd" d="M39.8815 12.9173C39.8 10.6015 39.4741 8.03759 38.7407 5.14285C36.0519 6.54887 33.9333 8.1203 32.1407 9.69173C31.8963 8.94736 31.5704 8.28571 31.2444 7.62406C33.2815 5.8045 35.8074 4.15036 38.9852 2.57893L40.1259 2L40.4519 3.2406C41.3482 6.46617 41.9185 9.36089 42 12.0075C41.2667 12.3383 40.6148 12.6692 39.8815 12.9173ZM9 12.0902C9.16296 9.4436 9.65185 6.54886 10.5481 3.32329L10.8741 2.08269L12.0148 2.66164C15.1111 4.23307 17.637 5.88722 19.7556 7.70677C19.4296 8.36842 19.1037 9.11278 18.8593 9.77444C17.0667 8.20301 14.9481 6.63158 12.2593 5.22556C11.5259 8.1203 11.1185 10.6842 11.1185 13C10.3852 12.6692 9.73333 12.3383 9 12.0902Z" fill="white"/>
<path fill-rule="evenodd" clip-rule="evenodd" d="M8.47469 29.9725C12.7532 33.6055 18.3481 35.1743 24.519 35.9174L25.3418 36L24.1076 34.5137C20.8165 30.1376 18.1835 25.266 17.6899 19.6514C17.6076 18.9908 17.6076 18.3303 17.6076 17.6697C13.8228 14.0367 8.31013 11.5596 0 10.7339C0.822785 20.2294 3.94937 26.1743 8.47469 29.9725ZM20.4051 33.0275C16.538 32.2018 12.8354 30.7982 9.79113 28.3211C5.26582 24.5229 3.29113 18.9908 2.38607 13.2936C7.07594 14.0367 11.7658 15.5229 15.3861 18.7431C15.3861 19.156 15.4684 19.5688 15.4684 19.8991C15.962 24.6881 17.8544 28.9816 20.4051 33.0275ZM25.9177 32.0367C23.2025 28.3211 20.981 24.0275 20.5696 19.4037C20.5696 19.0734 20.4873 18.7431 20.4873 18.4128V17.422C20.5696 12.3028 22.9557 7.59632 25.9177 3.55045C28.8797 7.59632 31.1835 12.3853 31.3481 17.422V18.4128C31.3481 18.7431 31.3481 19.0734 31.2658 19.4037C30.7722 24.0275 28.5506 28.2385 25.9177 32.0367ZM31.3481 33.0275C35.2152 32.2018 38.9177 30.7982 41.962 28.3211C46.4873 24.5229 48.462 18.9908 49.3671 13.2936C44.6772 14.0367 39.9873 15.5229 36.3671 18.7431C36.3671 19.156 36.2848 19.5688 36.2848 19.8991C35.7911 24.6881 33.8987 28.9816 31.3481 33.0275ZM26.9051 34.266L26.2468 35.1743L25.9177 35.6697L25.5063 35.1743L24.8481 34.266C21.3924 29.6422 18.924 24.8532 18.4304 19.6514C18.4304 19.3211 18.3481 18.9082 18.3481 18.4954V17.422C18.4304 12.2202 20.6519 6.44037 25.9177 0C31.1835 6.44037 33.4051 12.2202 33.4873 17.422V18.4954C33.4873 18.9082 33.4873 19.2385 33.4051 19.6514C32.9114 24.8532 30.443 29.6422 27.0696 34.1835L26.9051 34.266ZM34.1456 19.6514C33.6519 25.266 30.9367 30.055 27.7278 34.5137L26.4937 36L27.3987 35.9174C33.4873 35.1743 39.0823 33.6055 43.443 29.9725C47.8861 26.2569 51.0127 20.3119 52 10.7339C43.6899 11.5596 38.0949 14.0367 34.3924 17.6697C34.2279 18.3303 34.1456 18.9908 34.1456 19.6514Z" fill="white"/>
<path fill-rule="evenodd" clip-rule="evenodd" d="M25.5139 12C28.6356 19 29.0163 26.9059 25.5139 33C22.0115 26.9059 22.316 18.9176 25.5139 12Z" fill="white"/>
<path fill-rule="evenodd" clip-rule="evenodd" d="M46 19C43.3098 26.5 37.9293 32.4659 31 34C32.7935 26.9261 38.663 21.4716 46 19Z" fill="white"/>
<path fill-rule="evenodd" clip-rule="evenodd" d="M5 19C7.69022 26.5 13.0707 32.4659 20 34C18.288 26.9261 12.337 21.4716 5 19Z" fill="white"/>
</svg>
