<svg width="199" height="344" viewBox="0 0 199 344" fill="none" xmlns="http://www.w3.org/2000/svg">
<path d="M105.429 284.327L99.8701 281.002C103.02 282.849 126.366 295.412 160.459 282.48C197.147 268.624 197.888 227.61 190.847 209.32C183.991 191.03 183.435 186.965 183.435 179.391C183.435 171.816 177.877 160.546 173.8 156.482C169.724 152.417 159.533 145.767 159.533 137.638C159.533 129.509 144.154 112.512 136.557 109.556C128.96 106.6 104.502 91.8203 99.3142 59.3047C94.1261 91.8203 69.8533 106.415 62.0712 109.556C54.6596 112.697 39.466 129.509 39.466 137.638C39.466 145.767 29.2751 152.417 25.1988 156.482C21.1224 160.546 15.5637 171.816 15.5637 179.391C15.5637 186.965 15.0079 191.03 8.1522 209.32C1.29652 227.61 2.03767 268.439 38.5395 282.48C72.6326 295.412 96.1643 282.849 99.1289 281.002L93.5703 284.327" fill="#A46A14"/>
<path d="M109.134 288.207C117.657 291.347 127.107 292.086 136.001 291.717C149.342 291.163 162.868 287.283 173.985 279.708C195.664 264.744 203.075 237.771 196.961 213.014C195.293 205.994 191.958 199.528 189.92 192.692C187.882 185.857 188.437 178.467 186.585 171.631C184.732 165.165 181.396 159.068 176.95 154.08C172.317 148.907 166.759 145.582 164.35 138.746C162.497 132.834 160.644 127.661 156.568 122.858C153.047 118.608 148.6 115.098 143.968 111.773C133.777 104.568 122.475 98.4709 115.063 87.9403C97.0901 62.2604 101.352 30.8533 100.611 1.47845C100.611 0.739464 99.8694 0.185221 99.1283 0.185221C98.7577 0.000473291 98.2018 0.554716 98.2018 1.29371C97.4607 30.8533 101.722 62.0757 83.7493 87.7556C76.5231 98.2862 65.2205 104.198 54.8443 111.588C50.3974 114.729 45.7651 118.239 42.2446 122.673C38.3536 127.476 36.5007 132.649 34.4625 138.561C32.2391 145.397 26.6804 148.907 21.8629 153.895C17.2307 158.883 13.8955 164.98 12.2279 171.446C10.375 178.282 10.9309 185.672 8.89268 192.507C6.8545 199.343 3.5193 205.809 1.85171 212.83C-4.26282 237.771 3.14873 264.744 24.8275 279.524C35.9448 287.283 49.4709 290.978 62.8117 291.532C71.8908 291.902 81.3406 291.163 89.6786 288.022L109.134 288.207ZM101.908 295.781C101.166 295.966 100.425 296.151 99.4989 295.966C98.5724 295.781 98.0166 295.597 97.2754 295.227V293.934C97.646 294.119 98.0166 294.119 98.2018 294.303C99.3136 294.673 100.611 294.673 101.908 294.673V295.781ZM97.2754 318.136C98.7577 318.69 100.425 319.06 101.908 318.875C101.908 319.429 101.908 319.983 101.908 320.538C100.425 321.092 98.7577 321.277 97.0901 320.907C97.0901 319.983 97.2754 319.06 97.2754 318.136ZM102.093 334.394C101.166 334.578 100.425 334.763 99.4989 334.763C98.5724 334.763 97.8313 334.578 96.9048 334.209C96.9048 333.285 96.9048 332.177 96.9048 331.253C98.3871 331.992 100.24 332.177 101.908 331.992C102.093 332.731 102.093 333.47 102.093 334.394ZM96.9048 335.133C98.5724 335.872 100.425 336.056 102.093 335.687C102.093 336.426 102.093 337.165 102.093 337.904C100.425 338.273 98.5724 338.273 96.9048 337.719C96.9048 336.98 96.9048 336.056 96.9048 335.133ZM101.908 314.81C100.425 315.18 98.7577 314.995 97.2754 314.441V311.485C98.7577 312.039 100.425 312.409 101.908 312.039V314.81ZM97.2754 303.91C98.7577 304.834 100.24 305.204 101.908 305.019C100.24 305.388 98.7577 305.203 97.2754 304.465V303.91ZM101.908 303.91C100.24 304.095 98.7577 303.725 97.2754 302.802V300.585C98.7577 301.139 100.425 301.324 101.908 301.324V303.91ZM101.908 316.104V317.397C100.425 317.582 98.7577 317.582 97.2754 317.212V315.549C98.7577 316.104 100.24 316.288 101.908 316.104ZM97.0901 321.831C98.5724 322.2 100.24 322.2 101.908 321.831C101.908 322.57 101.908 323.494 101.908 324.233C100.24 324.417 98.7577 324.417 97.0901 324.048C97.0901 323.493 97.0901 322.57 97.0901 321.831ZM102.093 330.329C100.425 330.699 98.7577 330.699 97.0901 329.96C97.0901 329.221 97.0901 328.482 97.0901 327.558C98.5724 328.112 100.425 328.297 102.093 328.112C102.093 328.851 102.093 329.59 102.093 330.329ZM96.9048 338.828C98.5724 339.382 100.425 339.567 102.278 339.197C102.278 340.306 102.278 341.229 102.278 342.338C101.166 342.523 100.24 342.707 99.1283 342.707C98.3871 342.707 97.646 342.523 96.9048 342.338C96.9048 341.229 96.9048 340.121 96.9048 338.828ZM101.908 310.376C100.425 310.746 98.7577 310.931 97.2754 310.376V307.42C98.7577 308.159 100.24 308.344 101.908 308.344V310.376ZM97.2754 306.312V305.573C98.7577 306.312 100.425 306.681 101.908 306.497V307.051C100.24 307.236 98.7577 307.051 97.2754 306.312ZM101.908 300.215C100.425 300.4 98.7577 300.4 97.2754 299.846V298.553C97.8313 298.737 98.3871 298.737 98.7577 298.737C99.8694 298.922 100.796 298.922 101.908 298.737V300.215ZM101.908 293.38C101.352 293.38 100.796 293.38 100.24 293.38C99.4989 293.38 98.3871 293.195 97.2754 292.825V290.978C97.2754 290.978 97.2754 290.978 97.4607 290.978C98.943 291.347 100.425 291.532 101.908 291.163V293.38ZM101.908 290.424C100.425 290.608 98.5724 290.793 97.2754 290.239V287.837C98.7577 288.391 100.425 288.576 101.908 288.391V290.424ZM101.908 325.895C101.908 326.265 101.908 326.449 101.908 326.819C100.24 327.188 98.7577 327.188 97.0901 326.819C97.0901 326.449 97.0901 325.895 97.0901 325.526C98.7577 325.895 100.425 326.08 101.908 325.895ZM96.9048 343.446C98.7577 344 100.611 344.185 102.278 343.816L96.9048 343.446ZM100.24 297.814C99.6842 297.814 98.3871 297.814 97.2754 297.629V296.151C98.5724 296.89 100.425 297.075 101.908 296.705V297.444C101.352 297.814 100.796 297.814 100.24 297.814ZM101.908 287.283C100.425 287.468 98.7577 287.283 97.2754 286.913V286.359C97.4607 286.359 97.4607 286.359 97.646 286.544C98.943 286.914 100.611 286.729 101.908 286.359V287.283ZM135.074 114.729C139.707 117.869 144.339 120.825 148.23 124.89C152.491 129.139 154.715 133.758 156.568 139.485C156.568 139.67 156.568 139.67 156.753 139.854C153.788 158.514 148.6 176.804 139.521 193.431C129.886 210.797 116.731 224.099 100.796 235.369C100.796 232.782 100.796 230.011 100.796 227.425C100.796 221.143 100.796 214.862 100.796 208.581C106.54 204.147 110.431 197.68 114.137 191.584C118.584 183.824 122.289 175.695 125.439 167.382C131.554 150.2 134.518 132.095 134.148 113.805C134.148 114.174 134.518 114.359 135.074 114.729ZM132.666 113.066C132.851 145.766 123.586 183.085 100.425 207.472C100.425 195.279 100.425 183.27 100.425 171.077C100.425 170.338 100.425 169.599 100.425 168.86C113.766 148.722 115.99 121.934 115.063 98.2862C120.251 104.013 126.18 108.632 132.666 113.066ZM109.504 91.2658C110.987 93.6675 112.84 95.6997 114.507 97.7319C114.322 97.7319 114.137 97.9167 114.137 98.1014C113.025 122.488 112.84 146.136 100.425 167.936C100.425 150.385 100.611 132.834 100.425 115.468C102.834 107.339 103.205 98.2862 103.39 89.9725C103.39 86.6471 103.39 83.3216 103.205 79.9962C105.058 83.8759 107.096 87.7556 109.504 91.2658ZM101.722 76.486C102.093 81.2894 102.463 86.0928 102.278 90.8963C102.093 97.1777 101.352 103.459 100.425 109.556C100.425 97.1777 100.425 84.9844 100.24 72.6063C100.796 74.0843 101.352 75.3775 101.722 76.486ZM100.796 265.852C109.319 264.374 117.657 256.245 123.957 251.072C132.48 244.052 140.077 235.923 146.747 227.24C159.903 210.243 169.723 190.475 174.17 169.414C174.356 169.045 173.614 168.86 173.429 169.229C168.241 188.812 159.903 207.472 147.859 223.915C141.745 232.228 134.704 239.988 126.922 247.008C122.845 250.703 118.398 254.213 113.951 257.539C110.06 260.31 105.799 263.82 100.981 265.113C101.166 255.506 100.796 245.715 100.611 236.293C117.657 227.24 131.183 210.797 140.448 194.17C149.342 178.097 154.9 160.361 157.494 142.256C159.532 147.244 162.312 151.124 166.388 154.819C171.206 159.253 175.467 163.872 177.876 170.338C180.285 176.804 179.914 183.64 181.211 190.475C182.508 197.311 185.658 203.777 187.882 210.428C195.478 233.891 189.549 261.049 167.87 274.535C158.05 280.632 146.562 283.773 135.074 284.512C126.18 285.066 116.731 284.327 108.022 281.556C139.151 276.752 168.612 255.137 183.62 227.979C183.991 227.425 183.064 226.87 182.693 227.425C173.8 241.835 162.497 254.213 148.415 263.635C135.445 272.318 121.178 277.491 106.169 281.002C104.316 280.263 102.463 279.524 100.611 278.6C100.611 273.981 100.796 269.917 100.796 265.852ZM99.8694 283.773C100.425 284.142 101.166 284.512 101.722 284.881V285.251C101.166 285.436 100.425 285.62 99.6842 285.805C98.943 285.805 98.0166 285.805 97.0901 285.436V284.881C97.646 284.512 98.3871 284.142 98.943 283.773C99.3136 284.142 99.8694 284.142 99.8694 283.773ZM97.2754 76.486C97.8313 75.1927 98.2018 73.8995 98.7577 72.791C98.5724 85.1691 98.5724 97.3624 98.5724 109.741C97.8313 103.459 96.9048 97.3624 96.7195 91.081C96.5342 86.0928 96.9048 81.2894 97.2754 76.486ZM89.4933 91.2658C91.902 87.7556 93.9402 83.8759 95.7931 79.9962C95.6078 83.3216 95.6078 86.6471 95.6078 89.9725C95.6078 98.2862 96.1637 107.524 98.5724 115.468C98.5724 133.019 98.5724 150.57 98.5724 167.936C86.1581 146.136 86.1581 122.488 84.8611 98.1014C84.8611 97.7319 84.6758 97.7319 84.4905 97.7319C86.1581 95.6997 88.011 93.4828 89.4933 91.2658ZM83.9346 98.2862C82.8229 121.934 85.2316 148.722 98.5724 168.86C98.5724 169.599 98.5724 170.338 98.5724 171.077C98.5724 183.27 98.5724 195.279 98.5724 207.472C75.4113 183.27 66.1469 145.766 66.3322 113.066C72.8173 108.632 78.7465 104.013 83.9346 98.2862ZM42.6152 139.485C44.2828 133.758 46.6916 129.139 50.9532 124.89C54.8443 121.01 59.4765 117.869 64.1087 114.729C64.6646 114.359 65.0352 114.174 65.591 113.805C65.0352 132.095 67.9998 150.2 74.2996 167.382C77.2642 175.695 81.1553 183.824 85.6022 191.584C89.1227 197.68 93.1991 204.147 98.943 208.581C98.943 214.862 98.943 221.143 98.943 227.425C98.943 230.011 98.943 232.782 98.943 235.369C82.8229 223.915 69.6674 210.797 60.2177 193.431C50.9532 176.804 45.9504 158.514 42.9858 139.854C42.4299 139.67 42.6152 139.485 42.6152 139.485ZM64.1087 284.142C52.6208 283.403 40.9476 280.263 31.3126 274.166C9.63383 260.679 3.70459 233.521 11.3014 210.058C13.5249 203.408 16.6748 197.126 17.9718 190.106C19.2688 183.455 18.8983 176.619 21.307 169.968C23.7158 163.687 27.9774 159.068 32.7949 154.449C36.8713 150.57 39.8359 146.875 41.6888 141.887C44.4681 159.992 50.0268 177.728 58.7353 193.801C67.9998 210.428 81.5259 226.871 98.5724 235.923C98.3871 245.53 98.2018 255.137 98.2018 264.744C93.3843 263.451 89.1227 260.125 85.2316 257.169C80.5994 253.844 76.3378 250.333 72.2614 246.639C64.4793 239.618 57.6236 231.859 51.3238 223.545C39.28 207.103 30.942 188.628 25.754 168.86C25.5687 168.49 25.0128 168.675 25.0128 169.045C29.4597 190.106 39.28 209.874 52.4355 226.871C59.1059 235.554 66.7028 243.683 75.226 250.703C81.3406 255.876 89.8639 264.005 98.2018 265.298C98.2018 269.362 98.3871 273.427 98.5724 277.491C96.7195 278.415 95.0519 279.154 93.0138 279.893C77.8201 276.383 63.7381 271.395 50.7679 262.527C36.686 253.105 25.3834 240.727 16.4895 226.316C16.1189 225.762 15.1925 226.316 15.5631 226.871C30.5715 254.028 60.0324 275.644 91.1609 280.447C82.4523 283.958 73.0026 284.697 64.1087 284.142Z" fill="black"/>
<path d="M97.2753 287.837L96.9047 343.446C96.9047 343.446 98.2017 344 99.684 344C100.981 344 102.463 343.815 102.463 343.815L101.907 284.881L100.425 282.109L95.793 284.696L97.2753 287.837Z" fill="black"/>
</svg>
