<svg width="534" height="920" viewBox="0 0 534 920" fill="none" xmlns="http://www.w3.org/2000/svg">
<path d="M293.289 769.923C316.113 778.314 341.417 780.289 365.233 779.302C400.957 777.821 437.177 767.454 466.947 747.216C524.998 707.232 544.845 635.162 528.471 569.015C524.006 550.257 515.075 532.98 509.617 514.716C504.159 496.452 505.648 476.706 500.686 458.442C495.724 441.165 486.794 424.875 474.886 411.547C462.481 397.726 447.596 388.84 441.146 370.576C436.185 354.78 431.223 340.958 420.307 328.124C410.88 316.77 398.972 307.391 386.568 298.506C359.279 279.254 329.013 262.965 309.166 234.828C261.038 166.213 272.45 82.2961 270.465 3.80889C270.465 1.83438 268.481 0.353485 266.496 0.353485C265.504 -0.140145 264.015 1.34075 264.015 3.31526C262.03 82.2961 273.442 165.72 225.314 234.334C205.964 262.471 175.698 278.267 147.912 298.012C136.004 306.404 123.6 315.783 114.173 327.63C103.754 340.465 98.792 354.286 93.3342 370.082C87.3802 388.347 72.4952 397.726 59.5949 411.054C47.1908 424.382 38.2598 440.671 33.7943 457.948C28.8327 476.213 30.3212 495.958 24.8633 514.222C19.4055 532.487 10.4745 549.764 6.00904 568.522C-10.3644 635.162 9.4822 707.232 67.5336 746.722C97.3035 767.454 133.524 777.327 169.248 778.808C193.56 779.795 218.864 777.821 241.192 769.429L293.289 769.923ZM273.938 790.161C271.954 790.655 269.969 791.149 267.488 790.655C265.007 790.161 263.519 789.668 261.534 788.681V785.225C262.527 785.719 263.519 785.719 264.015 786.212C266.992 787.2 270.465 787.2 273.938 787.2V790.161ZM261.534 849.891C265.504 851.372 269.969 852.359 273.938 851.865C273.938 853.346 273.938 854.827 273.938 856.308C269.969 857.789 265.504 858.282 261.038 857.295C261.038 854.827 261.534 852.359 261.534 849.891ZM274.435 893.33C271.954 893.824 269.969 894.317 267.488 894.317C265.007 894.317 263.023 893.824 260.542 892.836C260.542 890.368 260.542 887.407 260.542 884.938C264.511 886.913 269.473 887.406 273.938 886.913C274.435 888.887 274.435 890.862 274.435 893.33ZM260.542 895.305C265.007 897.279 269.969 897.773 274.435 896.785C274.435 898.76 274.435 900.734 274.435 902.709C269.969 903.696 265.007 903.696 260.542 902.215C260.542 900.241 260.542 897.773 260.542 895.305ZM273.938 841.005C269.969 841.993 265.504 841.499 261.534 840.018V832.12C265.504 833.601 269.969 834.588 273.938 833.601V841.005ZM261.534 811.881C265.504 814.349 269.473 815.337 273.938 814.843C269.473 815.83 265.504 815.337 261.534 813.362V811.881ZM273.938 811.881C269.473 812.375 265.504 811.387 261.534 808.919V802.996C265.504 804.477 269.969 804.97 273.938 804.97V811.881ZM273.938 844.461V847.916C269.969 848.41 265.504 848.41 261.534 847.422V842.98C265.504 844.461 269.473 844.954 273.938 844.461ZM261.038 859.763C265.007 860.75 269.473 860.75 273.938 859.763C273.938 861.738 273.938 864.206 273.938 866.18C269.473 866.674 265.504 866.674 261.038 865.687C261.038 864.206 261.038 861.738 261.038 859.763ZM274.435 882.47C269.969 883.457 265.504 883.457 261.038 881.483C261.038 879.508 261.038 877.534 261.038 875.066C265.007 876.547 269.969 877.04 274.435 876.547C274.435 878.521 274.435 880.496 274.435 882.47ZM260.542 905.177C265.007 906.658 269.969 907.152 274.931 906.164C274.931 909.126 274.931 911.594 274.931 914.556C271.954 915.05 269.473 915.543 266.496 915.543C264.511 915.543 262.527 915.05 260.542 914.556C260.542 911.594 260.542 908.633 260.542 905.177ZM273.938 829.158C269.969 830.145 265.504 830.639 261.534 829.158V821.26C265.504 823.235 269.473 823.728 273.938 823.728V829.158ZM261.534 818.298V816.324C265.504 818.298 269.969 819.286 273.938 818.792V820.273C269.473 820.766 265.504 820.273 261.534 818.298ZM273.938 802.009C269.969 802.502 265.504 802.502 261.534 801.021V797.566C263.023 798.06 264.511 798.059 265.504 798.059C268.481 798.553 270.961 798.553 273.938 798.059V802.009ZM273.938 783.744C272.45 783.744 270.961 783.744 269.473 783.744C267.488 783.744 264.511 783.251 261.534 782.263V777.327C261.534 777.327 261.534 777.327 262.03 777.327C266 778.314 269.969 778.808 273.938 777.821V783.744ZM273.938 775.846C269.969 776.34 265.007 776.833 261.534 775.353V768.935C265.504 770.416 269.969 770.91 273.938 770.416V775.846ZM273.938 870.623C273.938 871.61 273.938 872.104 273.938 873.091C269.473 874.078 265.504 874.078 261.038 873.091C261.038 872.104 261.038 870.623 261.038 869.636C265.504 870.623 269.969 871.117 273.938 870.623ZM260.542 917.518C265.504 918.999 270.465 919.492 274.931 918.505L260.542 917.518ZM269.473 795.591C267.984 795.591 264.511 795.591 261.534 795.098V791.149C265.007 793.123 269.969 793.617 273.938 792.63V794.604C272.45 795.591 270.961 795.591 269.473 795.591ZM273.938 767.454C269.969 767.948 265.504 767.454 261.534 766.467V764.986C262.03 764.986 262.03 764.986 262.527 765.48C266 766.467 270.465 765.974 273.938 764.986V767.454ZM362.752 306.404C375.156 314.796 387.56 322.694 397.98 333.554C409.392 344.907 415.346 357.248 420.307 372.55C420.307 373.044 420.307 373.044 420.803 373.538C412.865 423.394 398.972 472.264 374.66 516.69C348.859 563.092 313.632 598.633 270.961 628.744C270.961 621.834 270.961 614.429 270.961 607.518C270.961 590.735 270.961 573.951 270.961 557.168C286.343 545.321 296.762 528.044 306.685 511.754C318.593 491.022 328.517 469.302 336.951 447.089C353.325 401.181 361.264 352.805 360.271 303.936C360.271 304.923 361.264 305.417 362.752 306.404ZM356.302 301.961C356.798 389.334 331.99 489.047 269.969 554.206C269.969 521.627 269.969 489.541 269.969 456.961C269.969 454.987 269.969 453.012 269.969 451.038C305.693 397.232 311.647 325.656 309.166 262.471C323.059 277.774 338.936 290.114 356.302 301.961ZM294.281 243.713C298.251 250.13 303.212 255.56 307.678 260.99C307.182 260.99 306.685 261.484 306.685 261.977C303.708 327.136 303.212 390.321 269.969 448.569C269.969 401.675 270.465 354.78 269.969 308.379C276.419 286.659 277.412 262.471 277.908 240.258C277.908 231.372 277.908 222.487 277.412 213.602C282.373 223.968 287.831 234.334 294.281 243.713ZM273.442 204.223C274.435 217.057 275.427 229.891 274.931 242.726C274.435 259.509 272.45 276.293 269.969 292.582C269.969 259.509 269.969 226.93 269.473 193.856C270.961 197.805 272.45 201.261 273.442 204.223ZM270.961 710.193C293.785 706.244 316.113 684.525 332.982 670.703C355.806 651.945 376.149 630.225 394.011 607.025C429.238 561.611 455.535 508.792 467.443 452.518C467.939 451.531 465.955 451.038 465.458 452.025C451.566 504.35 429.238 554.206 396.988 598.139C380.614 620.353 361.76 641.085 340.921 659.843C330.005 669.716 318.097 679.095 306.189 687.98C295.77 695.384 284.358 704.763 271.458 708.219C271.954 682.55 270.961 656.388 270.465 631.213C316.113 607.025 352.333 563.092 377.141 518.665C400.957 475.719 415.842 428.331 422.788 379.955C428.246 393.283 435.688 403.649 446.604 413.522C459.504 425.369 470.916 437.71 477.366 454.987C483.817 472.264 482.824 490.528 486.297 508.792C489.771 527.057 498.205 544.334 504.159 562.104C524.502 624.795 508.625 697.359 450.573 733.394C424.277 749.684 393.514 758.075 362.752 760.05C338.936 761.531 313.632 759.556 290.312 752.152C373.668 739.317 452.558 681.563 492.747 608.999C493.74 607.518 491.259 606.037 490.267 607.518C466.451 646.021 436.185 679.095 398.476 704.27C363.744 727.47 325.54 741.292 285.35 750.671C280.389 748.697 275.427 746.722 270.465 744.254C270.465 731.913 270.961 721.053 270.961 710.193ZM268.481 758.075C269.969 759.063 271.954 760.05 273.442 761.037V762.024C271.954 762.518 269.969 763.012 267.984 763.505C266 763.505 263.519 763.505 261.038 762.518V761.037C262.527 760.05 264.511 759.063 266 758.075C266.992 759.063 268.481 759.063 268.481 758.075ZM261.534 204.223C263.023 200.767 264.015 197.312 265.504 194.35C265.007 227.423 265.007 260.003 265.007 293.076C263.023 276.293 260.542 260.003 260.046 243.219C259.55 229.891 260.542 217.057 261.534 204.223ZM240.695 243.713C247.146 234.334 252.603 223.968 257.565 213.602C257.069 222.487 257.069 231.372 257.069 240.258C257.069 262.471 258.557 287.152 265.007 308.379C265.007 355.273 265.007 402.168 265.007 448.569C231.764 390.321 231.764 327.136 228.291 261.977C228.291 260.99 227.795 260.99 227.299 260.99C231.764 255.56 236.726 249.637 240.695 243.713ZM225.81 262.471C222.833 325.656 229.284 397.232 265.007 451.038C265.007 453.012 265.007 454.987 265.007 456.961C265.007 489.541 265.007 521.627 265.007 554.206C202.987 489.541 178.178 389.334 178.675 301.961C196.04 290.114 211.918 277.774 225.81 262.471ZM115.165 372.55C119.631 357.248 126.081 344.907 137.493 333.554C147.912 323.187 160.317 314.796 172.721 306.404C174.209 305.417 175.202 304.923 176.69 303.936C175.202 352.805 183.14 401.181 200.01 447.089C207.948 469.302 218.368 491.022 230.276 511.754C239.703 528.044 250.619 545.321 266 557.168C266 573.951 266 590.735 266 607.518C266 614.429 266 621.834 266 628.744C222.833 598.139 187.606 563.092 162.301 516.69C137.493 472.264 124.096 423.394 116.158 373.538C114.669 373.044 115.165 372.55 115.165 372.55ZM172.721 759.063C141.958 757.088 110.7 748.696 84.8994 732.407C26.848 696.372 10.9707 623.808 31.3135 561.117C37.2675 543.346 45.7023 526.563 49.1754 507.805C52.6486 490.034 51.6563 471.77 58.1064 453.999C64.5566 437.216 75.9684 424.875 88.8687 412.534C99.7843 402.168 107.723 392.296 112.685 378.968C120.127 427.343 135.012 474.732 158.332 517.678C183.14 562.104 219.36 606.037 265.007 630.225C264.511 655.894 264.015 681.563 264.015 707.232C251.115 703.776 239.703 694.891 229.284 686.993C216.879 678.107 205.468 668.728 194.552 658.856C173.713 640.098 155.355 619.365 138.485 597.152C106.234 553.219 83.907 503.856 70.0144 451.038C69.5182 450.05 68.0297 450.544 68.0297 451.531C79.9377 507.805 106.234 560.623 141.462 606.037C159.324 629.238 179.667 650.958 202.491 669.716C218.864 683.537 241.688 705.257 264.015 708.712C264.015 719.572 264.511 730.432 265.007 741.292C260.046 743.76 255.58 745.735 250.123 747.709C209.437 738.33 171.728 725.002 136.997 701.308C99.2882 676.133 69.0221 643.06 45.2061 604.557C44.2138 603.076 41.733 604.557 42.7253 606.037C82.9147 678.601 161.805 736.356 245.161 749.19C221.841 758.569 196.537 760.544 172.721 759.063Z" fill="#DAD9DC"/>
</svg>
