<svg width="16" height="16" viewBox="0 0 16 16" fill="none" xmlns="http://www.w3.org/2000/svg">
<g clip-path="url(#clip0)">
<path d="M0.000338617 8.00048C0.000338617 6.00739 -4.23271e-05 4.01429 0.000338617 2.02119C0.00071956 0.813219 0.810606 0.000285708 2.01515 0.000285708C6.00782 -9.52359e-05 10.0005 -9.52359e-05 13.9928 0.000285708C15.1844 0.000285708 15.9992 0.816267 15.9996 2.01014C16.0004 6.00281 16.0004 9.9951 15.9996 13.9878C15.9996 15.182 15.1848 15.9992 13.9943 15.9995C9.99554 16.0003 5.99639 16.0003 1.99763 15.9995C0.818986 15.9992 0.0011005 15.1794 0.000338617 13.9988C-0.000423271 11.9992 0.000338617 10.0001 0.000338617 8.00048ZM4.85661 12.891C4.98689 12.8594 5.07984 12.8472 5.16479 12.8145C5.48364 12.691 5.80135 12.5646 6.11677 12.4328C6.67942 12.1977 7.24017 12.1634 7.81806 12.3924C8.59557 12.7006 9.40622 12.8686 10.2412 12.9265C11.9597 13.0453 13.568 12.6868 15.0686 11.8385C15.1943 11.7676 15.2419 11.6911 15.2415 11.5425C15.2366 8.36809 15.2377 5.19407 15.2373 2.01967C15.2373 1.21816 14.7768 0.762173 13.9692 0.761792C11.2519 0.761792 8.53462 0.764078 5.81773 0.757221C5.60592 0.75684 5.45126 0.811696 5.29622 0.957216C3.9511 2.21776 3.14655 3.74496 3.05894 5.60016C2.97018 7.47859 3.61854 9.10446 4.91299 10.4538C5.29469 10.8515 5.37964 11.2694 5.31184 11.7711C5.25812 12.1688 5.10613 12.5261 4.85661 12.891ZM4.39757 0.762173C3.56597 0.762173 2.77894 0.761792 1.99191 0.762173C1.23041 0.762935 0.762226 1.23378 0.762226 2.00062C0.761845 6.00015 0.761845 9.99967 0.762226 13.9992C0.762226 14.7641 1.23231 15.2369 1.99267 15.2376C3.32598 15.2384 4.6589 15.238 5.9922 15.238C8.67747 15.238 11.3631 15.2388 14.0484 15.2373C14.6674 15.2369 15.1634 14.8537 15.2164 14.2613C15.264 13.7283 15.2263 13.1882 15.2263 12.6495C15.2072 12.6495 15.1931 12.6457 15.1828 12.6503C15.1371 12.6716 15.0922 12.6952 15.0469 12.7185C14.0065 13.2487 12.9029 13.5649 11.7414 13.6727C10.2706 13.8091 8.84318 13.6133 7.46531 13.0769C7.13389 12.9482 6.81009 12.9543 6.4859 13.0987C6.21391 13.2198 5.94192 13.3417 5.66611 13.4537C5.04479 13.7059 4.40405 13.7763 3.74463 13.6381C3.56254 13.6 3.45245 13.4845 3.43264 13.3006C3.41359 13.1234 3.4955 12.9844 3.65816 12.9192C4.29243 12.6651 4.50119 12.1394 4.57052 11.5204C4.593 11.3193 4.52404 11.1638 4.37967 11.0111C3.11189 9.67092 2.38047 8.08543 2.29591 6.23481C2.20981 4.35409 2.80942 2.69165 3.99339 1.23492C4.11605 1.08407 4.24596 0.939312 4.39757 0.762173Z" fill="#7A3E0C"/>
<path d="M6.54664 5.33336C6.14474 5.33336 5.77751 5.33412 5.41028 5.33298C5.11582 5.33222 4.94706 5.18822 4.95125 4.9448C4.95544 4.71014 5.12191 4.57224 5.40609 4.57185C5.99618 4.57071 6.58626 4.57376 7.17672 4.57033C7.34967 4.56919 7.48871 4.62138 7.57404 4.77756C7.65709 4.92918 7.61633 5.06975 7.52985 5.20727C7.06815 5.94287 6.60759 6.67962 6.14741 7.41636C6.1116 7.47388 6.0796 7.53407 6.03084 7.6194C6.44188 7.6194 6.82625 7.61674 7.21062 7.62017C7.45976 7.62245 7.6209 7.77483 7.62166 7.99806C7.6228 8.20682 7.47119 8.37558 7.25215 8.37786C6.6114 8.38434 5.97027 8.38777 5.32953 8.3771C5.00306 8.37177 4.85716 8.04911 5.04001 7.75388C5.49752 7.01561 5.96037 6.28039 6.42055 5.54364C6.45712 5.48574 6.4914 5.42631 6.54664 5.33336Z" fill="#7A3E0C"/>
<path d="M9.59967 5.85174C9.60119 5.8506 9.62519 5.83041 9.64919 5.81022C9.77186 5.70812 9.90785 5.67917 10.056 5.74584C10.2111 5.81555 10.2838 5.94202 10.2842 6.10888C10.2854 6.73629 10.2854 7.3637 10.2842 7.99112C10.2838 8.15035 10.2149 8.27263 10.0701 8.34387C9.92499 8.41511 9.77947 8.40177 9.66367 8.29282C9.58481 8.21854 9.52615 8.24216 9.44577 8.27454C8.9334 8.48368 8.37532 8.36558 7.9959 7.97283C7.61609 7.58008 7.51362 7.00752 7.73343 6.51077C7.95437 6.01173 8.46484 5.68489 9.00883 5.72069C9.20082 5.73365 9.38863 5.80336 9.59967 5.85174ZM9.52272 7.04142C9.51967 6.72791 9.26444 6.47649 8.95054 6.47725C8.63741 6.47801 8.38293 6.73172 8.38141 7.04485C8.37989 7.36561 8.64236 7.62465 8.96311 7.61893C9.27587 7.61322 9.52577 7.35532 9.52272 7.04142Z" fill="#7A3E0C"/>
<path d="M14.4756 7.05005C14.4745 7.77918 13.8699 8.38145 13.1404 8.38031C12.4109 8.37917 11.8094 7.77499 11.8105 7.04472C11.8117 6.31521 12.4155 5.7137 13.1458 5.71485C13.8756 5.71599 14.4768 6.3194 14.4756 7.05005ZM13.7137 7.05043C13.7153 6.73692 13.4642 6.48092 13.1507 6.47673C12.8372 6.47254 12.5785 6.72244 12.5724 7.03482C12.566 7.35595 12.8246 7.61918 13.145 7.61804C13.4574 7.61728 13.7118 7.36319 13.7137 7.05043Z" fill="#7A3E0C"/>
<path d="M11.4279 6.30423C11.4279 6.83679 11.4283 7.36935 11.4279 7.90191C11.4275 8.21504 11.2904 8.38494 11.0424 8.38228C10.8024 8.37961 10.6664 8.21123 10.6664 7.91181C10.666 6.81508 10.6656 5.71834 10.6668 4.62161C10.6672 4.37247 10.7967 4.21172 11.0039 4.19C11.2485 4.16448 11.4256 4.33628 11.4271 4.61171C11.4302 5.17588 11.4279 5.74006 11.4279 6.30423Z" fill="#7A3E0C"/>
</g>
<defs>
<clipPath id="clip0">
<rect width="16" height="16" fill="white"/>
</clipPath>
</defs>
</svg>
