<svg width="395" height="679" viewBox="0 0 395 679" fill="none" xmlns="http://www.w3.org/2000/svg">
<path d="M209.439 560.444L198.419 553.886C204.664 557.529 250.949 582.305 318.541 556.801C391.275 529.474 392.744 448.588 378.785 412.517C365.193 376.446 364.091 368.431 364.091 353.492C364.091 338.554 353.071 316.328 344.989 308.313C336.908 300.297 316.704 287.18 316.704 271.149C316.704 255.117 286.214 221.597 271.153 215.767C256.092 209.938 207.603 180.789 197.317 116.664C187.031 180.789 138.909 209.573 123.481 215.767C108.787 221.961 78.6648 255.117 78.6648 271.149C78.6648 287.18 58.4609 300.297 50.3793 308.313C42.2977 316.328 31.2774 338.554 31.2774 353.492C31.2774 368.431 30.1754 376.446 16.5836 412.517C2.9919 448.588 4.46128 529.11 76.8281 556.801C144.419 582.305 191.072 557.529 196.95 553.886L185.929 560.444" fill="#A46A14"/>
<path d="M216.786 568.095C233.683 574.289 252.418 575.746 270.051 575.018C296.499 573.925 323.315 566.273 345.356 551.335C388.335 521.822 403.029 468.627 390.907 419.804C387.601 405.958 380.989 393.206 376.948 379.725C372.907 366.244 374.009 351.67 370.336 338.189C366.662 325.437 360.05 313.413 351.234 303.576C342.05 293.374 331.03 286.815 326.254 273.334C322.581 261.675 318.907 251.473 310.826 242C303.846 233.62 295.03 226.697 285.846 220.139C265.642 205.929 243.234 193.906 228.541 173.138C192.908 122.493 201.357 60.553 199.888 2.62108C199.888 1.16367 198.418 0.0706168 196.949 0.0706168C196.214 -0.293735 195.112 0.79932 195.112 2.25673C193.643 60.553 202.092 122.128 166.459 172.773C152.133 193.541 129.725 205.201 109.154 219.775C100.337 225.969 91.1538 232.891 84.1742 241.636C76.46 251.109 72.7866 261.311 68.7458 272.97C64.3377 286.451 53.3173 293.374 43.7664 303.211C34.5828 313.049 27.9706 325.072 24.6645 337.825C20.991 351.306 22.093 365.88 18.0523 379.361C14.0115 392.842 7.39927 405.594 4.09317 419.439C-8.0292 468.627 6.66458 521.822 49.6439 550.97C71.6845 566.273 98.5007 573.56 124.949 574.653C142.949 575.382 161.684 573.925 178.214 567.731L216.786 568.095ZM202.459 583.033C200.99 583.398 199.52 583.762 197.684 583.398C195.847 583.033 194.745 582.669 193.276 581.94V579.39C194.01 579.754 194.745 579.754 195.112 580.119C197.316 580.847 199.888 580.847 202.459 580.847V583.033ZM193.276 627.12C196.214 628.213 199.52 628.942 202.459 628.577C202.459 629.67 202.459 630.763 202.459 631.857C199.52 632.95 196.214 633.314 192.908 632.585C192.908 630.763 193.276 628.942 193.276 627.12ZM202.826 659.183C200.99 659.547 199.52 659.912 197.684 659.912C195.847 659.912 194.378 659.547 192.541 658.819C192.541 656.997 192.541 654.811 192.541 652.989C195.48 654.446 199.153 654.811 202.459 654.446C202.826 655.904 202.826 657.361 202.826 659.183ZM192.541 660.64C195.847 662.098 199.52 662.462 202.826 661.733C202.826 663.191 202.826 664.648 202.826 666.106C199.52 666.834 195.847 666.834 192.541 665.741C192.541 664.284 192.541 662.462 192.541 660.64ZM202.459 620.562C199.52 621.29 196.214 620.926 193.276 619.833V614.003C196.214 615.096 199.52 615.825 202.459 615.096V620.562ZM193.276 599.065C196.214 600.887 199.153 601.615 202.459 601.251C199.153 601.98 196.214 601.615 193.276 600.158V599.065ZM202.459 599.065C199.153 599.429 196.214 598.7 193.276 596.879V592.507C196.214 593.6 199.52 593.964 202.459 593.964V599.065ZM202.459 623.112V625.663C199.52 626.027 196.214 626.027 193.276 625.298V622.019C196.214 623.112 199.153 623.476 202.459 623.112ZM192.908 634.407C195.847 635.136 199.153 635.136 202.459 634.407C202.459 635.864 202.459 637.686 202.459 639.144C199.153 639.508 196.214 639.508 192.908 638.779C192.908 637.686 192.908 635.864 192.908 634.407ZM202.826 651.167C199.52 651.896 196.214 651.896 192.908 650.438C192.908 648.981 192.908 647.524 192.908 645.702C195.847 646.795 199.52 647.159 202.826 646.795C202.826 648.252 202.826 649.71 202.826 651.167ZM192.541 667.927C195.847 669.02 199.52 669.385 203.194 668.656C203.194 670.842 203.194 672.664 203.194 674.85C200.99 675.214 199.153 675.579 196.949 675.579C195.48 675.579 194.01 675.214 192.541 674.85C192.541 672.664 192.541 670.478 192.541 667.927ZM202.459 611.817C199.52 612.546 196.214 612.91 193.276 611.817V605.988C196.214 607.445 199.153 607.809 202.459 607.809V611.817ZM193.276 603.801V602.344C196.214 603.801 199.52 604.53 202.459 604.166V605.259C199.153 605.623 196.214 605.259 193.276 603.801ZM202.459 591.778C199.52 592.142 196.214 592.142 193.276 591.049V588.499C194.378 588.863 195.48 588.863 196.214 588.863C198.418 589.227 200.255 589.227 202.459 588.863V591.778ZM202.459 578.297C201.357 578.297 200.255 578.297 199.153 578.297C197.684 578.297 195.48 577.932 193.276 577.204V573.56C193.276 573.56 193.276 573.56 193.643 573.56C196.582 574.289 199.52 574.653 202.459 573.925V578.297ZM202.459 572.467C199.52 572.832 195.847 573.196 193.276 572.103V567.366C196.214 568.459 199.52 568.824 202.459 568.459V572.467ZM202.459 642.423C202.459 643.151 202.459 643.516 202.459 644.244C199.153 644.973 196.214 644.973 192.908 644.244C192.908 643.516 192.908 642.423 192.908 641.694C196.214 642.423 199.52 642.787 202.459 642.423ZM192.541 677.036C196.214 678.129 199.888 678.494 203.194 677.765L192.541 677.036ZM199.153 587.041C198.051 587.041 195.48 587.041 193.276 586.677V583.762C195.847 585.219 199.52 585.584 202.459 584.855V586.313C201.357 587.041 200.255 587.041 199.153 587.041ZM202.459 566.273C199.52 566.638 196.214 566.273 193.276 565.545V564.451C193.643 564.451 193.643 564.452 194.01 564.816C196.582 565.545 199.888 565.18 202.459 564.451V566.273ZM268.214 225.969C277.397 232.163 286.581 237.992 294.295 246.008C302.744 254.388 307.152 263.497 310.826 274.792C310.826 275.156 310.826 275.156 311.193 275.521C305.316 312.32 295.03 348.391 277.03 381.182C257.928 415.432 231.847 441.665 200.255 463.89C200.255 458.789 200.255 453.324 200.255 448.223C200.255 435.835 200.255 423.447 200.255 411.059C211.643 402.315 219.357 389.563 226.704 377.539C235.52 362.236 242.867 346.205 249.112 329.809C261.234 295.924 267.112 260.218 266.377 224.147C266.377 224.876 267.112 225.24 268.214 225.969ZM263.438 222.69C263.806 287.18 245.438 360.779 199.52 408.873C199.52 384.826 199.52 361.143 199.52 337.096C199.52 335.639 199.52 334.181 199.52 332.724C225.969 293.009 230.377 240.178 228.541 193.541C238.826 204.836 250.581 213.945 263.438 222.69ZM217.52 179.696C220.459 184.433 224.132 188.44 227.439 192.448C227.071 192.448 226.704 192.813 226.704 193.177C224.5 241.271 224.132 287.908 199.52 330.902C199.52 296.289 199.888 261.675 199.52 227.426C204.296 211.395 205.031 193.541 205.398 177.146C205.398 170.587 205.398 164.029 205.031 157.471C208.704 165.122 212.745 172.773 217.52 179.696ZM202.092 150.548C202.826 160.021 203.561 169.494 203.194 178.967C202.826 191.355 201.357 203.743 199.52 215.767C199.52 191.355 199.52 167.308 199.153 142.896C200.255 145.811 201.357 148.362 202.092 150.548ZM200.255 524.008C217.153 521.094 233.683 505.062 246.173 494.86C263.071 481.015 278.132 464.983 291.356 447.859C317.438 414.339 336.907 375.353 345.723 333.817C346.091 333.088 344.621 332.724 344.254 333.452C333.968 372.074 317.438 408.873 293.561 441.301C281.438 457.696 267.479 472.999 252.051 486.845C243.969 494.132 235.153 501.054 226.337 507.613C218.622 513.078 210.173 520.001 200.622 522.551C200.99 503.605 200.255 484.294 199.888 465.712C233.683 447.859 260.5 415.432 278.867 382.64C296.499 350.941 307.52 315.964 312.662 280.257C316.703 290.095 322.213 297.746 330.295 305.033C339.846 313.777 348.295 322.886 353.07 335.639C357.846 348.391 357.111 361.872 359.683 375.353C362.254 388.834 368.499 401.586 372.907 414.703C387.968 460.976 376.213 514.535 333.234 541.133C313.764 553.157 290.989 559.351 268.214 560.808C250.581 561.901 231.847 560.444 214.581 554.978C276.295 545.505 334.703 502.876 364.458 449.316C365.193 448.223 363.356 447.13 362.621 448.223C344.989 476.643 322.581 501.054 294.663 519.636C268.948 536.761 240.663 546.963 210.908 553.885C207.235 552.428 203.561 550.97 199.888 549.149C199.888 540.04 200.255 532.024 200.255 524.008ZM198.418 559.351C199.52 560.079 200.99 560.808 202.092 561.537V562.265C200.99 562.63 199.52 562.994 198.051 563.358C196.582 563.358 194.745 563.358 192.908 562.63V561.537C194.01 560.808 195.48 560.079 196.582 559.351C197.316 560.079 198.418 560.079 198.418 559.351ZM193.276 150.548C194.378 147.997 195.112 145.447 196.214 143.261C195.847 167.672 195.847 191.72 195.847 216.131C194.378 203.743 192.541 191.72 192.174 179.332C191.806 169.494 192.541 160.021 193.276 150.548ZM177.847 179.696C182.623 172.773 186.663 165.122 190.337 157.471C189.969 164.029 189.969 170.587 189.969 177.146C189.969 193.541 191.071 211.759 195.847 227.426C195.847 262.04 195.847 296.653 195.847 330.902C171.235 287.908 171.235 241.271 168.663 193.177C168.663 192.448 168.296 192.448 167.929 192.448C171.235 188.44 174.908 184.068 177.847 179.696ZM166.827 193.541C164.623 240.178 169.398 293.009 195.847 332.724C195.847 334.181 195.847 335.639 195.847 337.096C195.847 361.143 195.847 384.826 195.847 408.873C149.929 361.143 131.562 287.18 131.929 222.69C144.786 213.945 156.541 204.836 166.827 193.541ZM84.9089 274.792C88.215 263.497 92.9905 254.388 101.439 246.008C109.154 238.357 118.337 232.163 127.521 225.969C128.623 225.24 129.358 224.876 130.46 224.147C129.358 260.218 135.235 295.924 147.725 329.809C153.602 346.205 161.317 362.236 170.133 377.539C177.112 389.563 185.194 402.315 196.582 411.059C196.582 423.447 196.582 435.835 196.582 448.223C196.582 453.324 196.582 458.789 196.582 463.89C164.623 441.301 138.541 415.432 119.807 381.182C101.439 348.391 91.5211 312.32 85.6436 275.521C84.5416 275.156 84.9089 274.792 84.9089 274.792ZM127.521 560.079C104.746 558.622 81.6028 552.428 62.5009 540.404C19.5216 513.807 7.76661 460.247 22.8277 413.974C27.2359 400.857 33.4807 388.47 36.0521 374.624C38.6235 361.508 37.8889 348.027 42.6643 334.91C47.4398 322.522 55.8887 313.413 65.4397 304.304C73.5213 296.653 79.3988 289.366 83.0722 279.528C88.5824 315.235 99.6027 350.213 116.868 381.911C135.235 414.703 162.051 447.13 195.847 464.983C195.48 483.93 195.112 502.876 195.112 521.822C185.561 519.272 177.112 512.714 169.398 506.884C160.215 500.326 151.766 493.403 143.684 486.116C128.256 472.27 114.664 456.968 102.174 440.572C78.2967 408.145 61.7662 371.709 51.4806 332.724C51.1133 331.995 50.0112 332.359 50.0112 333.088C58.8275 374.624 78.2967 413.61 104.378 447.13C117.603 464.255 132.664 480.286 149.562 494.132C161.684 504.333 178.582 520.365 195.112 522.915C195.112 530.931 195.48 538.947 195.847 546.963C192.173 548.784 188.867 550.242 184.827 551.699C154.704 544.776 126.786 534.939 101.072 517.45C73.1539 498.868 50.7459 474.457 33.1134 446.037C32.3787 444.944 30.542 446.037 31.2767 447.13C61.0315 500.69 119.439 543.319 181.153 552.792C163.888 559.715 145.153 561.172 127.521 560.079Z" fill="#2F1E06"/>
<path d="M193.275 567.365L192.54 677.035C192.54 677.035 195.111 678.128 198.05 678.128C200.622 678.128 203.56 677.763 203.56 677.763L202.458 561.535L199.52 556.07L190.336 561.171L193.275 567.365Z" fill="#2F1E06"/>
</svg>
